<svg width="36" height="36" viewBox="0 0 36 36" fill="none" xmlns="http://www.w3.org/2000/svg">
<circle cx="18" cy="18" r="18" fill="#FF6652"/>
<path d="M18.0004 11.4541C16.2228 11.4541 15.9997 11.4619 15.3016 11.4936C14.6048 11.5256 14.1291 11.6359 13.713 11.7977C13.2825 11.9649 12.9173 12.1886 12.5535 12.5525C12.1894 12.9163 11.9658 13.2815 11.7981 13.7119C11.6358 14.1282 11.5254 14.604 11.494 15.3005C11.4628 15.9987 11.4546 16.2219 11.4546 17.9996C11.4546 19.7772 11.4625 19.9996 11.4941 20.6978C11.5262 21.3946 11.6365 21.8702 11.7982 22.2864C11.9655 22.7169 12.1892 23.0821 12.5531 23.4459C12.9168 23.81 13.2819 24.0342 13.7122 24.2014C14.1286 24.3632 14.6044 24.4735 15.301 24.5055C15.9992 24.5372 16.2221 24.545 17.9996 24.545C19.7773 24.545 19.9997 24.5372 20.6979 24.5055C21.3947 24.4735 21.8708 24.3632 22.2873 24.2014C22.7176 24.0342 23.0822 23.81 23.4459 23.4459C23.81 23.0821 24.0336 22.7169 24.2013 22.2866C24.3622 21.8702 24.4727 21.3945 24.5054 20.6979C24.5368 19.9997 24.545 19.7772 24.545 17.9996C24.545 16.2219 24.5368 15.9988 24.5054 15.3006C24.4727 14.6038 24.3622 14.1282 24.2013 13.712C24.0336 13.2815 23.81 12.9163 23.4459 12.5525C23.0818 12.1884 22.7177 11.9648 22.2869 11.7977C21.8696 11.6359 21.3937 11.5256 20.6969 11.4936C19.9987 11.4619 19.7765 11.4541 17.9983 11.4541H18.0004ZM17.4132 12.6336C17.5875 12.6334 17.7819 12.6336 18.0004 12.6336C19.748 12.6336 19.9551 12.6399 20.6452 12.6713C21.2834 12.7005 21.6297 12.8071 21.8605 12.8967C22.1659 13.0153 22.3837 13.1571 22.6126 13.3862C22.8417 13.6153 22.9835 13.8335 23.1024 14.139C23.192 14.3694 23.2988 14.7158 23.3278 15.354C23.3592 16.044 23.366 16.2512 23.366 17.9981C23.366 19.7449 23.3592 19.9521 23.3278 20.6421C23.2986 21.2803 23.192 21.6267 23.1024 21.8571C22.9838 22.1626 22.8417 22.3801 22.6126 22.6091C22.3835 22.8381 22.166 22.98 21.8605 23.0986C21.63 23.1886 21.2834 23.295 20.6452 23.3241C19.9552 23.3555 19.748 23.3623 18.0004 23.3623C16.2527 23.3623 16.0455 23.3555 15.3556 23.3241C14.7174 23.2947 14.371 23.1881 14.1402 23.0985C13.8347 22.9798 13.6166 22.838 13.3875 22.6089C13.1584 22.3798 13.0166 22.1622 12.8977 21.8566C12.8081 21.6261 12.7013 21.2798 12.6723 20.6416C12.6409 19.9516 12.6346 19.7443 12.6346 17.9964C12.6346 16.2485 12.6409 16.0423 12.6723 15.3523C12.7015 14.7141 12.8081 14.3678 12.8977 14.1371C13.0163 13.8316 13.1584 13.6134 13.3875 13.3843C13.6166 13.1552 13.8347 13.0134 14.1402 12.8945C14.3709 12.8045 14.7174 12.6981 15.3556 12.6688C15.9594 12.6416 16.1934 12.6334 17.4132 12.632V12.6336ZM21.4942 13.7205C21.0606 13.7205 20.7088 14.0719 20.7088 14.5056C20.7088 14.9393 21.0606 15.2911 21.4942 15.2911C21.9278 15.2911 22.2796 14.9393 22.2796 14.5056C22.2796 14.072 21.9278 13.7202 21.4942 13.7202V13.7205ZM18.0004 14.6382C16.1441 14.6382 14.6391 16.1432 14.6391 17.9996C14.6391 19.8559 16.1441 21.3602 18.0004 21.3602C19.8567 21.3602 21.3611 19.8559 21.3611 17.9996C21.3611 16.1432 19.8565 14.6382 18.0003 14.6382H18.0004ZM18.0004 15.8177C19.2053 15.8177 20.1821 16.7945 20.1821 17.9996C20.1821 19.2045 19.2053 20.1814 18.0004 20.1814C16.7954 20.1814 15.8186 19.2045 15.8186 17.9996C15.8186 16.7945 16.7954 15.8177 18.0004 15.8177Z" fill="white"/>
</svg>
