<svg width="1280" height="173" viewBox="0 0 1280 173" fill="none" xmlns="http://www.w3.org/2000/svg">
<rect y="2" width="1280" height="171" rx="20" fill="#EFEBF5"/>
<mask id="mask0_28_2499" style="mask-type:alpha" maskUnits="userSpaceOnUse" x="0" y="0" width="1280" height="171">
<rect width="1280" height="171" rx="20" fill="#EFEBF5"/>
</mask>
<g mask="url(#mask0_28_2499)">
<circle cx="1241" cy="46" r="111" fill="#9C4DF4" fill-opacity="0.03"/>
<circle cx="1198" cy="46" r="111" fill="#9C4DF4" fill-opacity="0.03"/>
<path d="M1032.18 11.5057L1033.54 11.5057L1033.54 13.8017L1035.86 13.8017L1035.86 15.2017L1033.54 15.2017L1033.54 17.4978L1032.18 17.4978L1032.18 15.2017L1029.77 15.2017L1029.77 13.8017L1032.18 13.8017L1032.18 11.5057Z" fill="#9C4DF4" fill-opacity="0.3"/>
<path d="M1032.18 30.5057L1033.54 30.5057L1033.54 32.8017L1035.86 32.8017L1035.86 34.2017L1033.54 34.2017L1033.54 36.4978L1032.18 36.4978L1032.18 34.2017L1029.77 34.2017L1029.77 32.8017L1032.18 32.8017L1032.18 30.5057Z" fill="#9C4DF4" fill-opacity="0.3"/>
<path d="M1032.18 49.5057L1033.54 49.5057L1033.54 51.8017L1035.86 51.8017L1035.86 53.2017L1033.54 53.2017L1033.54 55.4978L1032.18 55.4978L1032.18 53.2017L1029.77 53.2017L1029.77 51.8017L1032.18 51.8017L1032.18 49.5057Z" fill="#9C4DF4" fill-opacity="0.3"/>
<path d="M1032.18 68.5057L1033.54 68.5057L1033.54 70.8017L1035.86 70.8017L1035.86 72.2017L1033.54 72.2017L1033.54 74.4978L1032.18 74.4978L1032.18 72.2017L1029.77 72.2017L1029.77 70.8017L1032.18 70.8017L1032.18 68.5057Z" fill="#9C4DF4" fill-opacity="0.3"/>
<path d="M1032.18 87.5057L1033.54 87.5057L1033.54 89.8017L1035.86 89.8017L1035.86 91.2017L1033.54 91.2017L1033.54 93.4978L1032.18 93.4978L1032.18 91.2017L1029.77 91.2017L1029.77 89.8017L1032.18 89.8017L1032.18 87.5057Z" fill="#9C4DF4" fill-opacity="0.3"/>
<path d="M1032.18 106.506L1033.54 106.506L1033.54 108.802L1035.86 108.802L1035.86 110.202L1033.54 110.202L1033.54 112.498L1032.18 112.498L1032.18 110.202L1029.77 110.202L1029.77 108.802L1032.18 108.802L1032.18 106.506Z" fill="#9C4DF4" fill-opacity="0.3"/>
<path d="M1032.18 125.506L1033.54 125.506L1033.54 127.802L1035.86 127.802L1035.86 129.202L1033.54 129.202L1033.54 131.498L1032.18 131.498L1032.18 129.202L1029.77 129.202L1029.77 127.802L1032.18 127.802L1032.18 125.506Z" fill="#9C4DF4" fill-opacity="0.3"/>
<path d="M1013.18 11.5057L1014.54 11.5057L1014.54 13.8017L1016.86 13.8017L1016.86 15.2017L1014.54 15.2017L1014.54 17.4978L1013.18 17.4978L1013.18 15.2017L1010.77 15.2017L1010.77 13.8017L1013.18 13.8017L1013.18 11.5057Z" fill="#9C4DF4" fill-opacity="0.3"/>
<path d="M1013.18 30.5057L1014.54 30.5057L1014.54 32.8017L1016.86 32.8017L1016.86 34.2017L1014.54 34.2017L1014.54 36.4978L1013.18 36.4978L1013.18 34.2017L1010.77 34.2017L1010.77 32.8017L1013.18 32.8017L1013.18 30.5057Z" fill="#9C4DF4" fill-opacity="0.3"/>
<path d="M1013.18 49.5057L1014.54 49.5057L1014.54 51.8017L1016.86 51.8017L1016.86 53.2017L1014.54 53.2017L1014.54 55.4978L1013.18 55.4978L1013.18 53.2017L1010.77 53.2017L1010.77 51.8017L1013.18 51.8017L1013.18 49.5057Z" fill="#9C4DF4" fill-opacity="0.3"/>
<path d="M1013.18 68.5057L1014.54 68.5057L1014.54 70.8017L1016.86 70.8017L1016.86 72.2017L1014.54 72.2017L1014.54 74.4978L1013.18 74.4978L1013.18 72.2017L1010.77 72.2017L1010.77 70.8017L1013.18 70.8017L1013.18 68.5057Z" fill="#9C4DF4" fill-opacity="0.3"/>
<path d="M1013.18 87.5057L1014.54 87.5057L1014.54 89.8017L1016.86 89.8017L1016.86 91.2017L1014.54 91.2017L1014.54 93.4978L1013.18 93.4978L1013.18 91.2017L1010.77 91.2017L1010.77 89.8017L1013.18 89.8017L1013.18 87.5057Z" fill="#9C4DF4" fill-opacity="0.3"/>
<path d="M1013.18 106.506L1014.54 106.506L1014.54 108.802L1016.86 108.802L1016.86 110.202L1014.54 110.202L1014.54 112.498L1013.18 112.498L1013.18 110.202L1010.77 110.202L1010.77 108.802L1013.18 108.802L1013.18 106.506Z" fill="#9C4DF4" fill-opacity="0.3"/>
<path d="M1013.18 125.506L1014.54 125.506L1014.54 127.802L1016.86 127.802L1016.86 129.202L1014.54 129.202L1014.54 131.498L1013.18 131.498L1013.18 129.202L1010.77 129.202L1010.77 127.802L1013.18 127.802L1013.18 125.506Z" fill="#9C4DF4" fill-opacity="0.3"/>
<path d="M994.178 11.5057L995.536 11.5057L995.536 13.8017L997.86 13.8017L997.86 15.2017L995.536 15.2017L995.536 17.4978L994.178 17.4978L994.178 15.2017L991.77 15.2017L991.77 13.8017L994.178 13.8017L994.178 11.5057Z" fill="#9C4DF4" fill-opacity="0.3"/>
<path d="M994.178 30.5057L995.536 30.5057L995.536 32.8017L997.86 32.8017L997.86 34.2017L995.536 34.2017L995.536 36.4978L994.178 36.4978L994.178 34.2017L991.77 34.2017L991.77 32.8017L994.178 32.8017L994.178 30.5057Z" fill="#9C4DF4" fill-opacity="0.3"/>
<path d="M994.178 49.5057L995.536 49.5057L995.536 51.8017L997.86 51.8017L997.86 53.2017L995.536 53.2017L995.536 55.4978L994.178 55.4978L994.178 53.2017L991.77 53.2017L991.77 51.8017L994.178 51.8017L994.178 49.5057Z" fill="#9C4DF4" fill-opacity="0.3"/>
<path d="M994.178 68.5057L995.536 68.5057L995.536 70.8017L997.86 70.8017L997.86 72.2017L995.536 72.2017L995.536 74.4978L994.178 74.4978L994.178 72.2017L991.77 72.2017L991.77 70.8017L994.178 70.8017L994.178 68.5057Z" fill="#9C4DF4" fill-opacity="0.3"/>
<path d="M994.178 87.5057L995.536 87.5057L995.536 89.8017L997.86 89.8017L997.86 91.2017L995.536 91.2017L995.536 93.4978L994.178 93.4978L994.178 91.2017L991.77 91.2017L991.77 89.8017L994.178 89.8017L994.178 87.5057Z" fill="#9C4DF4" fill-opacity="0.3"/>
<path d="M994.178 106.506L995.536 106.506L995.536 108.802L997.86 108.802L997.86 110.202L995.536 110.202L995.536 112.498L994.178 112.498L994.178 110.202L991.77 110.202L991.77 108.802L994.178 108.802L994.178 106.506Z" fill="#9C4DF4" fill-opacity="0.3"/>
<path d="M994.178 125.506L995.536 125.506L995.536 127.802L997.86 127.802L997.86 129.202L995.536 129.202L995.536 131.498L994.178 131.498L994.178 129.202L991.77 129.202L991.77 127.802L994.178 127.802L994.178 125.506Z" fill="#9C4DF4" fill-opacity="0.3"/>
<path d="M975.178 11.5057L976.536 11.5057L976.536 13.8017L978.86 13.8017L978.86 15.2017L976.536 15.2017L976.536 17.4978L975.178 17.4978L975.178 15.2017L972.77 15.2017L972.77 13.8017L975.178 13.8017L975.178 11.5057Z" fill="#9C4DF4" fill-opacity="0.3"/>
<path d="M975.178 30.5057L976.536 30.5057L976.536 32.8017L978.86 32.8017L978.86 34.2017L976.536 34.2017L976.536 36.4978L975.178 36.4978L975.178 34.2017L972.77 34.2017L972.77 32.8017L975.178 32.8017L975.178 30.5057Z" fill="#9C4DF4" fill-opacity="0.3"/>
<path d="M975.178 49.5057L976.536 49.5057L976.536 51.8017L978.86 51.8017L978.86 53.2017L976.536 53.2017L976.536 55.4978L975.178 55.4978L975.178 53.2017L972.77 53.2017L972.77 51.8017L975.178 51.8017L975.178 49.5057Z" fill="#9C4DF4" fill-opacity="0.3"/>
<path d="M975.178 68.5057L976.536 68.5057L976.536 70.8017L978.86 70.8017L978.86 72.2017L976.536 72.2017L976.536 74.4978L975.178 74.4978L975.178 72.2017L972.77 72.2017L972.77 70.8017L975.178 70.8017L975.178 68.5057Z" fill="#9C4DF4" fill-opacity="0.3"/>
<path d="M975.178 87.5057L976.536 87.5057L976.536 89.8017L978.86 89.8017L978.86 91.2017L976.536 91.2017L976.536 93.4978L975.178 93.4978L975.178 91.2017L972.77 91.2017L972.77 89.8017L975.178 89.8017L975.178 87.5057Z" fill="#9C4DF4" fill-opacity="0.3"/>
<path d="M975.178 106.506L976.536 106.506L976.536 108.802L978.86 108.802L978.86 110.202L976.536 110.202L976.536 112.498L975.178 112.498L975.178 110.202L972.77 110.202L972.77 108.802L975.178 108.802L975.178 106.506Z" fill="#9C4DF4" fill-opacity="0.3"/>
<path d="M975.178 125.506L976.536 125.506L976.536 127.802L978.86 127.802L978.86 129.202L976.536 129.202L976.536 131.498L975.178 131.498L975.178 129.202L972.77 129.202L972.77 127.802L975.178 127.802L975.178 125.506Z" fill="#9C4DF4" fill-opacity="0.3"/>
<path d="M956.178 11.5057L957.536 11.5057L957.536 13.8017L959.86 13.8017L959.86 15.2017L957.536 15.2017L957.536 17.4978L956.178 17.4978L956.178 15.2017L953.77 15.2017L953.77 13.8017L956.178 13.8017L956.178 11.5057Z" fill="#9C4DF4" fill-opacity="0.3"/>
<path d="M956.178 30.5057L957.536 30.5057L957.536 32.8017L959.86 32.8017L959.86 34.2017L957.536 34.2017L957.536 36.4978L956.178 36.4978L956.178 34.2017L953.77 34.2017L953.77 32.8017L956.178 32.8017L956.178 30.5057Z" fill="#9C4DF4" fill-opacity="0.3"/>
<path d="M956.178 49.5057L957.536 49.5057L957.536 51.8017L959.86 51.8017L959.86 53.2017L957.536 53.2017L957.536 55.4978L956.178 55.4978L956.178 53.2017L953.77 53.2017L953.77 51.8017L956.178 51.8017L956.178 49.5057Z" fill="#9C4DF4" fill-opacity="0.3"/>
<path d="M956.178 68.5057L957.536 68.5057L957.536 70.8017L959.86 70.8017L959.86 72.2017L957.536 72.2017L957.536 74.4978L956.178 74.4978L956.178 72.2017L953.77 72.2017L953.77 70.8017L956.178 70.8017L956.178 68.5057Z" fill="#9C4DF4" fill-opacity="0.3"/>
<path d="M956.178 87.5057L957.536 87.5057L957.536 89.8017L959.86 89.8017L959.86 91.2017L957.536 91.2017L957.536 93.4978L956.178 93.4978L956.178 91.2017L953.77 91.2017L953.77 89.8017L956.178 89.8017L956.178 87.5057Z" fill="#9C4DF4" fill-opacity="0.3"/>
<path d="M956.178 106.506L957.536 106.506L957.536 108.802L959.86 108.802L959.86 110.202L957.536 110.202L957.536 112.498L956.178 112.498L956.178 110.202L953.77 110.202L953.77 108.802L956.178 108.802L956.178 106.506Z" fill="#9C4DF4" fill-opacity="0.3"/>
<path d="M956.178 125.506L957.536 125.506L957.536 127.802L959.86 127.802L959.86 129.202L957.536 129.202L957.536 131.498L956.178 131.498L956.178 129.202L953.77 129.202L953.77 127.802L956.178 127.802L956.178 125.506Z" fill="#9C4DF4" fill-opacity="0.3"/>
<path d="M937.178 11.5057L938.536 11.5057L938.536 13.8017L940.86 13.8017L940.86 15.2017L938.536 15.2017L938.536 17.4978L937.178 17.4978L937.178 15.2017L934.77 15.2017L934.77 13.8017L937.178 13.8017L937.178 11.5057Z" fill="#9C4DF4" fill-opacity="0.3"/>
<path d="M937.178 30.5057L938.536 30.5057L938.536 32.8017L940.86 32.8017L940.86 34.2017L938.536 34.2017L938.536 36.4978L937.178 36.4978L937.178 34.2017L934.77 34.2017L934.77 32.8017L937.178 32.8017L937.178 30.5057Z" fill="#9C4DF4" fill-opacity="0.3"/>
<path d="M937.178 49.5057L938.536 49.5057L938.536 51.8017L940.86 51.8017L940.86 53.2017L938.536 53.2017L938.536 55.4978L937.178 55.4978L937.178 53.2017L934.77 53.2017L934.77 51.8017L937.178 51.8017L937.178 49.5057Z" fill="#9C4DF4" fill-opacity="0.3"/>
<path d="M937.178 68.5057L938.536 68.5057L938.536 70.8017L940.86 70.8017L940.86 72.2017L938.536 72.2017L938.536 74.4978L937.178 74.4978L937.178 72.2017L934.77 72.2017L934.77 70.8017L937.178 70.8017L937.178 68.5057Z" fill="#9C4DF4" fill-opacity="0.3"/>
<path d="M937.178 87.5057L938.536 87.5057L938.536 89.8017L940.86 89.8017L940.86 91.2017L938.536 91.2017L938.536 93.4978L937.178 93.4978L937.178 91.2017L934.77 91.2017L934.77 89.8017L937.178 89.8017L937.178 87.5057Z" fill="#9C4DF4" fill-opacity="0.3"/>
<path d="M937.178 106.506L938.536 106.506L938.536 108.802L940.86 108.802L940.86 110.202L938.536 110.202L938.536 112.498L937.178 112.498L937.178 110.202L934.77 110.202L934.77 108.802L937.178 108.802L937.178 106.506Z" fill="#9C4DF4" fill-opacity="0.3"/>
<path d="M937.178 125.506L938.536 125.506L938.536 127.802L940.86 127.802L940.86 129.202L938.536 129.202L938.536 131.498L937.178 131.498L937.178 129.202L934.77 129.202L934.77 127.802L937.178 127.802L937.178 125.506Z" fill="#9C4DF4" fill-opacity="0.3"/>
<path d="M918.178 11.5057L919.536 11.5057L919.536 13.8017L921.86 13.8017L921.86 15.2017L919.536 15.2017L919.536 17.4978L918.178 17.4978L918.178 15.2017L915.77 15.2017L915.77 13.8017L918.178 13.8017L918.178 11.5057Z" fill="#9C4DF4" fill-opacity="0.3"/>
<path d="M918.178 30.5057L919.536 30.5057L919.536 32.8017L921.86 32.8017L921.86 34.2017L919.536 34.2017L919.536 36.4978L918.178 36.4978L918.178 34.2017L915.77 34.2017L915.77 32.8017L918.178 32.8017L918.178 30.5057Z" fill="#9C4DF4" fill-opacity="0.3"/>
<path d="M918.178 49.5057L919.536 49.5057L919.536 51.8017L921.86 51.8017L921.86 53.2017L919.536 53.2017L919.536 55.4978L918.178 55.4978L918.178 53.2017L915.77 53.2017L915.77 51.8017L918.178 51.8017L918.178 49.5057Z" fill="#9C4DF4" fill-opacity="0.3"/>
<path d="M918.178 68.5057L919.536 68.5057L919.536 70.8017L921.86 70.8017L921.86 72.2017L919.536 72.2017L919.536 74.4978L918.178 74.4978L918.178 72.2017L915.77 72.2017L915.77 70.8017L918.178 70.8017L918.178 68.5057Z" fill="#9C4DF4" fill-opacity="0.3"/>
<path d="M918.178 87.5057L919.536 87.5057L919.536 89.8017L921.86 89.8017L921.86 91.2017L919.536 91.2017L919.536 93.4978L918.178 93.4978L918.178 91.2017L915.77 91.2017L915.77 89.8017L918.178 89.8017L918.178 87.5057Z" fill="#9C4DF4" fill-opacity="0.3"/>
<path d="M918.178 106.506L919.536 106.506L919.536 108.802L921.86 108.802L921.86 110.202L919.536 110.202L919.536 112.498L918.178 112.498L918.178 110.202L915.77 110.202L915.77 108.802L918.178 108.802L918.178 106.506Z" fill="#9C4DF4" fill-opacity="0.3"/>
<path d="M918.178 125.506L919.536 125.506L919.536 127.802L921.86 127.802L921.86 129.202L919.536 129.202L919.536 131.498L918.178 131.498L918.178 129.202L915.77 129.202L915.77 127.802L918.178 127.802L918.178 125.506Z" fill="#9C4DF4" fill-opacity="0.3"/>
<path d="M899.178 11.5057L900.536 11.5057L900.536 13.8017L902.86 13.8017L902.86 15.2017L900.536 15.2017L900.536 17.4978L899.178 17.4978L899.178 15.2017L896.77 15.2017L896.77 13.8017L899.178 13.8017L899.178 11.5057Z" fill="#9C4DF4" fill-opacity="0.3"/>
<path d="M899.178 30.5057L900.536 30.5057L900.536 32.8017L902.86 32.8017L902.86 34.2017L900.536 34.2017L900.536 36.4978L899.178 36.4978L899.178 34.2017L896.77 34.2017L896.77 32.8017L899.178 32.8017L899.178 30.5057Z" fill="#9C4DF4" fill-opacity="0.3"/>
<path d="M899.178 49.5057L900.536 49.5057L900.536 51.8017L902.86 51.8017L902.86 53.2017L900.536 53.2017L900.536 55.4978L899.178 55.4978L899.178 53.2017L896.77 53.2017L896.77 51.8017L899.178 51.8017L899.178 49.5057Z" fill="#9C4DF4" fill-opacity="0.3"/>
<path d="M899.178 68.5057L900.536 68.5057L900.536 70.8017L902.86 70.8017L902.86 72.2017L900.536 72.2017L900.536 74.4978L899.178 74.4978L899.178 72.2017L896.77 72.2017L896.77 70.8017L899.178 70.8017L899.178 68.5057Z" fill="#9C4DF4" fill-opacity="0.3"/>
<path d="M899.178 87.5057L900.536 87.5057L900.536 89.8017L902.86 89.8017L902.86 91.2017L900.536 91.2017L900.536 93.4978L899.178 93.4978L899.178 91.2017L896.77 91.2017L896.77 89.8017L899.178 89.8017L899.178 87.5057Z" fill="#9C4DF4" fill-opacity="0.3"/>
<path d="M899.178 106.506L900.536 106.506L900.536 108.802L902.86 108.802L902.86 110.202L900.536 110.202L900.536 112.498L899.178 112.498L899.178 110.202L896.77 110.202L896.77 108.802L899.178 108.802L899.178 106.506Z" fill="#9C4DF4" fill-opacity="0.3"/>
<path d="M899.178 125.506L900.536 125.506L900.536 127.802L902.86 127.802L902.86 129.202L900.536 129.202L900.536 131.498L899.178 131.498L899.178 129.202L896.77 129.202L896.77 127.802L899.178 127.802L899.178 125.506Z" fill="#9C4DF4" fill-opacity="0.3"/>
<path d="M880.178 11.5057L881.536 11.5057L881.536 13.8017L883.86 13.8017L883.86 15.2017L881.536 15.2017L881.536 17.4978L880.178 17.4978L880.178 15.2017L877.77 15.2017L877.77 13.8017L880.178 13.8017L880.178 11.5057Z" fill="#9C4DF4" fill-opacity="0.3"/>
<path d="M880.178 30.5057L881.536 30.5057L881.536 32.8017L883.86 32.8017L883.86 34.2017L881.536 34.2017L881.536 36.4978L880.178 36.4978L880.178 34.2017L877.77 34.2017L877.77 32.8017L880.178 32.8017L880.178 30.5057Z" fill="#9C4DF4" fill-opacity="0.3"/>
<path d="M880.178 49.5057L881.536 49.5057L881.536 51.8017L883.86 51.8017L883.86 53.2017L881.536 53.2017L881.536 55.4978L880.178 55.4978L880.178 53.2017L877.77 53.2017L877.77 51.8017L880.178 51.8017L880.178 49.5057Z" fill="#9C4DF4" fill-opacity="0.3"/>
<path d="M880.178 68.5057L881.536 68.5057L881.536 70.8017L883.86 70.8017L883.86 72.2017L881.536 72.2017L881.536 74.4978L880.178 74.4978L880.178 72.2017L877.77 72.2017L877.77 70.8017L880.178 70.8017L880.178 68.5057Z" fill="#9C4DF4" fill-opacity="0.3"/>
<path d="M880.178 87.5057L881.536 87.5057L881.536 89.8017L883.86 89.8017L883.86 91.2017L881.536 91.2017L881.536 93.4978L880.178 93.4978L880.178 91.2017L877.77 91.2017L877.77 89.8017L880.178 89.8017L880.178 87.5057Z" fill="#9C4DF4" fill-opacity="0.3"/>
<path d="M880.178 106.506L881.536 106.506L881.536 108.802L883.86 108.802L883.86 110.202L881.536 110.202L881.536 112.498L880.178 112.498L880.178 110.202L877.77 110.202L877.77 108.802L880.178 108.802L880.178 106.506Z" fill="#9C4DF4" fill-opacity="0.3"/>
<path d="M880.178 125.506L881.536 125.506L881.536 127.802L883.86 127.802L883.86 129.202L881.536 129.202L881.536 131.498L880.178 131.498L880.178 129.202L877.77 129.202L877.77 127.802L880.178 127.802L880.178 125.506Z" fill="#9C4DF4" fill-opacity="0.3"/>
<path d="M861.178 11.5057L862.536 11.5057L862.536 13.8017L864.86 13.8017L864.86 15.2017L862.536 15.2017L862.536 17.4978L861.178 17.4978L861.178 15.2017L858.77 15.2017L858.77 13.8017L861.178 13.8017L861.178 11.5057Z" fill="#9C4DF4" fill-opacity="0.3"/>
<path d="M861.178 30.5057L862.536 30.5057L862.536 32.8017L864.86 32.8017L864.86 34.2017L862.536 34.2017L862.536 36.4978L861.178 36.4978L861.178 34.2017L858.77 34.2017L858.77 32.8017L861.178 32.8017L861.178 30.5057Z" fill="#9C4DF4" fill-opacity="0.3"/>
<path d="M861.178 49.5057L862.536 49.5057L862.536 51.8017L864.86 51.8017L864.86 53.2017L862.536 53.2017L862.536 55.4978L861.178 55.4978L861.178 53.2017L858.77 53.2017L858.77 51.8017L861.178 51.8017L861.178 49.5057Z" fill="#9C4DF4" fill-opacity="0.3"/>
<path d="M861.178 68.5057L862.536 68.5057L862.536 70.8017L864.86 70.8017L864.86 72.2017L862.536 72.2017L862.536 74.4978L861.178 74.4978L861.178 72.2017L858.77 72.2017L858.77 70.8017L861.178 70.8017L861.178 68.5057Z" fill="#9C4DF4" fill-opacity="0.3"/>
<path d="M861.178 87.5057L862.536 87.5057L862.536 89.8017L864.86 89.8017L864.86 91.2017L862.536 91.2017L862.536 93.4978L861.178 93.4978L861.178 91.2017L858.77 91.2017L858.77 89.8017L861.178 89.8017L861.178 87.5057Z" fill="#9C4DF4" fill-opacity="0.3"/>
<path d="M861.178 106.506L862.536 106.506L862.536 108.802L864.86 108.802L864.86 110.202L862.536 110.202L862.536 112.498L861.178 112.498L861.178 110.202L858.77 110.202L858.77 108.802L861.178 108.802L861.178 106.506Z" fill="#9C4DF4" fill-opacity="0.3"/>
<path d="M861.178 125.506L862.536 125.506L862.536 127.802L864.86 127.802L864.86 129.202L862.536 129.202L862.536 131.498L861.178 131.498L861.178 129.202L858.77 129.202L858.77 127.802L861.178 127.802L861.178 125.506Z" fill="#9C4DF4" fill-opacity="0.3"/>
<path d="M1108.18 68.5057L1109.54 68.5057L1109.54 70.8017L1111.86 70.8017L1111.86 72.2017L1109.54 72.2017L1109.54 74.4978L1108.18 74.4978L1108.18 72.2017L1105.77 72.2017L1105.77 70.8017L1108.18 70.8017L1108.18 68.5057Z" fill="#9C4DF4" fill-opacity="0.3"/>
<path d="M1108.18 87.5057L1109.54 87.5057L1109.54 89.8017L1111.86 89.8017L1111.86 91.2017L1109.54 91.2017L1109.54 93.4978L1108.18 93.4978L1108.18 91.2017L1105.77 91.2017L1105.77 89.8017L1108.18 89.8017L1108.18 87.5057Z" fill="#9C4DF4" fill-opacity="0.3"/>
<path d="M1108.18 106.506L1109.54 106.506L1109.54 108.802L1111.86 108.802L1111.86 110.202L1109.54 110.202L1109.54 112.498L1108.18 112.498L1108.18 110.202L1105.77 110.202L1105.77 108.802L1108.18 108.802L1108.18 106.506Z" fill="#9C4DF4" fill-opacity="0.3"/>
<path d="M1108.18 125.506L1109.54 125.506L1109.54 127.802L1111.86 127.802L1111.86 129.202L1109.54 129.202L1109.54 131.498L1108.18 131.498L1108.18 129.202L1105.77 129.202L1105.77 127.802L1108.18 127.802L1108.18 125.506Z" fill="#9C4DF4" fill-opacity="0.3"/>
<path d="M1108.18 144.506L1109.54 144.506L1109.54 146.802L1111.86 146.802L1111.86 148.202L1109.54 148.202L1109.54 150.498L1108.18 150.498L1108.18 148.202L1105.77 148.202L1105.77 146.802L1108.18 146.802L1108.18 144.506Z" fill="#9C4DF4" fill-opacity="0.3"/>
<path d="M1108.18 163.506L1109.54 163.506L1109.54 165.802L1111.86 165.802L1111.86 167.202L1109.54 167.202L1109.54 169.498L1108.18 169.498L1108.18 167.202L1105.77 167.202L1105.77 165.802L1108.18 165.802L1108.18 163.506Z" fill="#9C4DF4" fill-opacity="0.3"/>
<path d="M1089.18 68.5057L1090.54 68.5057L1090.54 70.8017L1092.86 70.8017L1092.86 72.2017L1090.54 72.2017L1090.54 74.4978L1089.18 74.4978L1089.18 72.2017L1086.77 72.2017L1086.77 70.8017L1089.18 70.8017L1089.18 68.5057Z" fill="#9C4DF4" fill-opacity="0.3"/>
<path d="M1089.18 87.5057L1090.54 87.5057L1090.54 89.8017L1092.86 89.8017L1092.86 91.2017L1090.54 91.2017L1090.54 93.4978L1089.18 93.4978L1089.18 91.2017L1086.77 91.2017L1086.77 89.8017L1089.18 89.8017L1089.18 87.5057Z" fill="#9C4DF4" fill-opacity="0.3"/>
<path d="M1089.18 106.506L1090.54 106.506L1090.54 108.802L1092.86 108.802L1092.86 110.202L1090.54 110.202L1090.54 112.498L1089.18 112.498L1089.18 110.202L1086.77 110.202L1086.77 108.802L1089.18 108.802L1089.18 106.506Z" fill="#9C4DF4" fill-opacity="0.3"/>
<path d="M1089.18 125.506L1090.54 125.506L1090.54 127.802L1092.86 127.802L1092.86 129.202L1090.54 129.202L1090.54 131.498L1089.18 131.498L1089.18 129.202L1086.77 129.202L1086.77 127.802L1089.18 127.802L1089.18 125.506Z" fill="#9C4DF4" fill-opacity="0.3"/>
<path d="M1089.18 144.506L1090.54 144.506L1090.54 146.802L1092.86 146.802L1092.86 148.202L1090.54 148.202L1090.54 150.498L1089.18 150.498L1089.18 148.202L1086.77 148.202L1086.77 146.802L1089.18 146.802L1089.18 144.506Z" fill="#9C4DF4" fill-opacity="0.3"/>
<path d="M1089.18 163.506L1090.54 163.506L1090.54 165.802L1092.86 165.802L1092.86 167.202L1090.54 167.202L1090.54 169.498L1089.18 169.498L1089.18 167.202L1086.77 167.202L1086.77 165.802L1089.18 165.802L1089.18 163.506Z" fill="#9C4DF4" fill-opacity="0.3"/>
<path d="M1070.18 68.5057L1071.54 68.5057L1071.54 70.8017L1073.86 70.8017L1073.86 72.2017L1071.54 72.2017L1071.54 74.4978L1070.18 74.4978L1070.18 72.2017L1067.77 72.2017L1067.77 70.8017L1070.18 70.8017L1070.18 68.5057Z" fill="#9C4DF4" fill-opacity="0.3"/>
<path d="M1070.18 87.5057L1071.54 87.5057L1071.54 89.8017L1073.86 89.8017L1073.86 91.2017L1071.54 91.2017L1071.54 93.4978L1070.18 93.4978L1070.18 91.2017L1067.77 91.2017L1067.77 89.8017L1070.18 89.8017L1070.18 87.5057Z" fill="#9C4DF4" fill-opacity="0.3"/>
<path d="M1070.18 106.506L1071.54 106.506L1071.54 108.802L1073.86 108.802L1073.86 110.202L1071.54 110.202L1071.54 112.498L1070.18 112.498L1070.18 110.202L1067.77 110.202L1067.77 108.802L1070.18 108.802L1070.18 106.506Z" fill="#9C4DF4" fill-opacity="0.3"/>
<path d="M1070.18 125.506L1071.54 125.506L1071.54 127.802L1073.86 127.802L1073.86 129.202L1071.54 129.202L1071.54 131.498L1070.18 131.498L1070.18 129.202L1067.77 129.202L1067.77 127.802L1070.18 127.802L1070.18 125.506Z" fill="#9C4DF4" fill-opacity="0.3"/>
<path d="M1070.18 144.506L1071.54 144.506L1071.54 146.802L1073.86 146.802L1073.86 148.202L1071.54 148.202L1071.54 150.498L1070.18 150.498L1070.18 148.202L1067.77 148.202L1067.77 146.802L1070.18 146.802L1070.18 144.506Z" fill="#9C4DF4" fill-opacity="0.3"/>
<path d="M1070.18 163.506L1071.54 163.506L1071.54 165.802L1073.86 165.802L1073.86 167.202L1071.54 167.202L1071.54 169.498L1070.18 169.498L1070.18 167.202L1067.77 167.202L1067.77 165.802L1070.18 165.802L1070.18 163.506Z" fill="#9C4DF4" fill-opacity="0.3"/>
<path d="M1051.18 68.5057L1052.54 68.5057L1052.54 70.8017L1054.86 70.8017L1054.86 72.2017L1052.54 72.2017L1052.54 74.4978L1051.18 74.4978L1051.18 72.2017L1048.77 72.2017L1048.77 70.8017L1051.18 70.8017L1051.18 68.5057Z" fill="#9C4DF4" fill-opacity="0.3"/>
<path d="M1051.18 87.5057L1052.54 87.5057L1052.54 89.8017L1054.86 89.8017L1054.86 91.2017L1052.54 91.2017L1052.54 93.4978L1051.18 93.4978L1051.18 91.2017L1048.77 91.2017L1048.77 89.8017L1051.18 89.8017L1051.18 87.5057Z" fill="#9C4DF4" fill-opacity="0.3"/>
<path d="M1051.18 106.506L1052.54 106.506L1052.54 108.802L1054.86 108.802L1054.86 110.202L1052.54 110.202L1052.54 112.498L1051.18 112.498L1051.18 110.202L1048.77 110.202L1048.77 108.802L1051.18 108.802L1051.18 106.506Z" fill="#9C4DF4" fill-opacity="0.3"/>
<path d="M1051.18 125.506L1052.54 125.506L1052.54 127.802L1054.86 127.802L1054.86 129.202L1052.54 129.202L1052.54 131.498L1051.18 131.498L1051.18 129.202L1048.77 129.202L1048.77 127.802L1051.18 127.802L1051.18 125.506Z" fill="#9C4DF4" fill-opacity="0.3"/>
<path d="M1051.18 144.506L1052.54 144.506L1052.54 146.802L1054.86 146.802L1054.86 148.202L1052.54 148.202L1052.54 150.498L1051.18 150.498L1051.18 148.202L1048.77 148.202L1048.77 146.802L1051.18 146.802L1051.18 144.506Z" fill="#9C4DF4" fill-opacity="0.3"/>
<path d="M1051.18 163.506L1052.54 163.506L1052.54 165.802L1054.86 165.802L1054.86 167.202L1052.54 167.202L1052.54 169.498L1051.18 169.498L1051.18 167.202L1048.77 167.202L1048.77 165.802L1051.18 165.802L1051.18 163.506Z" fill="#9C4DF4" fill-opacity="0.3"/>
<path d="M1032.18 68.5057L1033.54 68.5057L1033.54 70.8017L1035.86 70.8017L1035.86 72.2017L1033.54 72.2017L1033.54 74.4978L1032.18 74.4978L1032.18 72.2017L1029.77 72.2017L1029.77 70.8017L1032.18 70.8017L1032.18 68.5057Z" fill="#9C4DF4" fill-opacity="0.3"/>
<path d="M1032.18 87.5057L1033.54 87.5057L1033.54 89.8017L1035.86 89.8017L1035.86 91.2017L1033.54 91.2017L1033.54 93.4978L1032.18 93.4978L1032.18 91.2017L1029.77 91.2017L1029.77 89.8017L1032.18 89.8017L1032.18 87.5057Z" fill="#9C4DF4" fill-opacity="0.3"/>
<path d="M1032.18 106.506L1033.54 106.506L1033.54 108.802L1035.86 108.802L1035.86 110.202L1033.54 110.202L1033.54 112.498L1032.18 112.498L1032.18 110.202L1029.77 110.202L1029.77 108.802L1032.18 108.802L1032.18 106.506Z" fill="#9C4DF4" fill-opacity="0.3"/>
<path d="M1032.18 125.506L1033.54 125.506L1033.54 127.802L1035.86 127.802L1035.86 129.202L1033.54 129.202L1033.54 131.498L1032.18 131.498L1032.18 129.202L1029.77 129.202L1029.77 127.802L1032.18 127.802L1032.18 125.506Z" fill="#9C4DF4" fill-opacity="0.3"/>
<path d="M1032.18 144.506L1033.54 144.506L1033.54 146.802L1035.86 146.802L1035.86 148.202L1033.54 148.202L1033.54 150.498L1032.18 150.498L1032.18 148.202L1029.77 148.202L1029.77 146.802L1032.18 146.802L1032.18 144.506Z" fill="#9C4DF4" fill-opacity="0.3"/>
<path d="M1032.18 163.506L1033.54 163.506L1033.54 165.802L1035.86 165.802L1035.86 167.202L1033.54 167.202L1033.54 169.498L1032.18 169.498L1032.18 167.202L1029.77 167.202L1029.77 165.802L1032.18 165.802L1032.18 163.506Z" fill="#9C4DF4" fill-opacity="0.3"/>
<path d="M1013.18 68.5057L1014.54 68.5057L1014.54 70.8017L1016.86 70.8017L1016.86 72.2017L1014.54 72.2017L1014.54 74.4978L1013.18 74.4978L1013.18 72.2017L1010.77 72.2017L1010.77 70.8017L1013.18 70.8017L1013.18 68.5057Z" fill="#9C4DF4" fill-opacity="0.3"/>
<path d="M1013.18 87.5057L1014.54 87.5057L1014.54 89.8017L1016.86 89.8017L1016.86 91.2017L1014.54 91.2017L1014.54 93.4978L1013.18 93.4978L1013.18 91.2017L1010.77 91.2017L1010.77 89.8017L1013.18 89.8017L1013.18 87.5057Z" fill="#9C4DF4" fill-opacity="0.3"/>
<path d="M1013.18 106.506L1014.54 106.506L1014.54 108.802L1016.86 108.802L1016.86 110.202L1014.54 110.202L1014.54 112.498L1013.18 112.498L1013.18 110.202L1010.77 110.202L1010.77 108.802L1013.18 108.802L1013.18 106.506Z" fill="#9C4DF4" fill-opacity="0.3"/>
<path d="M1013.18 125.506L1014.54 125.506L1014.54 127.802L1016.86 127.802L1016.86 129.202L1014.54 129.202L1014.54 131.498L1013.18 131.498L1013.18 129.202L1010.77 129.202L1010.77 127.802L1013.18 127.802L1013.18 125.506Z" fill="#9C4DF4" fill-opacity="0.3"/>
<path d="M1013.18 144.506L1014.54 144.506L1014.54 146.802L1016.86 146.802L1016.86 148.202L1014.54 148.202L1014.54 150.498L1013.18 150.498L1013.18 148.202L1010.77 148.202L1010.77 146.802L1013.18 146.802L1013.18 144.506Z" fill="#9C4DF4" fill-opacity="0.3"/>
<path d="M1013.18 163.506L1014.54 163.506L1014.54 165.802L1016.86 165.802L1016.86 167.202L1014.54 167.202L1014.54 169.498L1013.18 169.498L1013.18 167.202L1010.77 167.202L1010.77 165.802L1013.18 165.802L1013.18 163.506Z" fill="#9C4DF4" fill-opacity="0.3"/>
<path d="M994.178 68.5057L995.536 68.5057L995.536 70.8017L997.86 70.8017L997.86 72.2017L995.536 72.2017L995.536 74.4978L994.178 74.4978L994.178 72.2017L991.77 72.2017L991.77 70.8017L994.178 70.8017L994.178 68.5057Z" fill="#9C4DF4" fill-opacity="0.3"/>
<path d="M994.178 87.5057L995.536 87.5057L995.536 89.8017L997.86 89.8017L997.86 91.2017L995.536 91.2017L995.536 93.4978L994.178 93.4978L994.178 91.2017L991.77 91.2017L991.77 89.8017L994.178 89.8017L994.178 87.5057Z" fill="#9C4DF4" fill-opacity="0.3"/>
<path d="M994.178 106.506L995.536 106.506L995.536 108.802L997.86 108.802L997.86 110.202L995.536 110.202L995.536 112.498L994.178 112.498L994.178 110.202L991.77 110.202L991.77 108.802L994.178 108.802L994.178 106.506Z" fill="#9C4DF4" fill-opacity="0.3"/>
<path d="M994.178 125.506L995.536 125.506L995.536 127.802L997.86 127.802L997.86 129.202L995.536 129.202L995.536 131.498L994.178 131.498L994.178 129.202L991.77 129.202L991.77 127.802L994.178 127.802L994.178 125.506Z" fill="#9C4DF4" fill-opacity="0.3"/>
<path d="M994.178 144.506L995.536 144.506L995.536 146.802L997.86 146.802L997.86 148.202L995.536 148.202L995.536 150.498L994.178 150.498L994.178 148.202L991.77 148.202L991.77 146.802L994.178 146.802L994.178 144.506Z" fill="#9C4DF4" fill-opacity="0.3"/>
<path d="M994.178 163.506L995.536 163.506L995.536 165.802L997.86 165.802L997.86 167.202L995.536 167.202L995.536 169.498L994.178 169.498L994.178 167.202L991.77 167.202L991.77 165.802L994.178 165.802L994.178 163.506Z" fill="#9C4DF4" fill-opacity="0.3"/>
<path d="M975.178 68.5057L976.536 68.5057L976.536 70.8017L978.86 70.8017L978.86 72.2017L976.536 72.2017L976.536 74.4978L975.178 74.4978L975.178 72.2017L972.77 72.2017L972.77 70.8017L975.178 70.8017L975.178 68.5057Z" fill="#9C4DF4" fill-opacity="0.3"/>
<path d="M975.178 87.5057L976.536 87.5057L976.536 89.8017L978.86 89.8017L978.86 91.2017L976.536 91.2017L976.536 93.4978L975.178 93.4978L975.178 91.2017L972.77 91.2017L972.77 89.8017L975.178 89.8017L975.178 87.5057Z" fill="#9C4DF4" fill-opacity="0.3"/>
<path d="M975.178 106.506L976.536 106.506L976.536 108.802L978.86 108.802L978.86 110.202L976.536 110.202L976.536 112.498L975.178 112.498L975.178 110.202L972.77 110.202L972.77 108.802L975.178 108.802L975.178 106.506Z" fill="#9C4DF4" fill-opacity="0.3"/>
<path d="M975.178 125.506L976.536 125.506L976.536 127.802L978.86 127.802L978.86 129.202L976.536 129.202L976.536 131.498L975.178 131.498L975.178 129.202L972.77 129.202L972.77 127.802L975.178 127.802L975.178 125.506Z" fill="#9C4DF4" fill-opacity="0.3"/>
<path d="M975.178 144.506L976.536 144.506L976.536 146.802L978.86 146.802L978.86 148.202L976.536 148.202L976.536 150.498L975.178 150.498L975.178 148.202L972.77 148.202L972.77 146.802L975.178 146.802L975.178 144.506Z" fill="#9C4DF4" fill-opacity="0.3"/>
<path d="M975.178 163.506L976.536 163.506L976.536 165.802L978.86 165.802L978.86 167.202L976.536 167.202L976.536 169.498L975.178 169.498L975.178 167.202L972.77 167.202L972.77 165.802L975.178 165.802L975.178 163.506Z" fill="#9C4DF4" fill-opacity="0.3"/>
<path d="M956.178 68.5057L957.536 68.5057L957.536 70.8017L959.86 70.8017L959.86 72.2017L957.536 72.2017L957.536 74.4978L956.178 74.4978L956.178 72.2017L953.77 72.2017L953.77 70.8017L956.178 70.8017L956.178 68.5057Z" fill="#9C4DF4" fill-opacity="0.3"/>
<path d="M956.178 87.5057L957.536 87.5057L957.536 89.8017L959.86 89.8017L959.86 91.2017L957.536 91.2017L957.536 93.4978L956.178 93.4978L956.178 91.2017L953.77 91.2017L953.77 89.8017L956.178 89.8017L956.178 87.5057Z" fill="#9C4DF4" fill-opacity="0.3"/>
<path d="M956.178 106.506L957.536 106.506L957.536 108.802L959.86 108.802L959.86 110.202L957.536 110.202L957.536 112.498L956.178 112.498L956.178 110.202L953.77 110.202L953.77 108.802L956.178 108.802L956.178 106.506Z" fill="#9C4DF4" fill-opacity="0.3"/>
<path d="M956.178 125.506L957.536 125.506L957.536 127.802L959.86 127.802L959.86 129.202L957.536 129.202L957.536 131.498L956.178 131.498L956.178 129.202L953.77 129.202L953.77 127.802L956.178 127.802L956.178 125.506Z" fill="#9C4DF4" fill-opacity="0.3"/>
<path d="M956.178 144.506L957.536 144.506L957.536 146.802L959.86 146.802L959.86 148.202L957.536 148.202L957.536 150.498L956.178 150.498L956.178 148.202L953.77 148.202L953.77 146.802L956.178 146.802L956.178 144.506Z" fill="#9C4DF4" fill-opacity="0.3"/>
<path d="M956.178 163.506L957.536 163.506L957.536 165.802L959.86 165.802L959.86 167.202L957.536 167.202L957.536 169.498L956.178 169.498L956.178 167.202L953.77 167.202L953.77 165.802L956.178 165.802L956.178 163.506Z" fill="#9C4DF4" fill-opacity="0.3"/>
<path d="M937.178 68.5057L938.536 68.5057L938.536 70.8017L940.86 70.8017L940.86 72.2017L938.536 72.2017L938.536 74.4978L937.178 74.4978L937.178 72.2017L934.77 72.2017L934.77 70.8017L937.178 70.8017L937.178 68.5057Z" fill="#9C4DF4" fill-opacity="0.3"/>
<path d="M937.178 87.5057L938.536 87.5057L938.536 89.8017L940.86 89.8017L940.86 91.2017L938.536 91.2017L938.536 93.4978L937.178 93.4978L937.178 91.2017L934.77 91.2017L934.77 89.8017L937.178 89.8017L937.178 87.5057Z" fill="#9C4DF4" fill-opacity="0.3"/>
<path d="M937.178 106.506L938.536 106.506L938.536 108.802L940.86 108.802L940.86 110.202L938.536 110.202L938.536 112.498L937.178 112.498L937.178 110.202L934.77 110.202L934.77 108.802L937.178 108.802L937.178 106.506Z" fill="#9C4DF4" fill-opacity="0.3"/>
<path d="M937.178 125.506L938.536 125.506L938.536 127.802L940.86 127.802L940.86 129.202L938.536 129.202L938.536 131.498L937.178 131.498L937.178 129.202L934.77 129.202L934.77 127.802L937.178 127.802L937.178 125.506Z" fill="#9C4DF4" fill-opacity="0.3"/>
<path d="M937.178 144.506L938.536 144.506L938.536 146.802L940.86 146.802L940.86 148.202L938.536 148.202L938.536 150.498L937.178 150.498L937.178 148.202L934.77 148.202L934.77 146.802L937.178 146.802L937.178 144.506Z" fill="#9C4DF4" fill-opacity="0.3"/>
<path d="M937.178 163.506L938.536 163.506L938.536 165.802L940.86 165.802L940.86 167.202L938.536 167.202L938.536 169.498L937.178 169.498L937.178 167.202L934.77 167.202L934.77 165.802L937.178 165.802L937.178 163.506Z" fill="#9C4DF4" fill-opacity="0.3"/>
<path fill-rule="evenodd" clip-rule="evenodd" d="M602.107 234.193C595.136 248.752 605.672 277.828 609.475 291.692C616.992 319.11 625.749 345.684 634.237 372.4C642.725 399.116 651.277 425.82 658.281 453.55C662.831 471.553 668.438 492.163 667.49 512.723C665.464 556.533 622.663 520.228 610.589 512.87C579.868 494.156 546.098 469.656 509.633 467.989C487.866 466.995 472.679 480.067 463.821 508.297C460.929 517.471 459.691 529.472 452.854 535.63C445.553 542.207 436.012 542.318 428.48 541.609C401.015 539.01 375.572 523.319 352.047 509.111C326.664 493.823 302.108 476.185 277.654 459.453C267.285 452.358 253.85 450.343 241.86 447.965C226.143 444.847 210.233 442.55 194.381 440.006C159.524 434.375 123.453 428.889 91.9513 411.8C72.223 401.1 53.2627 384.018 48.02 354.833C45.3878 340.179 48.4866 323.242 50.4155 307.627C52.7352 288.756 55.3286 269.877 57.2027 251.02C63.2346 190.284 61.2571 125.492 21.9222 95.1103C15.971 90.5154 9.38863 87.53 3.1859 83.5356C-0.761947 80.987 -3.55201 77.2214 -2.11585 70.2629C1.47787 52.8039 24.2835 37.0873 34.6899 28.4581C57.4713 9.57125 80.9975 -7.24652 104.105 -25.2131C119.389 -37.0932 142.883 -51.5255 152.889 -71.8809C161.805 -90.0179 151.655 -114.6 147 -129.787C142.636 -144.011 133.054 -166.318 140.386 -184.047C143.941 -192.643 150.982 -196.936 157.445 -199.577C168.762 -204.185 179.79 -205.332 191.057 -211.727C209.538 -222.222 229.534 -240.419 239.524 -264.871C246.446 -281.815 245.266 -296.86 242.136 -312.627C240.821 -319.256 239.538 -324.189 242.722 -331.273C247.773 -342.525 256.373 -352.183 263.754 -360.75C290.165 -391.415 319.644 -418.341 349.377 -441.956C364.234 -453.758 379.619 -465.128 395.539 -472.952C405.977 -478.1 419.345 -483.574 428.432 -477.275C438.959 -469.997 447.405 -456.721 455.624 -445.478C470.972 -424.474 485.501 -402.414 499.844 -380.172C533.007 -328.728 564.925 -275.834 595.598 -221.493C617.189 -183.186 639.406 -144.413 656.409 -101.575C659.71 -93.189 662.335 -84.2574 664.248 -74.901C666.345 -65.0138 671.371 -57.7635 676.835 -51.1716C710.747 -10.2576 759.687 10.1665 803.137 31.7975C814.164 37.2908 825.196 42.7756 836.021 48.7676C845.327 53.9185 857.244 58.4785 863.836 68.5628C876.828 88.4243 847.506 108.249 835.332 116.17C792.468 144.06 746.417 160.891 702.076 179.922C680.98 188.999 659.811 197.964 638.911 208.516C628.036 213.995 608.218 221.43 602.107 234.193Z" stroke="#9C4DF4" stroke-opacity="0.07"/>
<path fill-rule="evenodd" clip-rule="evenodd" d="M593.328 231.39C592.656 251.431 599.016 270.984 603.687 288.476C610.405 313.654 617.98 338.284 625.134 363.182C631.898 386.725 638.613 410.449 643.445 435.216C646.391 450.319 650.366 468.692 647.005 485.692C639.726 522.546 599.589 488.442 588.716 482.02C561.688 466.046 531.934 446.097 499.852 445.97C479.819 445.891 465.368 458.738 457.095 484.725C454.231 493.716 452.839 502.119 446.356 508.551C438.856 515.996 429.275 517.246 421.092 517.148C395.458 516.841 371.273 503.82 349.208 491.644C326.413 479.065 303.051 465.155 282.946 448.928C274.905 442.443 263.359 439.719 253.608 437.011C238.603 432.85 223.381 429.495 208.275 425.717C177.572 418.047 146.378 409.541 119.006 392.103C99.2441 379.513 81.1518 361.187 73.1776 333.186C65.1012 304.798 70.6552 273.287 73.7662 241.833C79.161 187.464 83.6118 119.903 51.864 85.6786C47.0509 80.4868 41.4104 77.5983 36.0937 73.465C33.3585 71.3423 30.4152 68.5732 30.9553 63.5068C32.3576 50.3541 51.8784 38.0292 59.2185 32.2864C79.5007 16.4151 100.429 2.45333 120.956 -12.6725C137.257 -24.6815 156.6 -37.1741 169.637 -55.7552C185.458 -78.3038 169.947 -112.854 169.996 -136.399C170.085 -177.223 206.404 -175.41 227.21 -180.52C251.1 -186.383 278.915 -207.983 277.304 -243.724C276.686 -257.392 272.883 -267.913 276.723 -282.538C282.728 -305.411 296.77 -326.584 309.512 -344.489C328.675 -371.397 350.374 -396.118 373.459 -416.452C389.991 -431.007 416.563 -453.381 432.761 -439.126C443.672 -429.544 452.817 -415.77 461.775 -402.991C475.19 -383.859 487.891 -363.842 500.346 -343.561C529.124 -296.799 556.479 -248.264 582.014 -198.028C599.434 -163.745 637.579 -46.4884 641.751 -40.3613C654.195 -22.0987 672.936 -10.8422 689.914 -0.60145C712.497 13.0232 736.115 24.2006 759.58 35.6498C770.745 41.1092 782.144 46.2277 792.948 52.5846C800.638 57.1101 810.606 63.3238 814.04 74.1209C820.747 95.1901 793.03 113.626 781.438 121.519C745.913 145.725 708.021 161.758 671.194 179.477C653.118 188.181 634.896 196.749 617.164 207.39C610.008 211.69 593.741 219.011 593.328 231.39Z" stroke="#9C4DF4" stroke-opacity="0.07"/>
<path fill-rule="evenodd" clip-rule="evenodd" d="M580.181 232.816C583.765 276.327 598.169 316.803 607.729 357.682C612.525 378.204 617.22 399.125 619.309 421.063C620.397 432.472 621.695 446.845 617.269 458.64C605.425 490.191 569.122 459.719 557.127 452.935C533.933 439.826 508.124 424.203 480.699 425.522C463.942 426.334 450.532 437.41 443.14 459.043C439.86 468.641 437.792 477.292 430.974 484.229C424.065 491.257 415.562 493.706 407.744 494.545C385.274 496.967 363.351 487.551 343.824 478.328C320.929 467.482 298.976 454.249 278.141 438.737C259.888 425.163 237.488 420.418 216.764 413.17C189.312 403.565 161.854 392.769 137.684 374.821C118.597 360.642 101.799 341.304 92.6118 314.425C83.2932 287.076 84.4704 256.598 87.5431 224.955C92.1885 177.121 99.7118 113.918 76.3699 78.3938C72.9771 73.223 68.9742 70.1447 64.5977 66.6274C62.4714 64.92 59.6417 62.8902 60.1791 58.7471C61.4762 48.7725 78.8672 39.7199 84.2506 36.0963C101.435 24.5278 118.968 14.2567 136.257 3.07099C152.397 -7.37189 169.609 -17.9836 183.942 -33.3878C206.764 -57.9254 189.013 -93.7711 203.662 -122.061C212.758 -139.623 230.622 -144.376 244.148 -146.856C260.796 -149.896 280.644 -145.74 295.955 -161.706C307.359 -173.599 304.87 -186.829 305.178 -201.624C305.699 -226.691 317.588 -252.938 329.15 -274.377C344.772 -303.351 364.15 -330.314 385.496 -352.115C395.171 -361.999 405.913 -371.811 417.2 -376.88C427.775 -381.632 434.768 -379.888 442.169 -372.302C464.819 -349.071 482.814 -315.526 500.337 -284.561C522.353 -245.654 543.055 -205.191 561.671 -162.899C574.364 -134.058 587.087 -104.034 594.567 -71.1412C596.516 -62.5669 598.348 -53.4465 598.235 -43.9925C598.164 -36.8764 597.094 -31.7008 599.866 -25.693C608.087 -7.88961 626.774 1.86008 640.74 10.2561C663.069 23.6877 686.502 34.5484 709.713 45.7872C723.265 52.331 750.084 61.9851 752.369 84.8833C754.337 104.654 732.551 120.979 721.356 129.456C693.04 150.891 662.687 165.898 633.197 182.571C619.681 190.212 605.83 197.751 592.91 207.702C589.613 210.237 584.813 213.298 582.268 217.386C579.362 222.079 579.748 227.459 580.181 232.816Z" stroke="#9C4DF4" stroke-opacity="0.07"/>
<path fill-rule="evenodd" clip-rule="evenodd" d="M582.052 224.56C585.955 263.54 595.693 300.078 601.694 338.179C604.385 355.262 606.887 372.96 606.413 391.202C606.158 401.013 605.177 412.905 599.755 421.569C584.194 446.435 553.9 422.274 540.435 415.051C520.44 404.292 497.627 391.608 473.972 394.463C458.477 396.332 447.647 407.426 441.01 426.803C433.894 447.589 422.234 458.189 405.886 461.227C385.394 465.025 365.088 458.309 346.965 450.982C325.141 442.131 304.327 430.506 284.776 416.248C265.763 402.38 244.8 394.208 224.163 384.052C196.804 370.583 169.63 354.481 148.571 328.76C130.237 306.363 118.254 276.658 115.452 241.595C112.515 204.992 120.637 167.049 121.938 129.699C122.749 106.402 123.262 75.1976 111.993 58.1327C108.234 52.441 97.8324 49.4227 107.239 40.7094C112.618 35.7252 119.55 32.8841 125.419 29.828C134.903 24.8885 144.448 20.3082 153.964 15.5493C174.247 5.40365 195.534 -4.56257 214.54 -20.0413C238.478 -39.5238 232.333 -71.5033 247.536 -97.5278C255.716 -111.534 268.383 -118.469 280.236 -122.601C287.907 -125.282 295.643 -126.85 303.32 -127.994C311.339 -129.191 319.798 -128.477 327.818 -131.646C339.241 -136.149 341.547 -149.235 346.053 -162.151C353.967 -184.853 363.828 -206.654 375.412 -227.06C389.607 -252.073 406.291 -276.362 425.571 -294.682C433.075 -301.816 441.658 -308.944 450.372 -311.181C459.086 -313.418 464.8 -308.903 470.456 -302.504C487.242 -283.548 500.455 -257.307 513.033 -232.399C528.775 -201.221 543.198 -168.567 555.472 -134.279C563.944 -110.609 571.946 -85.8336 575.685 -59.0976C576.77 -51.3182 577.499 -43.2877 577.249 -35.0573C577.081 -29.4117 575.416 -23.1265 576.626 -17.9582C580.425 -1.81173 599.342 7.22947 609.823 13.6897C630.74 26.5843 653.465 34.8487 674.444 47.5431C685.894 54.4697 704.167 64.6145 705.618 84.1035C706.986 102.426 690.137 118.146 679.495 127.533C658.575 145.992 635.865 159.622 613.948 175.073C604.934 181.434 595.281 187.936 587.188 196.721C579.983 204.554 581.053 214.567 582.052 224.56Z" stroke="#9C4DF4" stroke-opacity="0.07"/>
<path fill-rule="evenodd" clip-rule="evenodd" d="M578.074 221.214C580.078 254.526 586.168 287.077 588.082 320.846C589.198 340.619 591.404 374.087 575.518 389.892C558.073 407.267 534.131 391.516 519.6 383.842C502.305 374.708 481.799 364.388 461.218 368.538C454.709 369.849 448.172 373.02 442.914 379.515C437.285 386.465 435.711 394.863 432.024 403.167C424.287 420.585 410.724 429.486 396.989 432.543C377.574 436.868 358.295 431.93 340.836 425.71C321.068 418.64 302.222 408.864 284.569 396.521C267.691 384.739 250.685 373.716 233.443 362.642C210.885 348.176 189.086 331.281 171.77 307.796C154.716 284.655 143.177 255.407 139.392 221.502C135.703 188.42 139.268 153.566 144.321 119.045C147.19 99.4532 150.513 69.5083 142.667 53.1855C139.179 45.9238 133.912 42.6157 144.056 37.0144C156.83 29.9618 170.909 26.9509 183.962 22.3894C202.794 15.8038 222.059 9.13393 240.348 -1.53148C252.027 -8.34162 260.06 -17.232 266.606 -31.9785C271.588 -43.2156 275.331 -55.1566 281.436 -65.6739C295.76 -90.3619 318.27 -98.5208 338.576 -106.572C351.638 -111.749 362.792 -114.873 374.185 -127.206C387.655 -141.779 399.088 -159.86 411.29 -176.224C424.69 -194.194 439.036 -212.605 455.446 -225.247C470.054 -236.503 481.883 -237.901 492.314 -224.936C508.586 -204.719 519.826 -174.859 529.754 -147.559C539.863 -119.78 548.732 -90.2707 552.998 -58.743C555.301 -41.7189 554.125 -24.4119 555.129 -7.13914C556.406 14.5575 579.201 22.4344 591.69 29.3068C612.421 40.7147 682.246 67.1029 650.864 116.295C637.765 136.827 618.488 150.807 602.167 165.633C595.397 171.789 586.569 178.69 581.429 187.553C575.83 197.206 577.476 211.19 578.074 221.214Z" stroke="#9C4DF4" stroke-opacity="0.07"/>
<path fill-rule="evenodd" clip-rule="evenodd" d="M571.893 214.23C571.782 243.085 574.29 272.152 571.869 301.726C570.311 320.886 566.186 345.073 550.988 355.978C533.837 368.283 513.272 359.698 498.545 352.596C483.373 345.276 465.665 335.7 447.568 341.51C441.808 343.364 435.952 347.185 431.98 353.862C428.167 360.265 426.417 368.095 422.579 374.645C413.964 389.355 401.396 397.694 388.67 401.245C351.023 411.754 311.74 392.719 281.935 373.068C267.017 363.229 252.744 350.87 238.55 339.271C220.131 324.22 202.644 307.159 188.617 285.478C158.79 239.389 153.071 178.95 160.244 113.622C162.503 93.0602 166.769 72.0719 164.191 52.5106C162.868 42.4151 166.271 38.1747 174.055 35.1834C186.222 30.5109 198.905 29.2798 211.105 26.7939C228.457 23.2596 246.144 19.7252 263.253 12.9495C275.046 8.27836 284.596 2.5246 293.1 -10.8268C299.165 -20.3456 303.967 -30.9967 309.624 -40.8822C320.373 -59.6595 334.099 -76.1803 349.597 -87.2054C361.896 -95.9339 374.78 -102.687 387.642 -108.727C404.373 -116.6 419.722 -125.739 435.437 -137.947C456.254 -154.097 490.365 -186.852 507.949 -159.786C527.34 -129.928 535.961 -82.1661 537.557 -40.5603C538.094 -26.5904 536.538 -10.9885 540.273 1.62122C545.872 20.4806 557.25 27.822 570.388 36.843C590.055 50.355 635.805 73.6402 615.415 117.124C607.335 134.352 594.481 147.035 584.12 161.815C572.497 178.355 571.953 194.555 571.893 214.23Z" stroke="#9C4DF4" stroke-opacity="0.07"/>
<path fill-rule="evenodd" clip-rule="evenodd" d="M565.113 206.965C561.712 242.321 562.267 304.665 529.595 324.008C512.333 334.233 492.979 329.179 477.476 323.424C464.993 318.807 451.145 310.741 436.649 317.735C425.993 322.878 422.119 338.407 414.101 348.525C404.157 361.066 391.719 368.353 379.179 371.624C344.137 380.769 308.508 366.377 280.102 348.918C250.602 330.781 222.824 301.013 203.191 267.121C178.716 224.856 170.881 171.452 175.256 113.706C176.065 103.048 177.277 92.3746 178.265 81.7042C178.925 74.5441 178.481 66.8696 179.728 59.7206C181.811 47.8032 189.01 41.8613 197.364 38.9316C209.385 34.709 221.806 34.3766 233.742 33.2231C250.069 31.6384 266.571 30.4069 282.891 26.5878C293.863 24.011 305.459 21.0815 314.454 9.66845C320.589 1.88521 325.571 -7.4072 330.018 -16.7874C339.549 -36.9015 348.085 -52.5948 363.31 -66.5261C388.328 -89.3811 417.516 -105.306 445.417 -116.057C467.314 -124.494 501.716 -137.334 515.472 -112.06C527.826 -89.4052 525.808 -57.0167 527.423 -28.5862C528.209 -14.7643 530.102 -1.32882 534.065 10.8568C539.063 26.2188 546.018 36.0233 556.343 45.1092C573.719 60.4027 601.402 80.3945 591.358 117.035C587.652 130.557 580.41 142.21 575.621 155.193C569.271 172.347 566.828 189.13 565.113 206.965Z" stroke="#9C4DF4" stroke-opacity="0.07"/>
<path fill-rule="evenodd" clip-rule="evenodd" d="M554.953 198.538C547.313 234.516 538.075 280.127 507.161 295.424C492.187 302.835 476.575 301.972 462.26 299.496C452.005 297.725 438.214 289.756 427.187 298.483C419.079 304.911 412.549 316.996 404.488 324.315C393.408 334.379 381.059 340.44 368.635 343.279C336.267 350.681 303.988 339.872 277.157 324.617C218.863 291.464 182.803 209.591 186.921 118.751C188.146 91.6714 187.436 61.4576 212.132 50C239.085 37.5091 267.989 42.9103 294.714 39.2711C304.923 37.8854 317.712 36.5763 327.238 27.8738C332.966 22.6439 337.306 14.1143 341.079 6.606C350.699 -12.5107 360.183 -29.1261 374.184 -43.4902C395.814 -65.6914 421.264 -82.3754 446.205 -93.2109C467.955 -102.658 496.748 -111.526 509.067 -85.3578C518.501 -65.2709 517.174 -37.3975 520.635 -13.7814C524.48 12.5135 534.054 35.0595 548.083 52.5413C561.737 69.5322 577.868 85.777 574.888 115.797C573.866 126.095 571.801 138.916 568.501 148.814C563.022 165.108 558.491 181.738 554.953 198.538V198.538Z" stroke="#9C4DF4" stroke-opacity="0.07"/>
<path fill-rule="evenodd" clip-rule="evenodd" d="M543.169 190.098C531.46 223.665 516.103 256.491 488.518 270.257C475.646 276.677 462.447 278.434 449.513 279.353C439.997 280.03 430.667 279.699 421.215 285.059C412.461 290.02 404.207 297.101 395.512 302.391C384.018 309.422 372.06 314.119 360.096 316.303C330.126 321.74 300.761 313.672 275.368 300.36C263.073 293.922 250.157 286.066 240.723 273.921C231.61 262.196 223.763 248.193 217.199 233.653C203.239 202.76 195.738 166.467 196.376 127.579C196.817 100.907 201.272 77.7568 223.261 65.593C248.05 51.8837 275.566 53.8871 300.416 51.0464C317.459 49.0982 335.862 48.3612 348.683 28.0452C358.887 11.8809 368.326 -3.63159 380.919 -16.8727C399.555 -36.3611 420.34 -51.3166 442.04 -60.8522C461.853 -69.5082 483.547 -73.4791 495.986 -52.9396C505.835 -36.6542 508.451 -13.6158 514.557 5.78406C521.35 27.4322 532.172 44.2609 544.411 60.238C555.401 74.6166 564.287 91.1802 564.966 113.772C565.107 118.391 565.193 123.372 564.733 128.111C564.145 134.158 561.693 138.859 559.418 144.519C553.4 159.447 548.47 174.906 543.169 190.098Z" stroke="#9C4DF4" stroke-opacity="0.07"/>
<path fill-rule="evenodd" clip-rule="evenodd" d="M528.827 183.588C514.208 213.054 495.802 237.729 471.316 251.641C460.845 257.595 450.111 261.041 439.468 265.773C430.895 269.591 422.848 273.084 414.14 275.095C393.494 279.838 373.4 290.555 352.646 293.141C324.929 296.617 298.039 290.541 274.042 278.953C262.324 273.297 250.824 266.2 240.864 256.553C232.309 248.267 226.309 235.793 221.031 223.626C210.683 199.786 203.356 171.006 203.578 141.157C204.068 75.3488 267.744 71.2802 301.686 66.5832C317.297 64.4207 339.415 64.7084 353.181 48.5637C363.017 37.0316 371.716 24.4024 382.268 13.931C410.606 -14.189 453.381 -40.7332 480.598 -14.4459C492.246 -3.2008 499.22 14.5876 508.02 29.3766C517.081 44.6062 527.974 57.1349 538.781 70.0904C548.881 82.1957 555.77 94.2482 556.415 114.238C556.726 123.786 552.354 131.936 548.537 140.746C542.263 155.216 535.745 169.625 528.827 183.588Z" stroke="#9C4DF4" stroke-opacity="0.07"/>
<path fill-rule="evenodd" clip-rule="evenodd" d="M515.06 179.136C488.622 220.59 447.154 257.132 408.34 264.988C362.683 274.229 316.787 276.86 276.315 258.758C257.551 250.365 237.998 239.1 227.282 216.713C219.123 199.681 211.021 177.051 212.933 154.426C217.606 99.081 271.279 89.559 302.051 83.7349C318.618 80.6 338.13 79.8737 354.349 69.7833C363.757 63.935 372.193 53.4279 381.089 46.0122C408.049 23.54 439.93 12.4219 466.833 25.091C479.27 30.9507 489.573 41.4622 499.956 51.3351C510.586 61.4404 521.816 70.7013 531.979 81.5737C540.091 90.2543 549.078 101.669 545.479 118.503C540.946 139.717 525.855 162.206 515.06 179.136Z" stroke="#9C4DF4" stroke-opacity="0.07"/>
<path fill-rule="evenodd" clip-rule="evenodd" d="M499.879 178.238C472.532 215.49 437.849 246.291 400.751 254.169C381.078 258.345 361.27 256.923 342.129 255.814C320.433 254.556 299.101 250.474 279.342 242.105C254.74 231.687 216.609 211.265 222.944 166.1C229.233 121.27 274.105 108.767 300.302 102.075C317.093 97.7942 334.186 95.0279 351.021 89.2968C360.15 86.1905 368.495 81.0788 377.334 76.1442C401.79 62.4489 429.629 57.4686 453.745 61.2086C477.12 64.8314 502.43 76.779 520.811 93.6303C528.745 100.896 532.7 109.64 529.109 124.239C524.105 144.526 511.178 162.851 499.879 178.238Z" stroke="#9C4DF4" stroke-opacity="0.07"/>
<path fill-rule="evenodd" clip-rule="evenodd" d="M482.774 181.539C457.904 213.79 426.527 237.259 393.868 244.357C357.259 252.314 318.936 244.305 286.462 231.255C269.202 224.314 230.814 211.312 236.969 176.822C243.123 142.333 279.718 129.451 300.435 122.755C325.563 114.656 351.617 108.075 377.021 102.784C399.098 98.1769 422.333 93.9258 444.009 93.5663C456.252 93.3256 468.295 94.5446 479.997 97.2087C488.65 99.2057 499.97 101.088 506.455 108.538C522.808 127.336 494.667 166.119 482.774 181.539Z" stroke="#9C4DF4" stroke-opacity="0.07"/>
<path fill-rule="evenodd" clip-rule="evenodd" d="M463.051 182.709C413.908 242.241 348.839 243.243 296.417 223.031C284.237 218.331 249.012 207.393 253.301 181.794C257.463 156.976 288.017 145.256 302.389 139.631C346.921 122.2 393.314 118.522 437.833 113.882C451.729 112.434 478.259 106.784 486.522 123.564C495.487 141.799 473.239 170.363 463.051 182.709Z" stroke="#9C4DF4" stroke-opacity="0.07"/>
<path fill-rule="evenodd" clip-rule="evenodd" d="M440.882 185.379C402.656 227.812 349.701 230.696 309.448 215.886C299.59 212.257 273.891 204.408 274.257 185.445C274.593 167.901 298.48 158.658 307.634 154.752C328.014 146.05 349.185 141.911 369.918 138.198C389.092 134.757 408.559 131.1 427.486 130.064C437.453 129.522 456.842 127.065 460.953 141.385C465.383 156.796 449.37 175.956 440.882 185.379Z" stroke="#9C4DF4" stroke-opacity="0.07"/>
<path fill-rule="evenodd" clip-rule="evenodd" d="M416.346 188.536C389.933 215.244 352.23 218.38 324.786 209.109C317.403 206.611 301.038 202.056 299.955 189.298C298.959 177.549 312.891 170.966 319.179 167.826C347.052 153.904 381.004 147.729 408.869 148.785C415.875 149.051 428.743 148.961 430.898 159.691C433.105 170.706 422.412 182.405 416.346 188.536Z" stroke="#9C4DF4" stroke-opacity="0.07"/>
<path fill-rule="evenodd" clip-rule="evenodd" d="M391.212 190.049C377.418 202.843 356.4 205.159 342.101 200.636C332.039 197.45 322.765 187.781 337.383 178.45C351.897 169.195 372.247 165.647 386.916 167.978C398.107 169.759 403.059 179.059 391.212 190.049Z" stroke="#9C4DF4" stroke-opacity="0.07"/>
</g>
</svg>
