<svg width="17" height="18" viewBox="0 0 17 18" fill="none" xmlns="http://www.w3.org/2000/svg">
<g clip-path="url(#clip0_44_6651)">
<path d="M12.6829 0.384378L10.4899 0.380859C8.02607 0.380859 6.43386 2.01441 6.43386 4.54278V6.4617H4.22887C4.03833 6.4617 3.88403 6.61617 3.88403 6.8067V9.587C3.88403 9.77754 4.0385 9.93184 4.22887 9.93184H6.43386V16.9474C6.43386 17.138 6.58815 17.2922 6.77869 17.2922H9.65558C9.84612 17.2922 10.0004 17.1378 10.0004 16.9474V9.93184H12.5786C12.7691 9.93184 12.9234 9.77754 12.9234 9.587L12.9244 6.8067C12.9244 6.71522 12.888 6.6276 12.8235 6.56286C12.7589 6.49812 12.6709 6.4617 12.5794 6.4617H10.0004V4.835C10.0004 4.05315 10.1867 3.65624 11.2052 3.65624L12.6825 3.65571C12.8729 3.65571 13.0272 3.50124 13.0272 3.31088V0.72921C13.0272 0.539025 12.8731 0.38473 12.6829 0.384378Z" fill="#0A033C"/>
</g>
<defs>
<clipPath id="clip0_44_6651">
<rect width="16.9116" height="16.9114" fill="white" transform="translate(0 0.380859)"/>
</clipPath>
</defs>
</svg>
