<svg width="944" height="173" viewBox="0 0 944 173" fill="none" xmlns="http://www.w3.org/2000/svg">
<rect y="2" width="944" height="171" rx="20" fill="#EFEBF5"/>
<mask id="mask0_44_5446" style="mask-type:alpha" maskUnits="userSpaceOnUse" x="0" y="0" width="944" height="171">
<rect width="944" height="171" rx="20" fill="#EFEBF5"/>
</mask>
<g mask="url(#mask0_44_5446)">
<path d="M943.178 11.5057L944.536 11.5057L944.536 13.8017L946.86 13.8017L946.86 15.2017L944.536 15.2017L944.536 17.4978L943.178 17.4978L943.178 15.2017L940.77 15.2017L940.77 13.8017L943.178 13.8017L943.178 11.5057Z" fill="#9C4DF4" fill-opacity="0.3"/>
<path d="M943.178 30.5057L944.536 30.5057L944.536 32.8017L946.86 32.8017L946.86 34.2017L944.536 34.2017L944.536 36.4978L943.178 36.4978L943.178 34.2017L940.77 34.2017L940.77 32.8017L943.178 32.8017L943.178 30.5057Z" fill="#9C4DF4" fill-opacity="0.3"/>
<path d="M943.178 49.5057L944.536 49.5057L944.536 51.8017L946.86 51.8017L946.86 53.2017L944.536 53.2017L944.536 55.4978L943.178 55.4978L943.178 53.2017L940.77 53.2017L940.77 51.8017L943.178 51.8017L943.178 49.5057Z" fill="#9C4DF4" fill-opacity="0.3"/>
<path d="M943.178 68.5057L944.536 68.5057L944.536 70.8017L946.86 70.8017L946.86 72.2017L944.536 72.2017L944.536 74.4978L943.178 74.4978L943.178 72.2017L940.77 72.2017L940.77 70.8017L943.178 70.8017L943.178 68.5057Z" fill="#9C4DF4" fill-opacity="0.3"/>
<path d="M943.178 87.5057L944.536 87.5057L944.536 89.8017L946.86 89.8017L946.86 91.2017L944.536 91.2017L944.536 93.4978L943.178 93.4978L943.178 91.2017L940.77 91.2017L940.77 89.8017L943.178 89.8017L943.178 87.5057Z" fill="#9C4DF4" fill-opacity="0.3"/>
<path d="M943.178 106.506L944.536 106.506L944.536 108.802L946.86 108.802L946.86 110.202L944.536 110.202L944.536 112.498L943.178 112.498L943.178 110.202L940.77 110.202L940.77 108.802L943.178 108.802L943.178 106.506Z" fill="#9C4DF4" fill-opacity="0.3"/>
<path d="M943.178 125.506L944.536 125.506L944.536 127.802L946.86 127.802L946.86 129.202L944.536 129.202L944.536 131.498L943.178 131.498L943.178 129.202L940.77 129.202L940.77 127.802L943.178 127.802L943.178 125.506Z" fill="#9C4DF4" fill-opacity="0.3"/>
<path d="M924.178 11.5057L925.536 11.5057L925.536 13.8017L927.86 13.8017L927.86 15.2017L925.536 15.2017L925.536 17.4978L924.178 17.4978L924.178 15.2017L921.77 15.2017L921.77 13.8017L924.178 13.8017L924.178 11.5057Z" fill="#9C4DF4" fill-opacity="0.3"/>
<path d="M924.178 30.5057L925.536 30.5057L925.536 32.8017L927.86 32.8017L927.86 34.2017L925.536 34.2017L925.536 36.4978L924.178 36.4978L924.178 34.2017L921.77 34.2017L921.77 32.8017L924.178 32.8017L924.178 30.5057Z" fill="#9C4DF4" fill-opacity="0.3"/>
<path d="M924.178 49.5057L925.536 49.5057L925.536 51.8017L927.86 51.8017L927.86 53.2017L925.536 53.2017L925.536 55.4978L924.178 55.4978L924.178 53.2017L921.77 53.2017L921.77 51.8017L924.178 51.8017L924.178 49.5057Z" fill="#9C4DF4" fill-opacity="0.3"/>
<path d="M924.178 68.5057L925.536 68.5057L925.536 70.8017L927.86 70.8017L927.86 72.2017L925.536 72.2017L925.536 74.4978L924.178 74.4978L924.178 72.2017L921.77 72.2017L921.77 70.8017L924.178 70.8017L924.178 68.5057Z" fill="#9C4DF4" fill-opacity="0.3"/>
<path d="M924.178 87.5057L925.536 87.5057L925.536 89.8017L927.86 89.8017L927.86 91.2017L925.536 91.2017L925.536 93.4978L924.178 93.4978L924.178 91.2017L921.77 91.2017L921.77 89.8017L924.178 89.8017L924.178 87.5057Z" fill="#9C4DF4" fill-opacity="0.3"/>
<path d="M924.178 106.506L925.536 106.506L925.536 108.802L927.86 108.802L927.86 110.202L925.536 110.202L925.536 112.498L924.178 112.498L924.178 110.202L921.77 110.202L921.77 108.802L924.178 108.802L924.178 106.506Z" fill="#9C4DF4" fill-opacity="0.3"/>
<path d="M924.178 125.506L925.536 125.506L925.536 127.802L927.86 127.802L927.86 129.202L925.536 129.202L925.536 131.498L924.178 131.498L924.178 129.202L921.77 129.202L921.77 127.802L924.178 127.802L924.178 125.506Z" fill="#9C4DF4" fill-opacity="0.3"/>
<path d="M905.178 11.5057L906.536 11.5057L906.536 13.8017L908.86 13.8017L908.86 15.2017L906.536 15.2017L906.536 17.4978L905.178 17.4978L905.178 15.2017L902.77 15.2017L902.77 13.8017L905.178 13.8017L905.178 11.5057Z" fill="#9C4DF4" fill-opacity="0.3"/>
<path d="M905.178 30.5057L906.536 30.5057L906.536 32.8017L908.86 32.8017L908.86 34.2017L906.536 34.2017L906.536 36.4978L905.178 36.4978L905.178 34.2017L902.77 34.2017L902.77 32.8017L905.178 32.8017L905.178 30.5057Z" fill="#9C4DF4" fill-opacity="0.3"/>
<path d="M905.178 49.5057L906.536 49.5057L906.536 51.8017L908.86 51.8017L908.86 53.2017L906.536 53.2017L906.536 55.4978L905.178 55.4978L905.178 53.2017L902.77 53.2017L902.77 51.8017L905.178 51.8017L905.178 49.5057Z" fill="#9C4DF4" fill-opacity="0.3"/>
<path d="M905.178 68.5057L906.536 68.5057L906.536 70.8017L908.86 70.8017L908.86 72.2017L906.536 72.2017L906.536 74.4978L905.178 74.4978L905.178 72.2017L902.77 72.2017L902.77 70.8017L905.178 70.8017L905.178 68.5057Z" fill="#9C4DF4" fill-opacity="0.3"/>
<path d="M905.178 87.5057L906.536 87.5057L906.536 89.8017L908.86 89.8017L908.86 91.2017L906.536 91.2017L906.536 93.4978L905.178 93.4978L905.178 91.2017L902.77 91.2017L902.77 89.8017L905.178 89.8017L905.178 87.5057Z" fill="#9C4DF4" fill-opacity="0.3"/>
<path d="M905.178 106.506L906.536 106.506L906.536 108.802L908.86 108.802L908.86 110.202L906.536 110.202L906.536 112.498L905.178 112.498L905.178 110.202L902.77 110.202L902.77 108.802L905.178 108.802L905.178 106.506Z" fill="#9C4DF4" fill-opacity="0.3"/>
<path d="M905.178 125.506L906.536 125.506L906.536 127.802L908.86 127.802L908.86 129.202L906.536 129.202L906.536 131.498L905.178 131.498L905.178 129.202L902.77 129.202L902.77 127.802L905.178 127.802L905.178 125.506Z" fill="#9C4DF4" fill-opacity="0.3"/>
<path d="M886.178 11.5057L887.536 11.5057L887.536 13.8017L889.86 13.8017L889.86 15.2017L887.536 15.2017L887.536 17.4978L886.178 17.4978L886.178 15.2017L883.77 15.2017L883.77 13.8017L886.178 13.8017L886.178 11.5057Z" fill="#9C4DF4" fill-opacity="0.3"/>
<path d="M886.178 30.5057L887.536 30.5057L887.536 32.8017L889.86 32.8017L889.86 34.2017L887.536 34.2017L887.536 36.4978L886.178 36.4978L886.178 34.2017L883.77 34.2017L883.77 32.8017L886.178 32.8017L886.178 30.5057Z" fill="#9C4DF4" fill-opacity="0.3"/>
<path d="M886.178 49.5057L887.536 49.5057L887.536 51.8017L889.86 51.8017L889.86 53.2017L887.536 53.2017L887.536 55.4978L886.178 55.4978L886.178 53.2017L883.77 53.2017L883.77 51.8017L886.178 51.8017L886.178 49.5057Z" fill="#9C4DF4" fill-opacity="0.3"/>
<path d="M886.178 68.5057L887.536 68.5057L887.536 70.8017L889.86 70.8017L889.86 72.2017L887.536 72.2017L887.536 74.4978L886.178 74.4978L886.178 72.2017L883.77 72.2017L883.77 70.8017L886.178 70.8017L886.178 68.5057Z" fill="#9C4DF4" fill-opacity="0.3"/>
<path d="M886.178 87.5057L887.536 87.5057L887.536 89.8017L889.86 89.8017L889.86 91.2017L887.536 91.2017L887.536 93.4978L886.178 93.4978L886.178 91.2017L883.77 91.2017L883.77 89.8017L886.178 89.8017L886.178 87.5057Z" fill="#9C4DF4" fill-opacity="0.3"/>
<path d="M886.178 106.506L887.536 106.506L887.536 108.802L889.86 108.802L889.86 110.202L887.536 110.202L887.536 112.498L886.178 112.498L886.178 110.202L883.77 110.202L883.77 108.802L886.178 108.802L886.178 106.506Z" fill="#9C4DF4" fill-opacity="0.3"/>
<path d="M886.178 125.506L887.536 125.506L887.536 127.802L889.86 127.802L889.86 129.202L887.536 129.202L887.536 131.498L886.178 131.498L886.178 129.202L883.77 129.202L883.77 127.802L886.178 127.802L886.178 125.506Z" fill="#9C4DF4" fill-opacity="0.3"/>
<path d="M867.178 11.5057L868.536 11.5057L868.536 13.8017L870.86 13.8017L870.86 15.2017L868.536 15.2017L868.536 17.4978L867.178 17.4978L867.178 15.2017L864.77 15.2017L864.77 13.8017L867.178 13.8017L867.178 11.5057Z" fill="#9C4DF4" fill-opacity="0.3"/>
<path d="M867.178 30.5057L868.536 30.5057L868.536 32.8017L870.86 32.8017L870.86 34.2017L868.536 34.2017L868.536 36.4978L867.178 36.4978L867.178 34.2017L864.77 34.2017L864.77 32.8017L867.178 32.8017L867.178 30.5057Z" fill="#9C4DF4" fill-opacity="0.3"/>
<path d="M867.178 49.5057L868.536 49.5057L868.536 51.8017L870.86 51.8017L870.86 53.2017L868.536 53.2017L868.536 55.4978L867.178 55.4978L867.178 53.2017L864.77 53.2017L864.77 51.8017L867.178 51.8017L867.178 49.5057Z" fill="#9C4DF4" fill-opacity="0.3"/>
<path d="M867.178 68.5057L868.536 68.5057L868.536 70.8017L870.86 70.8017L870.86 72.2017L868.536 72.2017L868.536 74.4978L867.178 74.4978L867.178 72.2017L864.77 72.2017L864.77 70.8017L867.178 70.8017L867.178 68.5057Z" fill="#9C4DF4" fill-opacity="0.3"/>
<path d="M867.178 87.5057L868.536 87.5057L868.536 89.8017L870.86 89.8017L870.86 91.2017L868.536 91.2017L868.536 93.4978L867.178 93.4978L867.178 91.2017L864.77 91.2017L864.77 89.8017L867.178 89.8017L867.178 87.5057Z" fill="#9C4DF4" fill-opacity="0.3"/>
<path d="M867.178 106.506L868.536 106.506L868.536 108.802L870.86 108.802L870.86 110.202L868.536 110.202L868.536 112.498L867.178 112.498L867.178 110.202L864.77 110.202L864.77 108.802L867.178 108.802L867.178 106.506Z" fill="#9C4DF4" fill-opacity="0.3"/>
<path d="M867.178 125.506L868.536 125.506L868.536 127.802L870.86 127.802L870.86 129.202L868.536 129.202L868.536 131.498L867.178 131.498L867.178 129.202L864.77 129.202L864.77 127.802L867.178 127.802L867.178 125.506Z" fill="#9C4DF4" fill-opacity="0.3"/>
<path d="M848.178 11.5057L849.536 11.5057L849.536 13.8017L851.86 13.8017L851.86 15.2017L849.536 15.2017L849.536 17.4978L848.178 17.4978L848.178 15.2017L845.77 15.2017L845.77 13.8017L848.178 13.8017L848.178 11.5057Z" fill="#9C4DF4" fill-opacity="0.3"/>
<path d="M848.178 30.5057L849.536 30.5057L849.536 32.8017L851.86 32.8017L851.86 34.2017L849.536 34.2017L849.536 36.4978L848.178 36.4978L848.178 34.2017L845.77 34.2017L845.77 32.8017L848.178 32.8017L848.178 30.5057Z" fill="#9C4DF4" fill-opacity="0.3"/>
<path d="M848.178 49.5057L849.536 49.5057L849.536 51.8017L851.86 51.8017L851.86 53.2017L849.536 53.2017L849.536 55.4978L848.178 55.4978L848.178 53.2017L845.77 53.2017L845.77 51.8017L848.178 51.8017L848.178 49.5057Z" fill="#9C4DF4" fill-opacity="0.3"/>
<path d="M848.178 68.5057L849.536 68.5057L849.536 70.8017L851.86 70.8017L851.86 72.2017L849.536 72.2017L849.536 74.4978L848.178 74.4978L848.178 72.2017L845.77 72.2017L845.77 70.8017L848.178 70.8017L848.178 68.5057Z" fill="#9C4DF4" fill-opacity="0.3"/>
<path d="M848.178 87.5057L849.536 87.5057L849.536 89.8017L851.86 89.8017L851.86 91.2017L849.536 91.2017L849.536 93.4978L848.178 93.4978L848.178 91.2017L845.77 91.2017L845.77 89.8017L848.178 89.8017L848.178 87.5057Z" fill="#9C4DF4" fill-opacity="0.3"/>
<path d="M848.178 106.506L849.536 106.506L849.536 108.802L851.86 108.802L851.86 110.202L849.536 110.202L849.536 112.498L848.178 112.498L848.178 110.202L845.77 110.202L845.77 108.802L848.178 108.802L848.178 106.506Z" fill="#9C4DF4" fill-opacity="0.3"/>
<path d="M848.178 125.506L849.536 125.506L849.536 127.802L851.86 127.802L851.86 129.202L849.536 129.202L849.536 131.498L848.178 131.498L848.178 129.202L845.77 129.202L845.77 127.802L848.178 127.802L848.178 125.506Z" fill="#9C4DF4" fill-opacity="0.3"/>
<path d="M829.178 11.5057L830.536 11.5057L830.536 13.8017L832.86 13.8017L832.86 15.2017L830.536 15.2017L830.536 17.4978L829.178 17.4978L829.178 15.2017L826.77 15.2017L826.77 13.8017L829.178 13.8017L829.178 11.5057Z" fill="#9C4DF4" fill-opacity="0.3"/>
<path d="M829.178 30.5057L830.536 30.5057L830.536 32.8017L832.86 32.8017L832.86 34.2017L830.536 34.2017L830.536 36.4978L829.178 36.4978L829.178 34.2017L826.77 34.2017L826.77 32.8017L829.178 32.8017L829.178 30.5057Z" fill="#9C4DF4" fill-opacity="0.3"/>
<path d="M829.178 49.5057L830.536 49.5057L830.536 51.8017L832.86 51.8017L832.86 53.2017L830.536 53.2017L830.536 55.4978L829.178 55.4978L829.178 53.2017L826.77 53.2017L826.77 51.8017L829.178 51.8017L829.178 49.5057Z" fill="#9C4DF4" fill-opacity="0.3"/>
<path d="M829.178 68.5057L830.536 68.5057L830.536 70.8017L832.86 70.8017L832.86 72.2017L830.536 72.2017L830.536 74.4978L829.178 74.4978L829.178 72.2017L826.77 72.2017L826.77 70.8017L829.178 70.8017L829.178 68.5057Z" fill="#9C4DF4" fill-opacity="0.3"/>
<path d="M829.178 87.5057L830.536 87.5057L830.536 89.8017L832.86 89.8017L832.86 91.2017L830.536 91.2017L830.536 93.4978L829.178 93.4978L829.178 91.2017L826.77 91.2017L826.77 89.8017L829.178 89.8017L829.178 87.5057Z" fill="#9C4DF4" fill-opacity="0.3"/>
<path d="M829.178 106.506L830.536 106.506L830.536 108.802L832.86 108.802L832.86 110.202L830.536 110.202L830.536 112.498L829.178 112.498L829.178 110.202L826.77 110.202L826.77 108.802L829.178 108.802L829.178 106.506Z" fill="#9C4DF4" fill-opacity="0.3"/>
<path d="M829.178 125.506L830.536 125.506L830.536 127.802L832.86 127.802L832.86 129.202L830.536 129.202L830.536 131.498L829.178 131.498L829.178 129.202L826.77 129.202L826.77 127.802L829.178 127.802L829.178 125.506Z" fill="#9C4DF4" fill-opacity="0.3"/>
<path d="M810.178 11.5057L811.536 11.5057L811.536 13.8017L813.86 13.8017L813.86 15.2017L811.536 15.2017L811.536 17.4978L810.178 17.4978L810.178 15.2017L807.77 15.2017L807.77 13.8017L810.178 13.8017L810.178 11.5057Z" fill="#9C4DF4" fill-opacity="0.3"/>
<path d="M810.178 30.5057L811.536 30.5057L811.536 32.8017L813.86 32.8017L813.86 34.2017L811.536 34.2017L811.536 36.4978L810.178 36.4978L810.178 34.2017L807.77 34.2017L807.77 32.8017L810.178 32.8017L810.178 30.5057Z" fill="#9C4DF4" fill-opacity="0.3"/>
<path d="M810.178 49.5057L811.536 49.5057L811.536 51.8017L813.86 51.8017L813.86 53.2017L811.536 53.2017L811.536 55.4978L810.178 55.4978L810.178 53.2017L807.77 53.2017L807.77 51.8017L810.178 51.8017L810.178 49.5057Z" fill="#9C4DF4" fill-opacity="0.3"/>
<path d="M810.178 68.5057L811.536 68.5057L811.536 70.8017L813.86 70.8017L813.86 72.2017L811.536 72.2017L811.536 74.4978L810.178 74.4978L810.178 72.2017L807.77 72.2017L807.77 70.8017L810.178 70.8017L810.178 68.5057Z" fill="#9C4DF4" fill-opacity="0.3"/>
<path d="M810.178 87.5057L811.536 87.5057L811.536 89.8017L813.86 89.8017L813.86 91.2017L811.536 91.2017L811.536 93.4978L810.178 93.4978L810.178 91.2017L807.77 91.2017L807.77 89.8017L810.178 89.8017L810.178 87.5057Z" fill="#9C4DF4" fill-opacity="0.3"/>
<path d="M810.178 106.506L811.536 106.506L811.536 108.802L813.86 108.802L813.86 110.202L811.536 110.202L811.536 112.498L810.178 112.498L810.178 110.202L807.77 110.202L807.77 108.802L810.178 108.802L810.178 106.506Z" fill="#9C4DF4" fill-opacity="0.3"/>
<path d="M810.178 125.506L811.536 125.506L811.536 127.802L813.86 127.802L813.86 129.202L811.536 129.202L811.536 131.498L810.178 131.498L810.178 129.202L807.77 129.202L807.77 127.802L810.178 127.802L810.178 125.506Z" fill="#9C4DF4" fill-opacity="0.3"/>
<path d="M791.178 11.5057L792.536 11.5057L792.536 13.8017L794.86 13.8017L794.86 15.2017L792.536 15.2017L792.536 17.4978L791.178 17.4978L791.178 15.2017L788.77 15.2017L788.77 13.8017L791.178 13.8017L791.178 11.5057Z" fill="#9C4DF4" fill-opacity="0.3"/>
<path d="M791.178 30.5057L792.536 30.5057L792.536 32.8017L794.86 32.8017L794.86 34.2017L792.536 34.2017L792.536 36.4978L791.178 36.4978L791.178 34.2017L788.77 34.2017L788.77 32.8017L791.178 32.8017L791.178 30.5057Z" fill="#9C4DF4" fill-opacity="0.3"/>
<path d="M791.178 49.5057L792.536 49.5057L792.536 51.8017L794.86 51.8017L794.86 53.2017L792.536 53.2017L792.536 55.4978L791.178 55.4978L791.178 53.2017L788.77 53.2017L788.77 51.8017L791.178 51.8017L791.178 49.5057Z" fill="#9C4DF4" fill-opacity="0.3"/>
<path d="M791.178 68.5057L792.536 68.5057L792.536 70.8017L794.86 70.8017L794.86 72.2017L792.536 72.2017L792.536 74.4978L791.178 74.4978L791.178 72.2017L788.77 72.2017L788.77 70.8017L791.178 70.8017L791.178 68.5057Z" fill="#9C4DF4" fill-opacity="0.3"/>
<path d="M791.178 87.5057L792.536 87.5057L792.536 89.8017L794.86 89.8017L794.86 91.2017L792.536 91.2017L792.536 93.4978L791.178 93.4978L791.178 91.2017L788.77 91.2017L788.77 89.8017L791.178 89.8017L791.178 87.5057Z" fill="#9C4DF4" fill-opacity="0.3"/>
<path d="M791.178 106.506L792.536 106.506L792.536 108.802L794.86 108.802L794.86 110.202L792.536 110.202L792.536 112.498L791.178 112.498L791.178 110.202L788.77 110.202L788.77 108.802L791.178 108.802L791.178 106.506Z" fill="#9C4DF4" fill-opacity="0.3"/>
<path d="M791.178 125.506L792.536 125.506L792.536 127.802L794.86 127.802L794.86 129.202L792.536 129.202L792.536 131.498L791.178 131.498L791.178 129.202L788.77 129.202L788.77 127.802L791.178 127.802L791.178 125.506Z" fill="#9C4DF4" fill-opacity="0.3"/>
<path d="M943.178 68.5057L944.536 68.5057L944.536 70.8017L946.86 70.8017L946.86 72.2017L944.536 72.2017L944.536 74.4978L943.178 74.4978L943.178 72.2017L940.77 72.2017L940.77 70.8017L943.178 70.8017L943.178 68.5057Z" fill="#9C4DF4" fill-opacity="0.3"/>
<path d="M943.178 87.5057L944.536 87.5057L944.536 89.8017L946.86 89.8017L946.86 91.2017L944.536 91.2017L944.536 93.4978L943.178 93.4978L943.178 91.2017L940.77 91.2017L940.77 89.8017L943.178 89.8017L943.178 87.5057Z" fill="#9C4DF4" fill-opacity="0.3"/>
<path d="M943.178 106.506L944.536 106.506L944.536 108.802L946.86 108.802L946.86 110.202L944.536 110.202L944.536 112.498L943.178 112.498L943.178 110.202L940.77 110.202L940.77 108.802L943.178 108.802L943.178 106.506Z" fill="#9C4DF4" fill-opacity="0.3"/>
<path d="M943.178 125.506L944.536 125.506L944.536 127.802L946.86 127.802L946.86 129.202L944.536 129.202L944.536 131.498L943.178 131.498L943.178 129.202L940.77 129.202L940.77 127.802L943.178 127.802L943.178 125.506Z" fill="#9C4DF4" fill-opacity="0.3"/>
<path d="M943.178 144.506L944.536 144.506L944.536 146.802L946.86 146.802L946.86 148.202L944.536 148.202L944.536 150.498L943.178 150.498L943.178 148.202L940.77 148.202L940.77 146.802L943.178 146.802L943.178 144.506Z" fill="#9C4DF4" fill-opacity="0.3"/>
<path d="M943.178 163.506L944.536 163.506L944.536 165.802L946.86 165.802L946.86 167.202L944.536 167.202L944.536 169.498L943.178 169.498L943.178 167.202L940.77 167.202L940.77 165.802L943.178 165.802L943.178 163.506Z" fill="#9C4DF4" fill-opacity="0.3"/>
<path d="M924.178 68.5057L925.536 68.5057L925.536 70.8017L927.86 70.8017L927.86 72.2017L925.536 72.2017L925.536 74.4978L924.178 74.4978L924.178 72.2017L921.77 72.2017L921.77 70.8017L924.178 70.8017L924.178 68.5057Z" fill="#9C4DF4" fill-opacity="0.3"/>
<path d="M924.178 87.5057L925.536 87.5057L925.536 89.8017L927.86 89.8017L927.86 91.2017L925.536 91.2017L925.536 93.4978L924.178 93.4978L924.178 91.2017L921.77 91.2017L921.77 89.8017L924.178 89.8017L924.178 87.5057Z" fill="#9C4DF4" fill-opacity="0.3"/>
<path d="M924.178 106.506L925.536 106.506L925.536 108.802L927.86 108.802L927.86 110.202L925.536 110.202L925.536 112.498L924.178 112.498L924.178 110.202L921.77 110.202L921.77 108.802L924.178 108.802L924.178 106.506Z" fill="#9C4DF4" fill-opacity="0.3"/>
<path d="M924.178 125.506L925.536 125.506L925.536 127.802L927.86 127.802L927.86 129.202L925.536 129.202L925.536 131.498L924.178 131.498L924.178 129.202L921.77 129.202L921.77 127.802L924.178 127.802L924.178 125.506Z" fill="#9C4DF4" fill-opacity="0.3"/>
<path d="M924.178 144.506L925.536 144.506L925.536 146.802L927.86 146.802L927.86 148.202L925.536 148.202L925.536 150.498L924.178 150.498L924.178 148.202L921.77 148.202L921.77 146.802L924.178 146.802L924.178 144.506Z" fill="#9C4DF4" fill-opacity="0.3"/>
<path d="M924.178 163.506L925.536 163.506L925.536 165.802L927.86 165.802L927.86 167.202L925.536 167.202L925.536 169.498L924.178 169.498L924.178 167.202L921.77 167.202L921.77 165.802L924.178 165.802L924.178 163.506Z" fill="#9C4DF4" fill-opacity="0.3"/>
<path d="M905.178 68.5057L906.536 68.5057L906.536 70.8017L908.86 70.8017L908.86 72.2017L906.536 72.2017L906.536 74.4978L905.178 74.4978L905.178 72.2017L902.77 72.2017L902.77 70.8017L905.178 70.8017L905.178 68.5057Z" fill="#9C4DF4" fill-opacity="0.3"/>
<path d="M905.178 87.5057L906.536 87.5057L906.536 89.8017L908.86 89.8017L908.86 91.2017L906.536 91.2017L906.536 93.4978L905.178 93.4978L905.178 91.2017L902.77 91.2017L902.77 89.8017L905.178 89.8017L905.178 87.5057Z" fill="#9C4DF4" fill-opacity="0.3"/>
<path d="M905.178 106.506L906.536 106.506L906.536 108.802L908.86 108.802L908.86 110.202L906.536 110.202L906.536 112.498L905.178 112.498L905.178 110.202L902.77 110.202L902.77 108.802L905.178 108.802L905.178 106.506Z" fill="#9C4DF4" fill-opacity="0.3"/>
<path d="M905.178 125.506L906.536 125.506L906.536 127.802L908.86 127.802L908.86 129.202L906.536 129.202L906.536 131.498L905.178 131.498L905.178 129.202L902.77 129.202L902.77 127.802L905.178 127.802L905.178 125.506Z" fill="#9C4DF4" fill-opacity="0.3"/>
<path d="M905.178 144.506L906.536 144.506L906.536 146.802L908.86 146.802L908.86 148.202L906.536 148.202L906.536 150.498L905.178 150.498L905.178 148.202L902.77 148.202L902.77 146.802L905.178 146.802L905.178 144.506Z" fill="#9C4DF4" fill-opacity="0.3"/>
<path d="M905.178 163.506L906.536 163.506L906.536 165.802L908.86 165.802L908.86 167.202L906.536 167.202L906.536 169.498L905.178 169.498L905.178 167.202L902.77 167.202L902.77 165.802L905.178 165.802L905.178 163.506Z" fill="#9C4DF4" fill-opacity="0.3"/>
<path d="M886.178 68.5057L887.536 68.5057L887.536 70.8017L889.86 70.8017L889.86 72.2017L887.536 72.2017L887.536 74.4978L886.178 74.4978L886.178 72.2017L883.77 72.2017L883.77 70.8017L886.178 70.8017L886.178 68.5057Z" fill="#9C4DF4" fill-opacity="0.3"/>
<path d="M886.178 87.5057L887.536 87.5057L887.536 89.8017L889.86 89.8017L889.86 91.2017L887.536 91.2017L887.536 93.4978L886.178 93.4978L886.178 91.2017L883.77 91.2017L883.77 89.8017L886.178 89.8017L886.178 87.5057Z" fill="#9C4DF4" fill-opacity="0.3"/>
<path d="M886.178 106.506L887.536 106.506L887.536 108.802L889.86 108.802L889.86 110.202L887.536 110.202L887.536 112.498L886.178 112.498L886.178 110.202L883.77 110.202L883.77 108.802L886.178 108.802L886.178 106.506Z" fill="#9C4DF4" fill-opacity="0.3"/>
<path d="M886.178 125.506L887.536 125.506L887.536 127.802L889.86 127.802L889.86 129.202L887.536 129.202L887.536 131.498L886.178 131.498L886.178 129.202L883.77 129.202L883.77 127.802L886.178 127.802L886.178 125.506Z" fill="#9C4DF4" fill-opacity="0.3"/>
<path d="M886.178 144.506L887.536 144.506L887.536 146.802L889.86 146.802L889.86 148.202L887.536 148.202L887.536 150.498L886.178 150.498L886.178 148.202L883.77 148.202L883.77 146.802L886.178 146.802L886.178 144.506Z" fill="#9C4DF4" fill-opacity="0.3"/>
<path d="M886.178 163.506L887.536 163.506L887.536 165.802L889.86 165.802L889.86 167.202L887.536 167.202L887.536 169.498L886.178 169.498L886.178 167.202L883.77 167.202L883.77 165.802L886.178 165.802L886.178 163.506Z" fill="#9C4DF4" fill-opacity="0.3"/>
<path d="M867.178 68.5057L868.536 68.5057L868.536 70.8017L870.86 70.8017L870.86 72.2017L868.536 72.2017L868.536 74.4978L867.178 74.4978L867.178 72.2017L864.77 72.2017L864.77 70.8017L867.178 70.8017L867.178 68.5057Z" fill="#9C4DF4" fill-opacity="0.3"/>
<path d="M867.178 87.5057L868.536 87.5057L868.536 89.8017L870.86 89.8017L870.86 91.2017L868.536 91.2017L868.536 93.4978L867.178 93.4978L867.178 91.2017L864.77 91.2017L864.77 89.8017L867.178 89.8017L867.178 87.5057Z" fill="#9C4DF4" fill-opacity="0.3"/>
<path d="M867.178 106.506L868.536 106.506L868.536 108.802L870.86 108.802L870.86 110.202L868.536 110.202L868.536 112.498L867.178 112.498L867.178 110.202L864.77 110.202L864.77 108.802L867.178 108.802L867.178 106.506Z" fill="#9C4DF4" fill-opacity="0.3"/>
<path d="M867.178 125.506L868.536 125.506L868.536 127.802L870.86 127.802L870.86 129.202L868.536 129.202L868.536 131.498L867.178 131.498L867.178 129.202L864.77 129.202L864.77 127.802L867.178 127.802L867.178 125.506Z" fill="#9C4DF4" fill-opacity="0.3"/>
<path d="M867.178 144.506L868.536 144.506L868.536 146.802L870.86 146.802L870.86 148.202L868.536 148.202L868.536 150.498L867.178 150.498L867.178 148.202L864.77 148.202L864.77 146.802L867.178 146.802L867.178 144.506Z" fill="#9C4DF4" fill-opacity="0.3"/>
<path d="M867.178 163.506L868.536 163.506L868.536 165.802L870.86 165.802L870.86 167.202L868.536 167.202L868.536 169.498L867.178 169.498L867.178 167.202L864.77 167.202L864.77 165.802L867.178 165.802L867.178 163.506Z" fill="#9C4DF4" fill-opacity="0.3"/>
<path fill-rule="evenodd" clip-rule="evenodd" d="M602.107 234.193C595.136 248.752 605.672 277.828 609.475 291.692C616.992 319.11 625.749 345.684 634.237 372.4C642.725 399.116 651.276 425.82 658.281 453.55C662.83 471.553 668.438 492.163 667.49 512.723C665.464 556.533 622.663 520.228 610.589 512.87C579.868 494.156 546.097 469.656 509.633 467.989C487.865 466.995 472.679 480.067 463.82 508.297C460.929 517.471 459.691 529.472 452.854 535.63C445.553 542.207 436.012 542.318 428.48 541.609C401.014 539.01 375.572 523.319 352.047 509.111C326.664 493.823 302.108 476.185 277.654 459.453C267.285 452.358 253.849 450.343 241.86 447.965C226.143 444.847 210.233 442.55 194.381 440.006C159.524 434.375 123.453 428.889 91.9511 411.8C72.2227 401.1 53.2624 384.018 48.0197 354.833C45.3875 340.179 48.4863 323.242 50.4152 307.627C52.735 288.756 55.3284 269.877 57.2024 251.02C63.2343 190.284 61.2569 125.492 21.922 95.1103C15.9708 90.5154 9.38839 87.53 3.18566 83.5356C-0.762191 80.987 -3.55226 77.2214 -2.1161 70.2629C1.47763 52.8039 24.2833 37.0873 34.6896 28.4581C57.471 9.57125 80.9973 -7.24652 104.104 -25.2131C119.389 -37.0932 142.883 -51.5255 152.889 -71.8809C161.805 -90.0179 151.654 -114.6 147 -129.787C142.635 -144.011 133.054 -166.318 140.385 -184.047C143.941 -192.643 150.982 -196.936 157.445 -199.577C168.762 -204.185 179.789 -205.332 191.057 -211.727C209.538 -222.222 229.533 -240.419 239.524 -264.871C246.446 -281.815 245.266 -296.86 242.136 -312.627C240.821 -319.256 239.538 -324.189 242.722 -331.273C247.772 -342.525 256.373 -352.183 263.754 -360.75C290.164 -391.415 319.644 -418.341 349.376 -441.956C364.234 -453.758 379.618 -465.128 395.539 -472.952C405.977 -478.1 419.345 -483.574 428.431 -477.275C438.958 -469.997 447.404 -456.721 455.623 -445.478C470.971 -424.474 485.501 -402.414 499.843 -380.172C533.007 -328.728 564.925 -275.834 595.598 -221.493C617.189 -183.186 639.406 -144.413 656.409 -101.575C659.71 -93.189 662.334 -84.2574 664.247 -74.901C666.344 -65.0138 671.371 -57.7635 676.835 -51.1716C710.747 -10.2576 759.686 10.1665 803.137 31.7975C814.164 37.2908 825.196 42.7756 836.021 48.7676C845.326 53.9185 857.244 58.4785 863.835 68.5628C876.828 88.4243 847.506 108.249 835.332 116.17C792.468 144.06 746.417 160.891 702.076 179.922C680.98 188.999 659.811 197.964 638.911 208.516C628.036 213.995 608.218 221.43 602.107 234.193Z" stroke="#9C4DF4" stroke-opacity="0.07"/>
<path fill-rule="evenodd" clip-rule="evenodd" d="M593.328 231.391C592.656 251.431 599.016 270.984 603.687 288.476C610.405 313.654 617.98 338.285 625.134 363.182C631.898 386.726 638.613 410.45 643.445 435.217C646.391 450.319 650.366 468.692 647.005 485.693C639.726 522.546 599.589 488.442 588.716 482.021C561.688 466.047 531.934 446.097 499.852 445.97C479.819 445.892 465.368 458.738 457.095 484.726C454.231 493.716 452.839 502.119 446.356 508.551C438.856 515.997 429.275 517.247 421.092 517.148C395.458 516.841 371.273 503.821 349.208 491.644C326.413 479.065 303.051 465.156 282.946 448.929C274.905 442.443 263.359 439.719 253.608 437.012C238.603 432.851 223.381 429.496 208.275 425.718C177.572 418.048 146.378 409.542 119.006 392.103C99.2441 379.514 81.1518 361.187 73.1776 333.186C65.1012 304.798 70.6552 273.288 73.7662 241.833C79.161 187.465 83.6118 119.903 51.864 85.679C47.0509 80.4873 41.4104 77.5988 36.0937 73.4655C33.3585 71.3428 30.4152 68.5737 30.9553 63.5073C32.3576 50.3546 51.8784 38.0297 59.2185 32.2869C79.5007 16.4156 100.429 2.45381 120.956 -12.672C137.257 -24.681 156.6 -37.1736 169.637 -55.7547C185.458 -78.3033 169.947 -112.854 169.996 -136.398C170.085 -177.223 206.404 -175.409 227.21 -180.519C251.1 -186.383 278.915 -207.982 277.304 -243.724C276.686 -257.392 272.883 -267.913 276.723 -282.538C282.728 -305.41 296.77 -326.584 309.512 -344.488C328.675 -371.397 350.374 -396.118 373.459 -416.452C389.991 -431.006 416.563 -453.381 432.761 -439.126C443.672 -429.543 452.817 -415.77 461.775 -402.99C475.19 -383.859 487.891 -363.841 500.346 -343.56C529.124 -296.798 556.479 -248.264 582.014 -198.027C599.434 -163.744 637.579 -46.4879 641.751 -40.3608C654.195 -22.0982 672.936 -10.8417 689.914 -0.600961C712.497 13.0237 736.115 24.2011 759.58 35.6503C770.745 41.1097 782.144 46.2281 792.948 52.5851C800.638 57.1106 810.606 63.3243 814.04 74.1213C820.747 95.1906 793.03 113.627 781.438 121.519C745.913 145.725 708.021 161.759 671.194 179.478C653.118 188.181 634.896 196.749 617.164 207.39C610.008 211.69 593.741 219.011 593.328 231.391Z" stroke="#9C4DF4" stroke-opacity="0.07"/>
<path fill-rule="evenodd" clip-rule="evenodd" d="M580.181 232.816C583.765 276.328 598.169 316.804 607.728 357.683C612.524 378.204 617.22 399.125 619.309 421.063C620.397 432.472 621.695 446.846 617.268 458.64C605.425 490.192 569.121 459.719 557.127 452.935C533.933 439.827 508.124 424.204 480.699 425.523C463.941 426.334 450.531 437.41 443.14 459.044C439.86 468.642 437.792 477.292 430.974 484.229C424.065 491.257 415.562 493.707 407.744 494.546C385.273 496.967 363.351 487.552 343.823 478.329C320.929 467.482 298.976 454.25 278.141 438.738C259.887 425.163 237.488 420.419 216.764 413.171C189.312 403.566 161.853 392.769 137.684 374.822C118.597 360.643 101.799 341.305 92.6116 314.425C83.2929 287.076 84.4701 256.598 87.5428 224.955C92.1882 177.121 99.7115 113.919 76.3697 78.3943C72.9769 73.2235 68.9739 70.1452 64.5975 66.6279C62.4711 64.9205 59.6414 62.8907 60.1789 58.7476C61.476 48.773 78.8669 39.7204 84.2504 36.0967C101.435 24.5283 118.968 14.2572 136.256 3.07148C152.397 -7.3714 169.608 -17.9831 183.942 -33.3873C206.764 -57.925 189.013 -93.7706 203.661 -122.06C212.757 -139.622 230.622 -144.375 244.148 -146.856C260.796 -149.896 280.644 -145.74 295.954 -161.706C307.359 -173.598 304.87 -186.829 305.178 -201.623C305.698 -226.69 317.588 -252.938 329.15 -274.377C344.772 -303.35 364.15 -330.314 385.496 -352.114C395.171 -361.998 405.913 -371.811 417.199 -376.879C427.774 -381.632 434.768 -379.887 442.168 -372.302C464.818 -349.071 482.813 -315.526 500.337 -284.561C522.352 -245.653 543.054 -205.191 561.671 -162.898C574.364 -134.058 587.087 -104.033 594.567 -71.1407C596.516 -62.5664 598.348 -53.446 598.235 -43.992C598.164 -36.8759 597.093 -31.7003 599.866 -25.6925C608.086 -7.88912 626.773 1.86056 640.74 10.2566C663.069 23.6882 686.502 34.5488 709.713 45.7877C723.264 52.3315 750.084 61.9856 752.368 84.8838C754.337 104.654 732.551 120.98 721.355 129.457C693.04 150.891 662.686 165.899 633.196 182.572C619.681 190.213 605.83 197.752 592.909 207.703C589.612 210.237 584.813 213.298 582.267 217.387C579.361 222.079 579.748 227.46 580.181 232.816Z" stroke="#9C4DF4" stroke-opacity="0.07"/>
<path fill-rule="evenodd" clip-rule="evenodd" d="M582.052 224.559C585.956 263.539 595.694 300.078 601.695 338.178C604.386 355.261 606.887 372.959 606.413 391.202C606.159 401.013 605.177 412.904 599.755 421.568C584.194 446.435 553.9 422.273 540.435 415.051C520.44 404.292 497.627 391.607 473.972 394.462C458.477 396.332 447.647 407.425 441.011 426.802C433.894 447.589 422.235 458.189 405.886 461.226C385.394 465.024 365.088 458.308 346.965 450.981C325.141 442.131 304.327 430.506 284.776 416.248C265.764 402.379 244.8 394.208 224.164 384.052C196.805 370.582 169.63 354.481 148.572 328.759C130.237 306.363 118.254 276.658 115.452 241.595C112.515 204.991 120.638 167.048 121.938 129.698C122.749 106.402 123.262 75.1971 111.993 58.1322C108.235 52.4406 97.8326 49.4222 107.24 40.7089C112.618 35.7247 119.551 32.8837 125.42 29.8275C134.903 24.888 144.449 20.3077 153.964 15.5488C174.247 5.40317 195.534 -4.56306 214.54 -20.0418C238.478 -39.5243 232.333 -71.5038 247.536 -97.5283C255.716 -111.535 268.383 -118.469 280.236 -122.602C287.908 -125.282 295.643 -126.85 303.32 -127.994C311.339 -129.191 319.799 -128.477 327.818 -131.647C339.241 -136.15 341.548 -149.235 346.053 -162.152C353.968 -184.853 363.828 -206.654 375.412 -227.06C389.607 -252.074 406.291 -276.362 425.572 -294.682C433.075 -301.816 441.659 -308.944 450.373 -311.182C459.086 -313.419 464.8 -308.903 470.456 -302.505C487.242 -283.548 500.456 -257.307 513.034 -232.399C528.775 -201.221 543.199 -168.568 555.472 -134.279C563.944 -110.61 571.947 -85.8341 575.685 -59.0981C576.77 -51.3187 577.499 -43.2881 577.25 -35.0578C577.081 -29.4122 575.416 -23.127 576.627 -17.9587C580.425 -1.81222 599.342 7.22898 609.823 13.6892C630.74 26.5838 653.466 34.8482 674.444 47.5426C685.895 54.4692 704.167 64.614 705.618 84.103C706.986 102.426 690.137 118.146 679.495 127.532C658.576 145.991 635.866 159.622 613.949 175.073C604.934 181.434 595.281 187.936 587.188 196.721C579.983 204.553 581.053 214.566 582.052 224.559Z" stroke="#9C4DF4" stroke-opacity="0.07"/>
<path fill-rule="evenodd" clip-rule="evenodd" d="M578.074 221.215C580.078 254.526 586.168 287.077 588.082 320.846C589.199 340.619 591.404 374.087 575.518 389.892C558.073 407.268 534.131 391.516 519.6 383.842C502.306 374.708 481.8 364.388 461.218 368.539C454.71 369.849 448.173 373.021 442.914 379.515C437.285 386.465 435.711 394.864 432.024 403.167C424.287 420.586 410.724 429.487 396.989 432.543C377.574 436.868 358.295 431.93 340.837 425.71C321.068 418.641 302.222 408.865 284.569 396.521C267.691 384.739 250.686 373.716 233.443 362.642C210.885 348.176 189.086 331.281 171.77 307.796C154.716 284.656 143.177 255.407 139.392 221.502C135.703 188.42 139.269 153.566 144.321 119.046C147.19 99.4537 150.513 69.5088 142.667 53.186C139.179 45.9243 133.912 42.6162 144.057 37.0149C156.831 29.9623 170.91 26.9514 183.963 22.3899C202.794 15.8043 222.06 9.13442 240.348 -1.53099C252.027 -8.34113 260.06 -17.2315 266.606 -31.978C271.588 -43.2151 275.331 -55.1561 281.436 -65.6734C295.76 -90.3614 318.271 -98.5204 338.577 -106.571C351.638 -111.748 362.792 -114.873 374.185 -127.205C387.655 -141.778 399.088 -159.86 411.29 -176.224C424.691 -194.193 439.036 -212.604 455.446 -225.246C470.054 -236.502 481.883 -237.901 492.314 -224.936C508.586 -204.719 519.826 -174.858 529.755 -147.559C539.863 -119.779 548.732 -90.2702 552.999 -58.7425C555.301 -41.7184 554.125 -24.4114 555.129 -7.13865C556.406 14.558 579.201 22.4349 591.69 29.3073C612.421 40.7152 682.247 67.1034 650.864 116.295C637.766 136.828 618.488 150.807 602.167 165.634C595.397 171.789 586.569 178.69 581.429 187.554C575.831 197.207 577.476 211.191 578.074 221.215Z" stroke="#9C4DF4" stroke-opacity="0.07"/>
<path fill-rule="evenodd" clip-rule="evenodd" d="M571.893 214.231C571.782 243.086 574.29 272.152 571.869 301.727C570.311 320.886 566.186 345.073 550.988 355.978C533.837 368.284 513.272 359.699 498.545 352.596C483.373 345.276 465.665 335.7 447.568 341.51C441.808 343.364 435.952 347.185 431.98 353.863C428.167 360.266 426.417 368.095 422.579 374.645C413.964 389.356 401.396 397.694 388.67 401.246C351.023 411.754 311.74 392.72 281.935 373.068C267.017 363.23 252.744 350.87 238.55 339.271C220.131 324.221 202.644 307.16 188.617 285.479C158.79 239.389 153.071 178.951 160.244 113.623C162.503 93.0606 166.769 72.0724 164.191 52.5111C162.868 42.4156 166.271 38.1752 174.055 35.1839C186.222 30.5114 198.905 29.2803 211.105 26.7944C228.457 23.2601 246.144 19.7257 263.253 12.95C275.046 8.27884 284.596 2.52509 293.1 -10.8263C299.165 -20.3451 303.967 -30.9962 309.624 -40.8817C320.373 -59.659 334.099 -76.1798 349.597 -87.2049C361.896 -95.9334 374.78 -102.687 387.642 -108.726C404.373 -116.599 419.722 -125.739 435.437 -137.947C456.254 -154.096 490.365 -186.851 507.949 -159.785C527.34 -129.927 535.961 -82.1656 537.557 -40.5598C538.094 -26.5899 536.538 -10.988 540.273 1.6217C545.872 20.4811 557.25 27.8225 570.388 36.8435C590.055 50.3555 635.805 73.6407 615.415 117.125C607.335 134.352 594.481 147.035 584.12 161.815C572.497 178.355 571.953 194.555 571.893 214.231Z" stroke="#9C4DF4" stroke-opacity="0.07"/>
<path fill-rule="evenodd" clip-rule="evenodd" d="M565.113 206.965C561.712 242.321 562.267 304.665 529.595 324.008C512.333 334.233 492.979 329.179 477.476 323.424C464.993 318.807 451.145 310.741 436.649 317.735C425.993 322.878 422.119 338.407 414.101 348.525C404.157 361.066 391.719 368.353 379.179 371.624C344.137 380.769 308.508 366.377 280.102 348.918C250.602 330.781 222.824 301.013 203.191 267.121C178.716 224.856 170.881 171.452 175.256 113.706C176.065 103.048 177.277 92.3746 178.265 81.7042C178.925 74.5441 178.481 66.8696 179.728 59.7206C181.811 47.8032 189.01 41.8613 197.364 38.9316C209.385 34.709 221.806 34.3766 233.742 33.2231C250.069 31.6384 266.571 30.4069 282.891 26.5878C293.863 24.011 305.459 21.0815 314.454 9.66845C320.589 1.88521 325.571 -7.4072 330.018 -16.7874C339.549 -36.9015 348.085 -52.5948 363.31 -66.5261C388.328 -89.3811 417.516 -105.306 445.417 -116.057C467.314 -124.494 501.716 -137.334 515.472 -112.06C527.826 -89.4052 525.808 -57.0167 527.423 -28.5862C528.209 -14.7643 530.102 -1.32882 534.065 10.8568C539.063 26.2188 546.018 36.0233 556.343 45.1092C573.719 60.4027 601.402 80.3945 591.358 117.035C587.652 130.557 580.41 142.21 575.621 155.193C569.271 172.347 566.828 189.13 565.113 206.965Z" stroke="#9C4DF4" stroke-opacity="0.07"/>
<path fill-rule="evenodd" clip-rule="evenodd" d="M554.953 198.538C547.313 234.515 538.075 280.126 507.161 295.423C492.187 302.834 476.575 301.972 462.26 299.495C452.005 297.724 438.214 289.755 427.187 298.483C419.079 304.91 412.549 316.995 404.488 324.314C393.408 334.378 381.059 340.44 368.635 343.279C336.267 350.681 303.988 339.871 277.157 324.617C218.863 291.464 182.803 209.59 186.921 118.75C188.146 91.6709 187.436 61.4571 212.132 49.9995C239.085 37.5086 267.989 42.9098 294.714 39.2706C304.923 37.8849 317.712 36.5758 327.238 27.8733C332.966 22.6434 337.306 14.1138 341.079 6.60551C350.699 -12.5111 360.183 -29.1266 374.184 -43.4906C395.814 -65.6919 421.264 -82.3759 446.205 -93.2114C467.955 -102.659 496.748 -111.526 509.067 -85.3583C518.501 -65.2713 517.174 -37.398 520.635 -13.7819C524.48 12.513 534.054 35.059 548.083 52.5408C561.737 69.5317 577.868 85.7765 574.888 115.797C573.866 126.094 571.801 138.915 568.501 148.814C563.022 165.108 558.491 181.737 554.953 198.538V198.538Z" stroke="#9C4DF4" stroke-opacity="0.07"/>
<path fill-rule="evenodd" clip-rule="evenodd" d="M543.169 190.097C531.46 223.665 516.103 256.491 488.518 270.256C475.646 276.676 462.447 278.434 449.513 279.353C439.997 280.029 430.667 279.699 421.215 285.059C412.461 290.019 404.207 297.1 395.512 302.391C384.018 309.421 372.06 314.119 360.096 316.303C330.126 321.739 300.761 313.671 275.368 300.359C263.073 293.922 250.157 286.066 240.723 273.921C231.61 262.196 223.763 248.193 217.199 233.653C203.239 202.76 195.738 166.467 196.376 127.579C196.817 100.907 201.272 77.7563 223.261 65.5925C248.05 51.8832 275.566 53.8866 300.416 51.046C317.459 49.0977 335.862 48.3607 348.683 28.0448C358.887 11.8804 368.326 -3.63208 380.919 -16.8732C399.555 -36.3615 420.34 -51.3171 442.04 -60.8527C461.853 -69.5086 483.547 -73.4795 495.986 -52.9401C505.835 -36.6547 508.451 -13.6163 514.557 5.78357C521.35 27.4317 532.172 44.2604 544.411 60.2375C555.401 74.6161 564.287 91.1797 564.966 113.772C565.107 118.39 565.193 123.371 564.733 128.11C564.145 134.157 561.693 138.859 559.418 144.518C553.4 159.447 548.47 174.906 543.169 190.097Z" stroke="#9C4DF4" stroke-opacity="0.07"/>
<path fill-rule="evenodd" clip-rule="evenodd" d="M528.827 183.587C514.208 213.054 495.802 237.729 471.316 251.641C460.845 257.595 450.111 261.041 439.469 265.772C430.895 269.591 422.848 273.084 414.14 275.094C393.494 279.838 373.401 290.555 352.647 293.14C324.929 296.617 298.039 290.54 274.042 278.953C262.324 273.296 250.824 266.2 240.864 256.552C232.31 248.267 226.31 235.793 221.032 223.626C210.683 199.786 203.356 171.005 203.578 141.156C204.068 75.3483 267.744 71.2797 301.686 66.5827C317.297 64.4202 339.416 64.7079 353.181 48.5632C363.017 37.0311 371.716 24.4019 382.268 13.9306C410.607 -14.1895 453.382 -40.7337 480.598 -14.4464C492.246 -3.20129 499.22 14.5871 508.02 29.3761C517.081 44.6058 527.975 57.1345 538.781 70.0899C548.881 82.1952 555.77 94.2477 556.415 114.237C556.726 123.785 552.354 131.935 548.537 140.746C542.263 155.216 535.745 169.625 528.827 183.587Z" stroke="#9C4DF4" stroke-opacity="0.07"/>
<path fill-rule="evenodd" clip-rule="evenodd" d="M515.06 179.136C488.622 220.59 447.154 257.132 408.34 264.988C362.683 274.229 316.787 276.86 276.315 258.758C257.551 250.365 237.998 239.1 227.282 216.713C219.123 199.681 211.021 177.051 212.933 154.426C217.606 99.081 271.279 89.559 302.051 83.7349C318.618 80.6 338.13 79.8737 354.349 69.7833C363.757 63.935 372.193 53.4279 381.089 46.0122C408.049 23.54 439.93 12.4219 466.833 25.091C479.27 30.9507 489.573 41.4622 499.956 51.3351C510.586 61.4404 521.816 70.7013 531.979 81.5737C540.091 90.2543 549.078 101.669 545.479 118.503C540.946 139.717 525.855 162.206 515.06 179.136Z" stroke="#9C4DF4" stroke-opacity="0.07"/>
<path fill-rule="evenodd" clip-rule="evenodd" d="M499.879 178.238C472.532 215.49 437.849 246.291 400.751 254.168C381.078 258.345 361.27 256.922 342.129 255.814C320.433 254.555 299.101 250.474 279.342 242.104C254.74 231.686 216.609 211.265 222.944 166.099C229.233 121.269 274.105 108.767 300.302 102.075C317.093 97.7937 334.186 95.0274 351.021 89.2963C360.15 86.19 368.495 81.0783 377.334 76.1437C401.79 62.4484 429.629 57.4681 453.745 61.2081C477.12 64.8309 502.43 76.7785 520.811 93.6299C528.745 100.895 532.7 109.639 529.109 124.238C524.105 144.525 511.178 162.851 499.879 178.238Z" stroke="#9C4DF4" stroke-opacity="0.07"/>
<path fill-rule="evenodd" clip-rule="evenodd" d="M482.775 181.539C457.904 213.79 426.527 237.259 393.869 244.357C357.259 252.314 318.937 244.305 286.462 231.255C269.202 224.314 230.814 211.312 236.969 176.822C243.123 142.333 279.719 129.451 300.435 122.755C325.564 114.656 351.617 108.075 377.021 102.784C399.098 98.1769 422.334 93.9258 444.009 93.5663C456.252 93.3256 468.295 94.5446 479.997 97.2087C488.65 99.2057 499.971 101.088 506.455 108.538C522.808 127.336 494.667 166.119 482.775 181.539Z" stroke="#9C4DF4" stroke-opacity="0.07"/>
<path fill-rule="evenodd" clip-rule="evenodd" d="M463.051 182.709C413.908 242.241 348.839 243.243 296.417 223.031C284.237 218.331 249.012 207.393 253.301 181.794C257.463 156.976 288.017 145.256 302.389 139.631C346.921 122.2 393.314 118.522 437.833 113.882C451.729 112.434 478.259 106.784 486.522 123.564C495.487 141.799 473.239 170.363 463.051 182.709Z" stroke="#9C4DF4" stroke-opacity="0.07"/>
<path fill-rule="evenodd" clip-rule="evenodd" d="M440.882 185.379C402.656 227.812 349.701 230.696 309.448 215.886C299.59 212.257 273.891 204.408 274.257 185.445C274.593 167.901 298.48 158.658 307.634 154.752C328.014 146.05 349.185 141.911 369.918 138.198C389.092 134.757 408.559 131.1 427.486 130.064C437.453 129.522 456.842 127.065 460.953 141.385C465.383 156.796 449.37 175.956 440.882 185.379Z" stroke="#9C4DF4" stroke-opacity="0.07"/>
<path fill-rule="evenodd" clip-rule="evenodd" d="M416.346 188.537C389.933 215.245 352.23 218.38 324.786 209.11C317.403 206.611 301.038 202.056 299.955 189.298C298.96 177.55 312.891 170.967 319.18 167.826C347.052 153.905 381.004 147.73 408.869 148.785C415.875 149.051 428.743 148.962 430.898 159.692C433.105 170.707 422.412 182.405 416.346 188.537Z" stroke="#9C4DF4" stroke-opacity="0.07"/>
<path fill-rule="evenodd" clip-rule="evenodd" d="M391.212 190.049C377.418 202.843 356.4 205.159 342.101 200.636C332.039 197.45 322.765 187.781 337.383 178.45C351.897 169.195 372.247 165.647 386.916 167.978C398.106 169.759 403.059 179.059 391.212 190.049Z" stroke="#9C4DF4" stroke-opacity="0.07"/>
</g>
</svg>
