<svg width="185" height="104" viewBox="0 0 185 104" fill="none" xmlns="http://www.w3.org/2000/svg">
<path d="M176.178 1.50575L177.536 1.50575L177.536 3.80175L179.86 3.80175L179.86 5.20175L177.536 5.20175L177.536 7.49775L176.178 7.49775L176.178 5.20175L173.77 5.20175L173.77 3.80175L176.178 3.80175L176.178 1.50575Z" fill="#9C4DF4" fill-opacity="0.3"/>
<path d="M176.178 20.5057L177.536 20.5057L177.536 22.8017L179.86 22.8017L179.86 24.2017L177.536 24.2017L177.536 26.4978L176.178 26.4978L176.178 24.2017L173.77 24.2017L173.77 22.8017L176.178 22.8017L176.178 20.5057Z" fill="#9C4DF4" fill-opacity="0.3"/>
<path d="M176.178 39.5057L177.536 39.5057L177.536 41.8017L179.86 41.8017L179.86 43.2017L177.536 43.2017L177.536 45.4978L176.178 45.4978L176.178 43.2017L173.77 43.2017L173.77 41.8017L176.178 41.8017L176.178 39.5057Z" fill="#9C4DF4" fill-opacity="0.3"/>
<path d="M176.178 58.5057L177.536 58.5057L177.536 60.8017L179.86 60.8017L179.86 62.2017L177.536 62.2017L177.536 64.4978L176.178 64.4978L176.178 62.2017L173.77 62.2017L173.77 60.8017L176.178 60.8017L176.178 58.5057Z" fill="#9C4DF4" fill-opacity="0.3"/>
<path d="M176.178 77.5057L177.536 77.5057L177.536 79.8017L179.86 79.8017L179.86 81.2017L177.536 81.2017L177.536 83.4978L176.178 83.4978L176.178 81.2017L173.77 81.2017L173.77 79.8017L176.178 79.8017L176.178 77.5057Z" fill="#9C4DF4" fill-opacity="0.3"/>
<path d="M176.178 96.5057L177.536 96.5057L177.536 98.8017L179.86 98.8017L179.86 100.202L177.536 100.202L177.536 102.498L176.178 102.498L176.178 100.202L173.77 100.202L173.77 98.8017L176.178 98.8017L176.178 96.5057Z" fill="#9C4DF4" fill-opacity="0.3"/>
<path d="M157.178 1.50575L158.536 1.50575L158.536 3.80175L160.86 3.80175L160.86 5.20175L158.536 5.20175L158.536 7.49775L157.178 7.49775L157.178 5.20175L154.77 5.20175L154.77 3.80175L157.178 3.80175L157.178 1.50575Z" fill="#9C4DF4" fill-opacity="0.3"/>
<path d="M157.178 20.5057L158.536 20.5057L158.536 22.8017L160.86 22.8017L160.86 24.2017L158.536 24.2017L158.536 26.4978L157.178 26.4978L157.178 24.2017L154.77 24.2017L154.77 22.8017L157.178 22.8017L157.178 20.5057Z" fill="#9C4DF4" fill-opacity="0.3"/>
<path d="M157.178 39.5057L158.536 39.5057L158.536 41.8017L160.86 41.8017L160.86 43.2017L158.536 43.2017L158.536 45.4978L157.178 45.4978L157.178 43.2017L154.77 43.2017L154.77 41.8017L157.178 41.8017L157.178 39.5057Z" fill="#9C4DF4" fill-opacity="0.3"/>
<path d="M157.178 58.5057L158.536 58.5057L158.536 60.8017L160.86 60.8017L160.86 62.2017L158.536 62.2017L158.536 64.4978L157.178 64.4978L157.178 62.2017L154.77 62.2017L154.77 60.8017L157.178 60.8017L157.178 58.5057Z" fill="#9C4DF4" fill-opacity="0.3"/>
<path d="M157.178 77.5057L158.536 77.5057L158.536 79.8017L160.86 79.8017L160.86 81.2017L158.536 81.2017L158.536 83.4978L157.178 83.4978L157.178 81.2017L154.77 81.2017L154.77 79.8017L157.178 79.8017L157.178 77.5057Z" fill="#9C4DF4" fill-opacity="0.3"/>
<path d="M157.178 96.5057L158.536 96.5057L158.536 98.8017L160.86 98.8017L160.86 100.202L158.536 100.202L158.536 102.498L157.178 102.498L157.178 100.202L154.77 100.202L154.77 98.8017L157.178 98.8017L157.178 96.5057Z" fill="#9C4DF4" fill-opacity="0.3"/>
<path d="M138.178 1.50575L139.536 1.50575L139.536 3.80175L141.86 3.80175L141.86 5.20175L139.536 5.20175L139.536 7.49775L138.178 7.49775L138.178 5.20175L135.77 5.20175L135.77 3.80175L138.178 3.80175L138.178 1.50575Z" fill="#9C4DF4" fill-opacity="0.3"/>
<path d="M138.178 20.5057L139.536 20.5057L139.536 22.8017L141.86 22.8017L141.86 24.2017L139.536 24.2017L139.536 26.4978L138.178 26.4978L138.178 24.2017L135.77 24.2017L135.77 22.8017L138.178 22.8017L138.178 20.5057Z" fill="#9C4DF4" fill-opacity="0.3"/>
<path d="M138.178 39.5057L139.536 39.5057L139.536 41.8017L141.86 41.8017L141.86 43.2017L139.536 43.2017L139.536 45.4978L138.178 45.4978L138.178 43.2017L135.77 43.2017L135.77 41.8017L138.178 41.8017L138.178 39.5057Z" fill="#9C4DF4" fill-opacity="0.3"/>
<path d="M138.178 58.5057L139.536 58.5057L139.536 60.8017L141.86 60.8017L141.86 62.2017L139.536 62.2017L139.536 64.4978L138.178 64.4978L138.178 62.2017L135.77 62.2017L135.77 60.8017L138.178 60.8017L138.178 58.5057Z" fill="#9C4DF4" fill-opacity="0.3"/>
<path d="M138.178 77.5057L139.536 77.5057L139.536 79.8017L141.86 79.8017L141.86 81.2017L139.536 81.2017L139.536 83.4978L138.178 83.4978L138.178 81.2017L135.77 81.2017L135.77 79.8017L138.178 79.8017L138.178 77.5057Z" fill="#9C4DF4" fill-opacity="0.3"/>
<path d="M138.178 96.5057L139.536 96.5057L139.536 98.8017L141.86 98.8017L141.86 100.202L139.536 100.202L139.536 102.498L138.178 102.498L138.178 100.202L135.77 100.202L135.77 98.8017L138.178 98.8017L138.178 96.5057Z" fill="#9C4DF4" fill-opacity="0.3"/>
<path d="M119.178 1.50575L120.536 1.50575L120.536 3.80175L122.86 3.80175L122.86 5.20175L120.536 5.20175L120.536 7.49775L119.178 7.49775L119.178 5.20175L116.77 5.20175L116.77 3.80175L119.178 3.80175L119.178 1.50575Z" fill="#9C4DF4" fill-opacity="0.3"/>
<path d="M119.178 20.5057L120.536 20.5057L120.536 22.8017L122.86 22.8017L122.86 24.2017L120.536 24.2017L120.536 26.4978L119.178 26.4978L119.178 24.2017L116.77 24.2017L116.77 22.8017L119.178 22.8017L119.178 20.5057Z" fill="#9C4DF4" fill-opacity="0.3"/>
<path d="M119.178 39.5057L120.536 39.5057L120.536 41.8017L122.86 41.8017L122.86 43.2017L120.536 43.2017L120.536 45.4978L119.178 45.4978L119.178 43.2017L116.77 43.2017L116.77 41.8017L119.178 41.8017L119.178 39.5057Z" fill="#9C4DF4" fill-opacity="0.3"/>
<path d="M119.178 58.5057L120.536 58.5057L120.536 60.8017L122.86 60.8017L122.86 62.2017L120.536 62.2017L120.536 64.4978L119.178 64.4978L119.178 62.2017L116.77 62.2017L116.77 60.8017L119.178 60.8017L119.178 58.5057Z" fill="#9C4DF4" fill-opacity="0.3"/>
<path d="M119.178 77.5057L120.536 77.5057L120.536 79.8017L122.86 79.8017L122.86 81.2017L120.536 81.2017L120.536 83.4978L119.178 83.4978L119.178 81.2017L116.77 81.2017L116.77 79.8017L119.178 79.8017L119.178 77.5057Z" fill="#9C4DF4" fill-opacity="0.3"/>
<path d="M119.178 96.5057L120.536 96.5057L120.536 98.8017L122.86 98.8017L122.86 100.202L120.536 100.202L120.536 102.498L119.178 102.498L119.178 100.202L116.77 100.202L116.77 98.8017L119.178 98.8017L119.178 96.5057Z" fill="#9C4DF4" fill-opacity="0.3"/>
<path d="M100.178 1.50575L101.536 1.50575L101.536 3.80175L103.86 3.80175L103.86 5.20175L101.536 5.20175L101.536 7.49775L100.178 7.49775L100.178 5.20175L97.77 5.20175L97.77 3.80175L100.178 3.80175L100.178 1.50575Z" fill="#9C4DF4" fill-opacity="0.3"/>
<path d="M100.178 20.5057L101.536 20.5057L101.536 22.8017L103.86 22.8017L103.86 24.2017L101.536 24.2017L101.536 26.4978L100.178 26.4978L100.178 24.2017L97.77 24.2017L97.77 22.8017L100.178 22.8017L100.178 20.5057Z" fill="#9C4DF4" fill-opacity="0.3"/>
<path d="M100.178 39.5057L101.536 39.5057L101.536 41.8017L103.86 41.8017L103.86 43.2017L101.536 43.2017L101.536 45.4978L100.178 45.4978L100.178 43.2017L97.77 43.2017L97.77 41.8017L100.178 41.8017L100.178 39.5057Z" fill="#9C4DF4" fill-opacity="0.3"/>
<path d="M100.178 58.5057L101.536 58.5057L101.536 60.8017L103.86 60.8017L103.86 62.2017L101.536 62.2017L101.536 64.4978L100.178 64.4978L100.178 62.2017L97.77 62.2017L97.77 60.8017L100.178 60.8017L100.178 58.5057Z" fill="#9C4DF4" fill-opacity="0.3"/>
<path d="M100.178 77.5057L101.536 77.5057L101.536 79.8017L103.86 79.8017L103.86 81.2017L101.536 81.2017L101.536 83.4978L100.178 83.4978L100.178 81.2017L97.77 81.2017L97.77 79.8017L100.178 79.8017L100.178 77.5057Z" fill="#9C4DF4" fill-opacity="0.3"/>
<path d="M100.178 96.5057L101.536 96.5057L101.536 98.8017L103.86 98.8017L103.86 100.202L101.536 100.202L101.536 102.498L100.178 102.498L100.178 100.202L97.77 100.202L97.77 98.8017L100.178 98.8017L100.178 96.5057Z" fill="#9C4DF4" fill-opacity="0.3"/>
<path d="M81.178 1.50575L82.536 1.50575L82.536 3.80175L84.86 3.80175L84.86 5.20175L82.536 5.20175L82.536 7.49775L81.178 7.49775L81.178 5.20175L78.77 5.20175L78.77 3.80175L81.178 3.80175L81.178 1.50575Z" fill="#9C4DF4" fill-opacity="0.3"/>
<path d="M81.178 20.5057L82.536 20.5057L82.536 22.8017L84.86 22.8017L84.86 24.2017L82.536 24.2017L82.536 26.4978L81.178 26.4978L81.178 24.2017L78.77 24.2017L78.77 22.8017L81.178 22.8017L81.178 20.5057Z" fill="#9C4DF4" fill-opacity="0.3"/>
<path d="M81.178 39.5057L82.536 39.5057L82.536 41.8017L84.86 41.8017L84.86 43.2017L82.536 43.2017L82.536 45.4978L81.178 45.4978L81.178 43.2017L78.77 43.2017L78.77 41.8017L81.178 41.8017L81.178 39.5057Z" fill="#9C4DF4" fill-opacity="0.3"/>
<path d="M81.178 58.5057L82.536 58.5057L82.536 60.8017L84.86 60.8017L84.86 62.2017L82.536 62.2017L82.536 64.4978L81.178 64.4978L81.178 62.2017L78.77 62.2017L78.77 60.8017L81.178 60.8017L81.178 58.5057Z" fill="#9C4DF4" fill-opacity="0.3"/>
<path d="M81.178 77.5057L82.536 77.5057L82.536 79.8017L84.86 79.8017L84.86 81.2017L82.536 81.2017L82.536 83.4978L81.178 83.4978L81.178 81.2017L78.77 81.2017L78.77 79.8017L81.178 79.8017L81.178 77.5057Z" fill="#9C4DF4" fill-opacity="0.3"/>
<path d="M81.178 96.5057L82.536 96.5057L82.536 98.8017L84.86 98.8017L84.86 100.202L82.536 100.202L82.536 102.498L81.178 102.498L81.178 100.202L78.77 100.202L78.77 98.8017L81.178 98.8017L81.178 96.5057Z" fill="#9C4DF4" fill-opacity="0.3"/>
<path d="M62.178 1.50575L63.536 1.50575L63.536 3.80175L65.86 3.80175L65.86 5.20175L63.536 5.20175L63.536 7.49775L62.178 7.49775L62.178 5.20175L59.77 5.20175L59.77 3.80175L62.178 3.80175L62.178 1.50575Z" fill="#9C4DF4" fill-opacity="0.3"/>
<path d="M62.178 20.5057L63.536 20.5057L63.536 22.8017L65.86 22.8017L65.86 24.2017L63.536 24.2017L63.536 26.4978L62.178 26.4978L62.178 24.2017L59.77 24.2017L59.77 22.8017L62.178 22.8017L62.178 20.5057Z" fill="#9C4DF4" fill-opacity="0.3"/>
<path d="M62.178 39.5057L63.536 39.5057L63.536 41.8017L65.86 41.8017L65.86 43.2017L63.536 43.2017L63.536 45.4978L62.178 45.4978L62.178 43.2017L59.77 43.2017L59.77 41.8017L62.178 41.8017L62.178 39.5057Z" fill="#9C4DF4" fill-opacity="0.3"/>
<path d="M62.178 58.5057L63.536 58.5057L63.536 60.8017L65.86 60.8017L65.86 62.2017L63.536 62.2017L63.536 64.4978L62.178 64.4978L62.178 62.2017L59.77 62.2017L59.77 60.8017L62.178 60.8017L62.178 58.5057Z" fill="#9C4DF4" fill-opacity="0.3"/>
<path d="M62.178 77.5057L63.536 77.5057L63.536 79.8017L65.86 79.8017L65.86 81.2017L63.536 81.2017L63.536 83.4978L62.178 83.4978L62.178 81.2017L59.77 81.2017L59.77 79.8017L62.178 79.8017L62.178 77.5057Z" fill="#9C4DF4" fill-opacity="0.3"/>
<path d="M62.178 96.5057L63.536 96.5057L63.536 98.8017L65.86 98.8017L65.86 100.202L63.536 100.202L63.536 102.498L62.178 102.498L62.178 100.202L59.77 100.202L59.77 98.8017L62.178 98.8017L62.178 96.5057Z" fill="#9C4DF4" fill-opacity="0.3"/>
<path d="M43.178 1.50575L44.536 1.50575L44.536 3.80175L46.86 3.80175L46.86 5.20175L44.536 5.20175L44.536 7.49775L43.178 7.49775L43.178 5.20175L40.77 5.20175L40.77 3.80175L43.178 3.80175L43.178 1.50575Z" fill="#9C4DF4" fill-opacity="0.3"/>
<path d="M43.178 20.5057L44.536 20.5057L44.536 22.8017L46.86 22.8017L46.86 24.2017L44.536 24.2017L44.536 26.4978L43.178 26.4978L43.178 24.2017L40.77 24.2017L40.77 22.8017L43.178 22.8017L43.178 20.5057Z" fill="#9C4DF4" fill-opacity="0.3"/>
<path d="M43.178 39.5057L44.536 39.5057L44.536 41.8017L46.86 41.8017L46.86 43.2017L44.536 43.2017L44.536 45.4978L43.178 45.4978L43.178 43.2017L40.77 43.2017L40.77 41.8017L43.178 41.8017L43.178 39.5057Z" fill="#9C4DF4" fill-opacity="0.3"/>
<path d="M43.178 58.5057L44.536 58.5057L44.536 60.8017L46.86 60.8017L46.86 62.2017L44.536 62.2017L44.536 64.4978L43.178 64.4978L43.178 62.2017L40.77 62.2017L40.77 60.8017L43.178 60.8017L43.178 58.5057Z" fill="#9C4DF4" fill-opacity="0.3"/>
<path d="M43.178 77.5057L44.536 77.5057L44.536 79.8017L46.86 79.8017L46.86 81.2017L44.536 81.2017L44.536 83.4978L43.178 83.4978L43.178 81.2017L40.77 81.2017L40.77 79.8017L43.178 79.8017L43.178 77.5057Z" fill="#9C4DF4" fill-opacity="0.3"/>
<path d="M43.178 96.5057L44.536 96.5057L44.536 98.8017L46.86 98.8017L46.86 100.202L44.536 100.202L44.536 102.498L43.178 102.498L43.178 100.202L40.77 100.202L40.77 98.8017L43.178 98.8017L43.178 96.5057Z" fill="#9C4DF4" fill-opacity="0.3"/>
<path d="M24.178 1.50575L25.536 1.50575L25.536 3.80175L27.86 3.80175L27.86 5.20175L25.536 5.20175L25.536 7.49775L24.178 7.49775L24.178 5.20175L21.77 5.20175L21.77 3.80175L24.178 3.80175L24.178 1.50575Z" fill="#9C4DF4" fill-opacity="0.3"/>
<path d="M24.178 20.5057L25.536 20.5057L25.536 22.8017L27.86 22.8017L27.86 24.2017L25.536 24.2017L25.536 26.4978L24.178 26.4978L24.178 24.2017L21.77 24.2017L21.77 22.8017L24.178 22.8017L24.178 20.5057Z" fill="#9C4DF4" fill-opacity="0.3"/>
<path d="M24.178 39.5057L25.536 39.5057L25.536 41.8017L27.86 41.8017L27.86 43.2017L25.536 43.2017L25.536 45.4978L24.178 45.4978L24.178 43.2017L21.77 43.2017L21.77 41.8017L24.178 41.8017L24.178 39.5057Z" fill="#9C4DF4" fill-opacity="0.3"/>
<path d="M24.178 58.5057L25.536 58.5057L25.536 60.8017L27.86 60.8017L27.86 62.2017L25.536 62.2017L25.536 64.4978L24.178 64.4978L24.178 62.2017L21.77 62.2017L21.77 60.8017L24.178 60.8017L24.178 58.5057Z" fill="#9C4DF4" fill-opacity="0.3"/>
<path d="M24.178 77.5057L25.536 77.5057L25.536 79.8017L27.86 79.8017L27.86 81.2017L25.536 81.2017L25.536 83.4978L24.178 83.4978L24.178 81.2017L21.77 81.2017L21.77 79.8017L24.178 79.8017L24.178 77.5057Z" fill="#9C4DF4" fill-opacity="0.3"/>
<path d="M24.178 96.5057L25.536 96.5057L25.536 98.8017L27.86 98.8017L27.86 100.202L25.536 100.202L25.536 102.498L24.178 102.498L24.178 100.202L21.77 100.202L21.77 98.8017L24.178 98.8017L24.178 96.5057Z" fill="#9C4DF4" fill-opacity="0.3"/>
<path d="M5.178 1.50575L6.536 1.50575L6.536 3.80175L8.86 3.80175L8.86 5.20175L6.536 5.20175L6.536 7.49775L5.178 7.49775L5.178 5.20175L2.77 5.20175L2.77 3.80175L5.178 3.80175L5.178 1.50575Z" fill="#9C4DF4" fill-opacity="0.3"/>
<path d="M5.178 20.5057L6.536 20.5057L6.536 22.8017L8.86 22.8017L8.86 24.2017L6.536 24.2017L6.536 26.4978L5.178 26.4978L5.178 24.2017L2.77 24.2017L2.77 22.8017L5.178 22.8017L5.178 20.5057Z" fill="#9C4DF4" fill-opacity="0.3"/>
<path d="M5.178 39.5057L6.536 39.5057L6.536 41.8017L8.86 41.8017L8.86 43.2017L6.536 43.2017L6.536 45.4978L5.178 45.4978L5.178 43.2017L2.77 43.2017L2.77 41.8017L5.178 41.8017L5.178 39.5057Z" fill="#9C4DF4" fill-opacity="0.3"/>
<path d="M5.178 58.5057L6.536 58.5057L6.536 60.8017L8.86 60.8017L8.86 62.2017L6.536 62.2017L6.536 64.4978L5.178 64.4978L5.178 62.2017L2.77 62.2017L2.77 60.8017L5.178 60.8017L5.178 58.5057Z" fill="#9C4DF4" fill-opacity="0.3"/>
<path d="M5.178 77.5057L6.536 77.5057L6.536 79.8017L8.86 79.8017L8.86 81.2017L6.536 81.2017L6.536 83.4978L5.178 83.4978L5.178 81.2017L2.77 81.2017L2.77 79.8017L5.178 79.8017L5.178 77.5057Z" fill="#9C4DF4" fill-opacity="0.3"/>
<path d="M5.178 96.5057L6.536 96.5057L6.536 98.8017L8.86 98.8017L8.86 100.202L6.536 100.202L6.536 102.498L5.178 102.498L5.178 100.202L2.77 100.202L2.77 98.8017L5.178 98.8017L5.178 96.5057Z" fill="#9C4DF4" fill-opacity="0.3"/>
</svg>
