<svg width="18" height="15" viewBox="0 0 18 15" fill="none" xmlns="http://www.w3.org/2000/svg">
<g clip-path="url(#clip0_44_6658)">
<path d="M5.98623 14.3919C12.3258 14.3919 15.7927 9.22992 15.7927 4.75367C15.7927 4.60705 15.7896 4.4611 15.7829 4.3158C16.4559 3.83765 17.0408 3.24096 17.5022 2.56169C16.8846 2.83148 16.2201 3.0131 15.5229 3.09499C16.2345 2.67562 16.7808 2.01222 17.0385 1.22137C16.3726 1.60938 15.6351 1.89138 14.8499 2.04363C14.221 1.3852 13.3256 0.973381 12.3341 0.973381C10.4308 0.973381 8.88732 2.49042 8.88732 4.36038C8.88732 4.6262 8.91755 4.88476 8.97669 5.13277C6.11215 4.99111 3.57209 3.64316 1.87214 1.59352C1.57614 2.09413 1.40546 2.67563 1.40546 3.29611C1.40546 4.47135 2.01394 5.50886 2.93923 6.11582C2.37377 6.09865 1.84257 5.94608 1.37829 5.69215C1.37779 5.70636 1.37778 5.72022 1.37778 5.73541C1.37778 7.37594 2.56582 8.74565 4.14288 9.05603C3.85327 9.13363 3.54855 9.17523 3.23406 9.17523C3.01231 9.17523 2.79627 9.15378 2.58628 9.11415C3.02507 10.4601 4.29745 11.4395 5.80596 11.4669C4.62633 12.3756 3.14031 12.9169 1.52526 12.9169C1.2474 12.9169 0.972904 12.9014 0.703125 12.87C2.22849 13.8309 4.03972 14.3916 5.98641 14.3916" fill="#0A033C"/>
</g>
<defs>
<clipPath id="clip0_44_6658">
<rect width="16.9116" height="13.5293" fill="white" transform="translate(0.646484 0.918457)"/>
</clipPath>
</defs>
</svg>
