<svg width="375" height="113" viewBox="0 0 375 113" fill="none" xmlns="http://www.w3.org/2000/svg">
<rect width="375" height="113" rx="10" fill="#EFEBF5"/>
<mask id="mask0_44_6688" style="mask-type:alpha" maskUnits="userSpaceOnUse" x="0" y="0" width="375" height="113">
<rect width="375" height="113" rx="10" fill="#EFEBF5"/>
</mask>
<g mask="url(#mask0_44_6688)">
<path d="M337.45 -0.0191405L338.808 -0.0191405L338.808 2.27686L341.132 2.27686L341.132 3.67686L338.808 3.67686L338.808 5.97286L337.45 5.97286L337.45 3.67686L335.042 3.67686L335.042 2.27686L337.45 2.27686L337.45 -0.0191405Z" fill="#9C4DF4" fill-opacity="0.15"/>
<path d="M337.45 9.66281L338.808 9.66281L338.808 11.9588L341.132 11.9588L341.132 13.3588L338.808 13.3588L338.808 15.6548L337.45 15.6548L337.45 13.3588L335.042 13.3588L335.042 11.9588L337.45 11.9588L337.45 9.66281Z" fill="#9C4DF4" fill-opacity="0.15"/>
<path d="M337.45 19.3448L338.808 19.3448L338.808 21.6408L341.132 21.6408L341.132 23.0408L338.808 23.0408L338.808 25.3368L337.45 25.3368L337.45 23.0408L335.042 23.0408L335.042 21.6408L337.45 21.6408L337.45 19.3448Z" fill="#9C4DF4" fill-opacity="0.15"/>
<path d="M337.45 29.0268L338.808 29.0268L338.808 31.3228L341.132 31.3228L341.132 32.7228L338.808 32.7228L338.808 35.0188L337.45 35.0188L337.45 32.7228L335.042 32.7228L335.042 31.3228L337.45 31.3228L337.45 29.0268Z" fill="#9C4DF4" fill-opacity="0.15"/>
<path d="M337.45 38.7088L338.808 38.7088L338.808 41.0048L341.132 41.0048L341.132 42.4048L338.808 42.4048L338.808 44.7008L337.45 44.7008L337.45 42.4048L335.042 42.4048L335.042 41.0048L337.45 41.0048L337.45 38.7088Z" fill="#9C4DF4" fill-opacity="0.15"/>
<path d="M337.45 48.3908L338.808 48.3908L338.808 50.6868L341.132 50.6868L341.132 52.0868L338.808 52.0868L338.808 54.3828L337.45 54.3828L337.45 52.0868L335.042 52.0868L335.042 50.6868L337.45 50.6868L337.45 48.3908Z" fill="#9C4DF4" fill-opacity="0.15"/>
<path d="M337.45 58.0728L338.808 58.0728L338.808 60.3688L341.132 60.3688L341.132 61.7688L338.808 61.7688L338.808 64.0648L337.45 64.0648L337.45 61.7688L335.042 61.7688L335.042 60.3688L337.45 60.3688L337.45 58.0728Z" fill="#9C4DF4" fill-opacity="0.15"/>
<path d="M337.45 67.7548L338.808 67.7548L338.808 70.0508L341.132 70.0508L341.132 71.4508L338.808 71.4508L338.808 73.7468L337.45 73.7468L337.45 71.4508L335.042 71.4508L335.042 70.0508L337.45 70.0508L337.45 67.7548Z" fill="#9C4DF4" fill-opacity="0.15"/>
<path d="M337.45 77.4368L338.808 77.4368L338.808 79.7328L341.132 79.7328L341.132 81.1328L338.808 81.1328L338.808 83.4288L337.45 83.4288L337.45 81.1328L335.042 81.1328L335.042 79.7328L337.45 79.7328L337.45 77.4368Z" fill="#9C4DF4" fill-opacity="0.15"/>
<path d="M327.768 -0.0191405L329.126 -0.0191405L329.126 2.27686L331.45 2.27686L331.45 3.67686L329.126 3.67686L329.126 5.97286L327.768 5.97286L327.768 3.67686L325.36 3.67686L325.36 2.27686L327.768 2.27686L327.768 -0.0191405Z" fill="#9C4DF4" fill-opacity="0.15"/>
<path d="M327.768 9.66281L329.126 9.66281L329.126 11.9588L331.45 11.9588L331.45 13.3588L329.126 13.3588L329.126 15.6548L327.768 15.6548L327.768 13.3588L325.36 13.3588L325.36 11.9588L327.768 11.9588L327.768 9.66281Z" fill="#9C4DF4" fill-opacity="0.15"/>
<path d="M327.768 19.3448L329.126 19.3448L329.126 21.6408L331.45 21.6408L331.45 23.0408L329.126 23.0408L329.126 25.3368L327.768 25.3368L327.768 23.0408L325.36 23.0408L325.36 21.6408L327.768 21.6408L327.768 19.3448Z" fill="#9C4DF4" fill-opacity="0.15"/>
<path d="M327.768 29.0268L329.126 29.0268L329.126 31.3228L331.45 31.3228L331.45 32.7228L329.126 32.7228L329.126 35.0188L327.768 35.0188L327.768 32.7228L325.36 32.7228L325.36 31.3228L327.768 31.3228L327.768 29.0268Z" fill="#9C4DF4" fill-opacity="0.15"/>
<path d="M327.768 38.7088L329.126 38.7088L329.126 41.0048L331.45 41.0048L331.45 42.4048L329.126 42.4048L329.126 44.7008L327.768 44.7008L327.768 42.4048L325.36 42.4048L325.36 41.0048L327.768 41.0048L327.768 38.7088Z" fill="#9C4DF4" fill-opacity="0.15"/>
<path d="M327.768 48.3908L329.126 48.3908L329.126 50.6868L331.45 50.6868L331.45 52.0868L329.126 52.0868L329.126 54.3828L327.768 54.3828L327.768 52.0868L325.36 52.0868L325.36 50.6868L327.768 50.6868L327.768 48.3908Z" fill="#9C4DF4" fill-opacity="0.15"/>
<path d="M327.768 58.0728L329.126 58.0728L329.126 60.3688L331.45 60.3688L331.45 61.7688L329.126 61.7688L329.126 64.0648L327.768 64.0648L327.768 61.7688L325.36 61.7688L325.36 60.3688L327.768 60.3688L327.768 58.0728Z" fill="#9C4DF4" fill-opacity="0.15"/>
<path d="M327.768 67.7548L329.126 67.7548L329.126 70.0508L331.45 70.0508L331.45 71.4508L329.126 71.4508L329.126 73.7468L327.768 73.7468L327.768 71.4508L325.36 71.4508L325.36 70.0508L327.768 70.0508L327.768 67.7548Z" fill="#9C4DF4" fill-opacity="0.15"/>
<path d="M327.768 77.4368L329.126 77.4368L329.126 79.7328L331.45 79.7328L331.45 81.1328L329.126 81.1328L329.126 83.4288L327.768 83.4288L327.768 81.1328L325.36 81.1328L325.36 79.7328L327.768 79.7328L327.768 77.4368Z" fill="#9C4DF4" fill-opacity="0.15"/>
<path d="M318.086 -0.0191405L319.444 -0.0191405L319.444 2.27686L321.768 2.27686L321.768 3.67686L319.444 3.67686L319.444 5.97286L318.086 5.97286L318.086 3.67686L315.678 3.67686L315.678 2.27686L318.086 2.27686L318.086 -0.0191405Z" fill="#9C4DF4" fill-opacity="0.15"/>
<path d="M318.086 9.66281L319.444 9.66281L319.444 11.9588L321.768 11.9588L321.768 13.3588L319.444 13.3588L319.444 15.6548L318.086 15.6548L318.086 13.3588L315.678 13.3588L315.678 11.9588L318.086 11.9588L318.086 9.66281Z" fill="#9C4DF4" fill-opacity="0.15"/>
<path d="M318.086 19.3448L319.444 19.3448L319.444 21.6408L321.768 21.6408L321.768 23.0408L319.444 23.0408L319.444 25.3368L318.086 25.3368L318.086 23.0408L315.678 23.0408L315.678 21.6408L318.086 21.6408L318.086 19.3448Z" fill="#9C4DF4" fill-opacity="0.15"/>
<path d="M318.086 29.0268L319.444 29.0268L319.444 31.3228L321.768 31.3228L321.768 32.7228L319.444 32.7228L319.444 35.0188L318.086 35.0188L318.086 32.7228L315.678 32.7228L315.678 31.3228L318.086 31.3228L318.086 29.0268Z" fill="#9C4DF4" fill-opacity="0.15"/>
<path d="M318.086 38.7088L319.444 38.7088L319.444 41.0048L321.768 41.0048L321.768 42.4048L319.444 42.4048L319.444 44.7008L318.086 44.7008L318.086 42.4048L315.678 42.4048L315.678 41.0048L318.086 41.0048L318.086 38.7088Z" fill="#9C4DF4" fill-opacity="0.15"/>
<path d="M318.086 48.3908L319.444 48.3908L319.444 50.6868L321.768 50.6868L321.768 52.0868L319.444 52.0868L319.444 54.3828L318.086 54.3828L318.086 52.0868L315.678 52.0868L315.678 50.6868L318.086 50.6868L318.086 48.3908Z" fill="#9C4DF4" fill-opacity="0.15"/>
<path d="M318.086 58.0728L319.444 58.0728L319.444 60.3688L321.768 60.3688L321.768 61.7688L319.444 61.7688L319.444 64.0648L318.086 64.0648L318.086 61.7688L315.678 61.7688L315.678 60.3688L318.086 60.3688L318.086 58.0728Z" fill="#9C4DF4" fill-opacity="0.15"/>
<path d="M318.086 67.7548L319.444 67.7548L319.444 70.0508L321.768 70.0508L321.768 71.4508L319.444 71.4508L319.444 73.7468L318.086 73.7468L318.086 71.4508L315.678 71.4508L315.678 70.0508L318.086 70.0508L318.086 67.7548Z" fill="#9C4DF4" fill-opacity="0.15"/>
<path d="M318.086 77.4368L319.444 77.4368L319.444 79.7328L321.768 79.7328L321.768 81.1328L319.444 81.1328L319.444 83.4288L318.086 83.4288L318.086 81.1328L315.678 81.1328L315.678 79.7328L318.086 79.7328L318.086 77.4368Z" fill="#9C4DF4" fill-opacity="0.15"/>
<path d="M308.404 -0.0191405L309.762 -0.0191405L309.762 2.27686L312.086 2.27686L312.086 3.67686L309.762 3.67686L309.762 5.97286L308.404 5.97286L308.404 3.67686L305.996 3.67686L305.996 2.27686L308.404 2.27686L308.404 -0.0191405Z" fill="#9C4DF4" fill-opacity="0.15"/>
<path d="M308.404 9.66281L309.762 9.66281L309.762 11.9588L312.086 11.9588L312.086 13.3588L309.762 13.3588L309.762 15.6548L308.404 15.6548L308.404 13.3588L305.996 13.3588L305.996 11.9588L308.404 11.9588L308.404 9.66281Z" fill="#9C4DF4" fill-opacity="0.15"/>
<path d="M308.404 19.3448L309.762 19.3448L309.762 21.6408L312.086 21.6408L312.086 23.0408L309.762 23.0408L309.762 25.3368L308.404 25.3368L308.404 23.0408L305.996 23.0408L305.996 21.6408L308.404 21.6408L308.404 19.3448Z" fill="#9C4DF4" fill-opacity="0.15"/>
<path d="M308.404 29.0268L309.762 29.0268L309.762 31.3228L312.086 31.3228L312.086 32.7228L309.762 32.7228L309.762 35.0188L308.404 35.0188L308.404 32.7228L305.996 32.7228L305.996 31.3228L308.404 31.3228L308.404 29.0268Z" fill="#9C4DF4" fill-opacity="0.15"/>
<path d="M308.404 38.7088L309.762 38.7088L309.762 41.0048L312.086 41.0048L312.086 42.4048L309.762 42.4048L309.762 44.7008L308.404 44.7008L308.404 42.4048L305.996 42.4048L305.996 41.0048L308.404 41.0048L308.404 38.7088Z" fill="#9C4DF4" fill-opacity="0.15"/>
<path d="M308.404 48.3908L309.762 48.3908L309.762 50.6868L312.086 50.6868L312.086 52.0868L309.762 52.0868L309.762 54.3828L308.404 54.3828L308.404 52.0868L305.996 52.0868L305.996 50.6868L308.404 50.6868L308.404 48.3908Z" fill="#9C4DF4" fill-opacity="0.15"/>
<path d="M308.404 58.0728L309.762 58.0728L309.762 60.3688L312.086 60.3688L312.086 61.7688L309.762 61.7688L309.762 64.0648L308.404 64.0648L308.404 61.7688L305.996 61.7688L305.996 60.3688L308.404 60.3688L308.404 58.0728Z" fill="#9C4DF4" fill-opacity="0.15"/>
<path d="M308.404 67.7548L309.762 67.7548L309.762 70.0508L312.086 70.0508L312.086 71.4508L309.762 71.4508L309.762 73.7468L308.404 73.7468L308.404 71.4508L305.996 71.4508L305.996 70.0508L308.404 70.0508L308.404 67.7548Z" fill="#9C4DF4" fill-opacity="0.15"/>
<path d="M308.404 77.4368L309.762 77.4368L309.762 79.7328L312.086 79.7328L312.086 81.1328L309.762 81.1328L309.762 83.4288L308.404 83.4288L308.404 81.1328L305.996 81.1328L305.996 79.7328L308.404 79.7328L308.404 77.4368Z" fill="#9C4DF4" fill-opacity="0.15"/>
<path d="M298.722 -0.0191405L300.08 -0.0191405L300.08 2.27686L302.404 2.27686L302.404 3.67686L300.08 3.67686L300.08 5.97286L298.722 5.97286L298.722 3.67686L296.314 3.67686L296.314 2.27686L298.722 2.27686L298.722 -0.0191405Z" fill="#9C4DF4" fill-opacity="0.15"/>
<path d="M298.722 9.66281L300.08 9.66281L300.08 11.9588L302.404 11.9588L302.404 13.3588L300.08 13.3588L300.08 15.6548L298.722 15.6548L298.722 13.3588L296.314 13.3588L296.314 11.9588L298.722 11.9588L298.722 9.66281Z" fill="#9C4DF4" fill-opacity="0.15"/>
<path d="M298.722 19.3448L300.08 19.3448L300.08 21.6408L302.404 21.6408L302.404 23.0408L300.08 23.0408L300.08 25.3368L298.722 25.3368L298.722 23.0408L296.314 23.0408L296.314 21.6408L298.722 21.6408L298.722 19.3448Z" fill="#9C4DF4" fill-opacity="0.15"/>
<path d="M298.722 29.0268L300.08 29.0268L300.08 31.3228L302.404 31.3228L302.404 32.7228L300.08 32.7228L300.08 35.0188L298.722 35.0188L298.722 32.7228L296.314 32.7228L296.314 31.3228L298.722 31.3228L298.722 29.0268Z" fill="#9C4DF4" fill-opacity="0.15"/>
<path d="M298.722 38.7088L300.08 38.7088L300.08 41.0048L302.404 41.0048L302.404 42.4048L300.08 42.4048L300.08 44.7008L298.722 44.7008L298.722 42.4048L296.314 42.4048L296.314 41.0048L298.722 41.0048L298.722 38.7088Z" fill="#9C4DF4" fill-opacity="0.15"/>
<path d="M298.722 48.3908L300.08 48.3908L300.08 50.6868L302.404 50.6868L302.404 52.0868L300.08 52.0868L300.08 54.3828L298.722 54.3828L298.722 52.0868L296.314 52.0868L296.314 50.6868L298.722 50.6868L298.722 48.3908Z" fill="#9C4DF4" fill-opacity="0.15"/>
<path d="M298.722 58.0728L300.08 58.0728L300.08 60.3688L302.404 60.3688L302.404 61.7688L300.08 61.7688L300.08 64.0648L298.722 64.0648L298.722 61.7688L296.314 61.7688L296.314 60.3688L298.722 60.3688L298.722 58.0728Z" fill="#9C4DF4" fill-opacity="0.15"/>
<path d="M298.722 67.7548L300.08 67.7548L300.08 70.0508L302.404 70.0508L302.404 71.4508L300.08 71.4508L300.08 73.7468L298.722 73.7468L298.722 71.4508L296.314 71.4508L296.314 70.0508L298.722 70.0508L298.722 67.7548Z" fill="#9C4DF4" fill-opacity="0.15"/>
<path d="M298.722 77.4368L300.08 77.4368L300.08 79.7328L302.404 79.7328L302.404 81.1328L300.08 81.1328L300.08 83.4288L298.722 83.4288L298.722 81.1328L296.314 81.1328L296.314 79.7328L298.722 79.7328L298.722 77.4368Z" fill="#9C4DF4" fill-opacity="0.15"/>
<path d="M289.041 -0.0191405L290.399 -0.0191405L290.399 2.27686L292.723 2.27686L292.723 3.67686L290.399 3.67686L290.399 5.97286L289.041 5.97286L289.041 3.67686L286.633 3.67686L286.633 2.27686L289.041 2.27686L289.041 -0.0191405Z" fill="#9C4DF4" fill-opacity="0.15"/>
<path d="M289.041 9.66281L290.399 9.66281L290.399 11.9588L292.723 11.9588L292.723 13.3588L290.399 13.3588L290.399 15.6548L289.041 15.6548L289.041 13.3588L286.633 13.3588L286.633 11.9588L289.041 11.9588L289.041 9.66281Z" fill="#9C4DF4" fill-opacity="0.15"/>
<path d="M289.041 19.3448L290.399 19.3448L290.399 21.6408L292.723 21.6408L292.723 23.0408L290.399 23.0408L290.399 25.3368L289.041 25.3368L289.041 23.0408L286.633 23.0408L286.633 21.6408L289.041 21.6408L289.041 19.3448Z" fill="#9C4DF4" fill-opacity="0.15"/>
<path d="M289.041 29.0268L290.399 29.0268L290.399 31.3228L292.723 31.3228L292.723 32.7228L290.399 32.7228L290.399 35.0188L289.041 35.0188L289.041 32.7228L286.633 32.7228L286.633 31.3228L289.041 31.3228L289.041 29.0268Z" fill="#9C4DF4" fill-opacity="0.15"/>
<path d="M289.041 38.7088L290.399 38.7088L290.399 41.0048L292.723 41.0048L292.723 42.4048L290.399 42.4048L290.399 44.7008L289.041 44.7008L289.041 42.4048L286.633 42.4048L286.633 41.0048L289.041 41.0048L289.041 38.7088Z" fill="#9C4DF4" fill-opacity="0.15"/>
<path d="M289.041 48.3908L290.399 48.3908L290.399 50.6868L292.723 50.6868L292.723 52.0868L290.399 52.0868L290.399 54.3828L289.041 54.3828L289.041 52.0868L286.633 52.0868L286.633 50.6868L289.041 50.6868L289.041 48.3908Z" fill="#9C4DF4" fill-opacity="0.15"/>
<path d="M289.041 58.0728L290.399 58.0728L290.399 60.3688L292.723 60.3688L292.723 61.7688L290.399 61.7688L290.399 64.0648L289.041 64.0648L289.041 61.7688L286.633 61.7688L286.633 60.3688L289.041 60.3688L289.041 58.0728Z" fill="#9C4DF4" fill-opacity="0.15"/>
<path d="M289.041 67.7548L290.399 67.7548L290.399 70.0508L292.723 70.0508L292.723 71.4508L290.399 71.4508L290.399 73.7468L289.041 73.7468L289.041 71.4508L286.633 71.4508L286.633 70.0508L289.041 70.0508L289.041 67.7548Z" fill="#9C4DF4" fill-opacity="0.15"/>
<path d="M289.041 77.4368L290.399 77.4368L290.399 79.7328L292.723 79.7328L292.723 81.1328L290.399 81.1328L290.399 83.4288L289.041 83.4288L289.041 81.1328L286.633 81.1328L286.633 79.7328L289.041 79.7328L289.041 77.4368Z" fill="#9C4DF4" fill-opacity="0.15"/>
<path d="M279.358 -0.0191405L280.716 -0.0191405L280.716 2.27686L283.04 2.27686L283.04 3.67686L280.716 3.67686L280.716 5.97286L279.358 5.97286L279.358 3.67686L276.95 3.67686L276.95 2.27686L279.358 2.27686L279.358 -0.0191405Z" fill="#9C4DF4" fill-opacity="0.15"/>
<path d="M279.358 9.66281L280.716 9.66281L280.716 11.9588L283.04 11.9588L283.04 13.3588L280.716 13.3588L280.716 15.6548L279.358 15.6548L279.358 13.3588L276.95 13.3588L276.95 11.9588L279.358 11.9588L279.358 9.66281Z" fill="#9C4DF4" fill-opacity="0.15"/>
<path d="M279.358 19.3448L280.716 19.3448L280.716 21.6408L283.04 21.6408L283.04 23.0408L280.716 23.0408L280.716 25.3368L279.358 25.3368L279.358 23.0408L276.95 23.0408L276.95 21.6408L279.358 21.6408L279.358 19.3448Z" fill="#9C4DF4" fill-opacity="0.15"/>
<path d="M279.358 29.0268L280.716 29.0268L280.716 31.3228L283.04 31.3228L283.04 32.7228L280.716 32.7228L280.716 35.0188L279.358 35.0188L279.358 32.7228L276.95 32.7228L276.95 31.3228L279.358 31.3228L279.358 29.0268Z" fill="#9C4DF4" fill-opacity="0.15"/>
<path d="M279.358 38.7088L280.716 38.7088L280.716 41.0048L283.04 41.0048L283.04 42.4048L280.716 42.4048L280.716 44.7008L279.358 44.7008L279.358 42.4048L276.95 42.4048L276.95 41.0048L279.358 41.0048L279.358 38.7088Z" fill="#9C4DF4" fill-opacity="0.15"/>
<path d="M279.358 48.3908L280.716 48.3908L280.716 50.6868L283.04 50.6868L283.04 52.0868L280.716 52.0868L280.716 54.3828L279.358 54.3828L279.358 52.0868L276.95 52.0868L276.95 50.6868L279.358 50.6868L279.358 48.3908Z" fill="#9C4DF4" fill-opacity="0.15"/>
<path d="M279.358 58.0728L280.716 58.0728L280.716 60.3688L283.04 60.3688L283.04 61.7688L280.716 61.7688L280.716 64.0648L279.358 64.0648L279.358 61.7688L276.95 61.7688L276.95 60.3688L279.358 60.3688L279.358 58.0728Z" fill="#9C4DF4" fill-opacity="0.15"/>
<path d="M279.358 67.7548L280.716 67.7548L280.716 70.0508L283.04 70.0508L283.04 71.4508L280.716 71.4508L280.716 73.7468L279.358 73.7468L279.358 71.4508L276.95 71.4508L276.95 70.0508L279.358 70.0508L279.358 67.7548Z" fill="#9C4DF4" fill-opacity="0.15"/>
<path d="M279.358 77.4368L280.716 77.4368L280.716 79.7328L283.04 79.7328L283.04 81.1328L280.716 81.1328L280.716 83.4288L279.358 83.4288L279.358 81.1328L276.95 81.1328L276.95 79.7328L279.358 79.7328L279.358 77.4368Z" fill="#9C4DF4" fill-opacity="0.15"/>
<path d="M269.677 -0.0191405L271.035 -0.0191405L271.035 2.27686L273.359 2.27686L273.359 3.67686L271.035 3.67686L271.035 5.97286L269.677 5.97286L269.677 3.67686L267.269 3.67686L267.269 2.27686L269.677 2.27686L269.677 -0.0191405Z" fill="#9C4DF4" fill-opacity="0.15"/>
<path d="M269.677 9.66281L271.035 9.66281L271.035 11.9588L273.359 11.9588L273.359 13.3588L271.035 13.3588L271.035 15.6548L269.677 15.6548L269.677 13.3588L267.269 13.3588L267.269 11.9588L269.677 11.9588L269.677 9.66281Z" fill="#9C4DF4" fill-opacity="0.15"/>
<path d="M269.677 19.3448L271.035 19.3448L271.035 21.6408L273.359 21.6408L273.359 23.0408L271.035 23.0408L271.035 25.3368L269.677 25.3368L269.677 23.0408L267.269 23.0408L267.269 21.6408L269.677 21.6408L269.677 19.3448Z" fill="#9C4DF4" fill-opacity="0.15"/>
<path d="M269.677 29.0268L271.035 29.0268L271.035 31.3228L273.359 31.3228L273.359 32.7228L271.035 32.7228L271.035 35.0188L269.677 35.0188L269.677 32.7228L267.269 32.7228L267.269 31.3228L269.677 31.3228L269.677 29.0268Z" fill="#9C4DF4" fill-opacity="0.15"/>
<path d="M269.677 38.7088L271.035 38.7088L271.035 41.0048L273.359 41.0048L273.359 42.4048L271.035 42.4048L271.035 44.7008L269.677 44.7008L269.677 42.4048L267.269 42.4048L267.269 41.0048L269.677 41.0048L269.677 38.7088Z" fill="#9C4DF4" fill-opacity="0.15"/>
<path d="M269.677 48.3908L271.035 48.3908L271.035 50.6868L273.359 50.6868L273.359 52.0868L271.035 52.0868L271.035 54.3828L269.677 54.3828L269.677 52.0868L267.269 52.0868L267.269 50.6868L269.677 50.6868L269.677 48.3908Z" fill="#9C4DF4" fill-opacity="0.15"/>
<path d="M269.677 58.0728L271.035 58.0728L271.035 60.3688L273.359 60.3688L273.359 61.7688L271.035 61.7688L271.035 64.0648L269.677 64.0648L269.677 61.7688L267.269 61.7688L267.269 60.3688L269.677 60.3688L269.677 58.0728Z" fill="#9C4DF4" fill-opacity="0.15"/>
<path d="M269.677 67.7548L271.035 67.7548L271.035 70.0508L273.359 70.0508L273.359 71.4508L271.035 71.4508L271.035 73.7468L269.677 73.7468L269.677 71.4508L267.269 71.4508L267.269 70.0508L269.677 70.0508L269.677 67.7548Z" fill="#9C4DF4" fill-opacity="0.15"/>
<path d="M269.677 77.4368L271.035 77.4368L271.035 79.7328L273.359 79.7328L273.359 81.1328L271.035 81.1328L271.035 83.4288L269.677 83.4288L269.677 81.1328L267.269 81.1328L267.269 79.7328L269.677 79.7328L269.677 77.4368Z" fill="#9C4DF4" fill-opacity="0.15"/>
<path d="M259.994 -0.0191405L261.352 -0.0191405L261.352 2.27686L263.676 2.27686L263.676 3.67686L261.352 3.67686L261.352 5.97286L259.994 5.97286L259.994 3.67686L257.586 3.67686L257.586 2.27686L259.994 2.27686L259.994 -0.0191405Z" fill="#9C4DF4" fill-opacity="0.15"/>
<path d="M259.995 9.66281L261.353 9.66281L261.353 11.9588L263.677 11.9588L263.677 13.3588L261.353 13.3588L261.353 15.6548L259.995 15.6548L259.995 13.3588L257.587 13.3588L257.587 11.9588L259.995 11.9588L259.995 9.66281Z" fill="#9C4DF4" fill-opacity="0.15"/>
<path d="M259.995 19.3448L261.353 19.3448L261.353 21.6408L263.677 21.6408L263.677 23.0408L261.353 23.0408L261.353 25.3368L259.995 25.3368L259.995 23.0408L257.587 23.0408L257.587 21.6408L259.995 21.6408L259.995 19.3448Z" fill="#9C4DF4" fill-opacity="0.15"/>
<path d="M259.995 29.0268L261.353 29.0268L261.353 31.3228L263.677 31.3228L263.677 32.7228L261.353 32.7228L261.353 35.0188L259.995 35.0188L259.995 32.7228L257.587 32.7228L257.587 31.3228L259.995 31.3228L259.995 29.0268Z" fill="#9C4DF4" fill-opacity="0.15"/>
<path d="M259.995 38.7088L261.353 38.7088L261.353 41.0048L263.677 41.0048L263.677 42.4048L261.353 42.4048L261.353 44.7008L259.995 44.7008L259.995 42.4048L257.587 42.4048L257.587 41.0048L259.995 41.0048L259.995 38.7088Z" fill="#9C4DF4" fill-opacity="0.15"/>
<path d="M259.995 48.3908L261.353 48.3908L261.353 50.6868L263.677 50.6868L263.677 52.0868L261.353 52.0868L261.353 54.3828L259.995 54.3828L259.995 52.0868L257.587 52.0868L257.587 50.6868L259.995 50.6868L259.995 48.3908Z" fill="#9C4DF4" fill-opacity="0.15"/>
<path d="M259.995 58.0728L261.353 58.0728L261.353 60.3688L263.677 60.3688L263.677 61.7688L261.353 61.7688L261.353 64.0648L259.995 64.0648L259.995 61.7688L257.587 61.7688L257.587 60.3688L259.995 60.3688L259.995 58.0728Z" fill="#9C4DF4" fill-opacity="0.15"/>
<path d="M259.995 67.7548L261.353 67.7548L261.353 70.0508L263.677 70.0508L263.677 71.4508L261.353 71.4508L261.353 73.7468L259.995 73.7468L259.995 71.4508L257.587 71.4508L257.587 70.0508L259.995 70.0508L259.995 67.7548Z" fill="#9C4DF4" fill-opacity="0.15"/>
<path d="M259.995 77.4368L261.353 77.4368L261.353 79.7328L263.677 79.7328L263.677 81.1328L261.353 81.1328L261.353 83.4288L259.995 83.4288L259.995 81.1328L257.587 81.1328L257.587 79.7328L259.995 79.7328L259.995 77.4368Z" fill="#9C4DF4" fill-opacity="0.15"/>
<path d="M250.313 -0.0191405L251.671 -0.0191405L251.671 2.27686L253.995 2.27686L253.995 3.67686L251.671 3.67686L251.671 5.97286L250.313 5.97286L250.313 3.67686L247.905 3.67686L247.905 2.27686L250.313 2.27686L250.313 -0.0191405Z" fill="#9C4DF4" fill-opacity="0.15"/>
<path d="M250.313 9.66281L251.671 9.66281L251.671 11.9588L253.995 11.9588L253.995 13.3588L251.671 13.3588L251.671 15.6548L250.313 15.6548L250.313 13.3588L247.905 13.3588L247.905 11.9588L250.313 11.9588L250.313 9.66281Z" fill="#9C4DF4" fill-opacity="0.15"/>
<path d="M250.313 19.3448L251.671 19.3448L251.671 21.6408L253.995 21.6408L253.995 23.0408L251.671 23.0408L251.671 25.3368L250.313 25.3368L250.313 23.0408L247.905 23.0408L247.905 21.6408L250.313 21.6408L250.313 19.3448Z" fill="#9C4DF4" fill-opacity="0.15"/>
<path d="M250.313 29.0268L251.671 29.0268L251.671 31.3228L253.995 31.3228L253.995 32.7228L251.671 32.7228L251.671 35.0188L250.313 35.0188L250.313 32.7228L247.905 32.7228L247.905 31.3228L250.313 31.3228L250.313 29.0268Z" fill="#9C4DF4" fill-opacity="0.15"/>
<path d="M250.313 38.7088L251.671 38.7088L251.671 41.0048L253.995 41.0048L253.995 42.4048L251.671 42.4048L251.671 44.7008L250.313 44.7008L250.313 42.4048L247.905 42.4048L247.905 41.0048L250.313 41.0048L250.313 38.7088Z" fill="#9C4DF4" fill-opacity="0.15"/>
<path d="M250.313 48.3908L251.671 48.3908L251.671 50.6868L253.995 50.6868L253.995 52.0868L251.671 52.0868L251.671 54.3828L250.313 54.3828L250.313 52.0868L247.905 52.0868L247.905 50.6868L250.313 50.6868L250.313 48.3908Z" fill="#9C4DF4" fill-opacity="0.15"/>
<path d="M250.313 58.0728L251.671 58.0728L251.671 60.3688L253.995 60.3688L253.995 61.7688L251.671 61.7688L251.671 64.0648L250.313 64.0648L250.313 61.7688L247.905 61.7688L247.905 60.3688L250.313 60.3688L250.313 58.0728Z" fill="#9C4DF4" fill-opacity="0.15"/>
<path d="M250.313 67.7548L251.671 67.7548L251.671 70.0508L253.995 70.0508L253.995 71.4508L251.671 71.4508L251.671 73.7468L250.313 73.7468L250.313 71.4508L247.905 71.4508L247.905 70.0508L250.313 70.0508L250.313 67.7548Z" fill="#9C4DF4" fill-opacity="0.15"/>
<path d="M250.313 77.4368L251.671 77.4368L251.671 79.7328L253.995 79.7328L253.995 81.1328L251.671 81.1328L251.671 83.4288L250.313 83.4288L250.313 81.1328L247.905 81.1328L247.905 79.7328L250.313 79.7328L250.313 77.4368Z" fill="#9C4DF4" fill-opacity="0.15"/>
<path d="M376.178 48.3906L377.536 48.3906L377.536 50.6866L379.86 50.6866L379.86 52.0866L377.536 52.0866L377.536 54.3827L376.178 54.3826L376.178 52.0866L373.77 52.0866L373.77 50.6866L376.178 50.6866L376.178 48.3906Z" fill="#9C4DF4" fill-opacity="0.15"/>
<path d="M376.178 58.0727L377.536 58.0727L377.536 60.3687L379.86 60.3687L379.86 61.7687L377.536 61.7687L377.536 64.0647L376.178 64.0647L376.178 61.7687L373.77 61.7687L373.77 60.3687L376.178 60.3687L376.178 58.0727Z" fill="#9C4DF4" fill-opacity="0.15"/>
<path d="M376.178 67.7546L377.536 67.7546L377.536 70.0506L379.86 70.0506L379.86 71.4506L377.536 71.4506L377.536 73.7466L376.178 73.7466L376.178 71.4506L373.77 71.4506L373.77 70.0506L376.178 70.0506L376.178 67.7546Z" fill="#9C4DF4" fill-opacity="0.15"/>
<path d="M376.178 77.4366L377.536 77.4366L377.536 79.7326L379.86 79.7326L379.86 81.1326L377.536 81.1326L377.536 83.4286L376.178 83.4286L376.178 81.1326L373.77 81.1326L373.77 79.7326L376.178 79.7326L376.178 77.4366Z" fill="#9C4DF4" fill-opacity="0.15"/>
<path d="M376.178 87.1186L377.536 87.1186L377.536 89.4146L379.86 89.4146L379.86 90.8146L377.536 90.8146L377.536 93.1106L376.178 93.1106L376.178 90.8146L373.77 90.8146L373.77 89.4146L376.178 89.4146L376.178 87.1186Z" fill="#9C4DF4" fill-opacity="0.15"/>
<path d="M376.178 96.8006L377.536 96.8006L377.536 99.0966L379.86 99.0966L379.86 100.497L377.536 100.497L377.536 102.793L376.178 102.793L376.178 100.497L373.77 100.497L373.77 99.0966L376.178 99.0966L376.178 96.8006Z" fill="#9C4DF4" fill-opacity="0.15"/>
<path d="M376.178 106.483L377.536 106.483L377.536 108.779L379.86 108.779L379.86 110.179L377.536 110.179L377.536 112.475L376.178 112.475L376.178 110.179L373.77 110.179L373.77 108.779L376.178 108.779L376.178 106.483Z" fill="#9C4DF4" fill-opacity="0.15"/>
<path d="M366.496 48.3906L367.854 48.3906L367.854 50.6866L370.178 50.6866L370.178 52.0866L367.854 52.0866L367.854 54.3827L366.496 54.3826L366.496 52.0866L364.088 52.0866L364.088 50.6866L366.496 50.6866L366.496 48.3906Z" fill="#9C4DF4" fill-opacity="0.15"/>
<path d="M366.496 58.0727L367.854 58.0727L367.854 60.3687L370.178 60.3687L370.178 61.7687L367.854 61.7687L367.854 64.0647L366.496 64.0647L366.496 61.7687L364.088 61.7687L364.088 60.3687L366.496 60.3687L366.496 58.0727Z" fill="#9C4DF4" fill-opacity="0.15"/>
<path d="M366.496 67.7546L367.854 67.7546L367.854 70.0506L370.178 70.0506L370.178 71.4506L367.854 71.4506L367.854 73.7466L366.496 73.7466L366.496 71.4506L364.088 71.4506L364.088 70.0506L366.496 70.0506L366.496 67.7546Z" fill="#9C4DF4" fill-opacity="0.15"/>
<path d="M366.496 77.4366L367.854 77.4366L367.854 79.7326L370.178 79.7326L370.178 81.1326L367.854 81.1326L367.854 83.4286L366.496 83.4286L366.496 81.1326L364.088 81.1326L364.088 79.7326L366.496 79.7326L366.496 77.4366Z" fill="#9C4DF4" fill-opacity="0.15"/>
<path d="M366.496 87.1186L367.854 87.1186L367.854 89.4146L370.178 89.4146L370.178 90.8146L367.854 90.8146L367.854 93.1106L366.496 93.1106L366.496 90.8146L364.088 90.8146L364.088 89.4146L366.496 89.4146L366.496 87.1186Z" fill="#9C4DF4" fill-opacity="0.15"/>
<path d="M366.496 96.8006L367.854 96.8006L367.854 99.0966L370.178 99.0966L370.178 100.497L367.854 100.497L367.854 102.793L366.496 102.793L366.496 100.497L364.088 100.497L364.088 99.0966L366.496 99.0966L366.496 96.8006Z" fill="#9C4DF4" fill-opacity="0.15"/>
<path d="M366.496 106.483L367.854 106.483L367.854 108.779L370.178 108.779L370.178 110.179L367.854 110.179L367.854 112.475L366.496 112.475L366.496 110.179L364.088 110.179L364.088 108.779L366.496 108.779L366.496 106.483Z" fill="#9C4DF4" fill-opacity="0.15"/>
<path d="M356.814 48.3906L358.172 48.3906L358.172 50.6866L360.496 50.6866L360.496 52.0866L358.172 52.0866L358.172 54.3827L356.814 54.3826L356.814 52.0866L354.406 52.0866L354.406 50.6866L356.814 50.6866L356.814 48.3906Z" fill="#9C4DF4" fill-opacity="0.15"/>
<path d="M356.814 58.0727L358.172 58.0727L358.172 60.3687L360.496 60.3687L360.496 61.7687L358.172 61.7687L358.172 64.0647L356.814 64.0647L356.814 61.7687L354.406 61.7687L354.406 60.3687L356.814 60.3687L356.814 58.0727Z" fill="#9C4DF4" fill-opacity="0.15"/>
<path d="M356.814 67.7546L358.172 67.7546L358.172 70.0506L360.496 70.0506L360.496 71.4506L358.172 71.4506L358.172 73.7466L356.814 73.7466L356.814 71.4506L354.406 71.4506L354.406 70.0506L356.814 70.0506L356.814 67.7546Z" fill="#9C4DF4" fill-opacity="0.15"/>
<path d="M356.814 77.4366L358.172 77.4366L358.172 79.7326L360.496 79.7326L360.496 81.1326L358.172 81.1326L358.172 83.4286L356.814 83.4286L356.814 81.1326L354.406 81.1326L354.406 79.7326L356.814 79.7326L356.814 77.4366Z" fill="#9C4DF4" fill-opacity="0.15"/>
<path d="M356.814 87.1186L358.172 87.1186L358.172 89.4146L360.496 89.4146L360.496 90.8146L358.172 90.8146L358.172 93.1106L356.814 93.1106L356.814 90.8146L354.406 90.8146L354.406 89.4146L356.814 89.4146L356.814 87.1186Z" fill="#9C4DF4" fill-opacity="0.15"/>
<path d="M356.814 96.8006L358.172 96.8006L358.172 99.0966L360.496 99.0966L360.496 100.497L358.172 100.497L358.172 102.793L356.814 102.793L356.814 100.497L354.406 100.497L354.406 99.0966L356.814 99.0966L356.814 96.8006Z" fill="#9C4DF4" fill-opacity="0.15"/>
<path d="M356.814 106.483L358.172 106.483L358.172 108.779L360.496 108.779L360.496 110.179L358.172 110.179L358.172 112.475L356.814 112.475L356.814 110.179L354.406 110.179L354.406 108.779L356.814 108.779L356.814 106.483Z" fill="#9C4DF4" fill-opacity="0.15"/>
<path d="M347.132 48.3906L348.49 48.3906L348.49 50.6866L350.814 50.6866L350.814 52.0866L348.49 52.0866L348.49 54.3827L347.132 54.3826L347.132 52.0866L344.724 52.0866L344.724 50.6866L347.132 50.6866L347.132 48.3906Z" fill="#9C4DF4" fill-opacity="0.15"/>
<path d="M347.132 58.0727L348.49 58.0727L348.49 60.3687L350.814 60.3687L350.814 61.7687L348.49 61.7687L348.49 64.0647L347.132 64.0647L347.132 61.7687L344.724 61.7687L344.724 60.3687L347.132 60.3687L347.132 58.0727Z" fill="#9C4DF4" fill-opacity="0.15"/>
<path d="M347.132 67.7546L348.49 67.7546L348.49 70.0506L350.814 70.0506L350.814 71.4506L348.49 71.4506L348.49 73.7466L347.132 73.7466L347.132 71.4506L344.724 71.4506L344.724 70.0506L347.132 70.0506L347.132 67.7546Z" fill="#9C4DF4" fill-opacity="0.15"/>
<path d="M347.132 77.4366L348.49 77.4366L348.49 79.7326L350.814 79.7326L350.814 81.1326L348.49 81.1326L348.49 83.4286L347.132 83.4286L347.132 81.1326L344.724 81.1326L344.724 79.7326L347.132 79.7326L347.132 77.4366Z" fill="#9C4DF4" fill-opacity="0.15"/>
<path d="M347.132 87.1186L348.49 87.1186L348.49 89.4146L350.814 89.4146L350.814 90.8146L348.49 90.8146L348.49 93.1106L347.132 93.1106L347.132 90.8146L344.724 90.8146L344.724 89.4146L347.132 89.4146L347.132 87.1186Z" fill="#9C4DF4" fill-opacity="0.15"/>
<path d="M347.132 96.8006L348.49 96.8006L348.49 99.0966L350.814 99.0966L350.814 100.497L348.49 100.497L348.49 102.793L347.132 102.793L347.132 100.497L344.724 100.497L344.724 99.0966L347.132 99.0966L347.132 96.8006Z" fill="#9C4DF4" fill-opacity="0.15"/>
<path d="M347.132 106.483L348.49 106.483L348.49 108.779L350.814 108.779L350.814 110.179L348.49 110.179L348.49 112.475L347.132 112.475L347.132 110.179L344.724 110.179L344.724 108.779L347.132 108.779L347.132 106.483Z" fill="#9C4DF4" fill-opacity="0.15"/>
<path d="M337.45 48.3906L338.808 48.3906L338.808 50.6866L341.132 50.6866L341.132 52.0866L338.808 52.0866L338.808 54.3827L337.45 54.3826L337.45 52.0866L335.042 52.0866L335.042 50.6866L337.45 50.6866L337.45 48.3906Z" fill="#9C4DF4" fill-opacity="0.15"/>
<path d="M337.45 58.0727L338.808 58.0727L338.808 60.3687L341.132 60.3687L341.132 61.7687L338.808 61.7687L338.808 64.0647L337.45 64.0647L337.45 61.7687L335.042 61.7687L335.042 60.3687L337.45 60.3687L337.45 58.0727Z" fill="#9C4DF4" fill-opacity="0.15"/>
<path d="M337.45 67.7546L338.808 67.7546L338.808 70.0506L341.132 70.0506L341.132 71.4506L338.808 71.4506L338.808 73.7466L337.45 73.7466L337.45 71.4506L335.042 71.4506L335.042 70.0506L337.45 70.0506L337.45 67.7546Z" fill="#9C4DF4" fill-opacity="0.15"/>
<path d="M337.45 77.4366L338.808 77.4366L338.808 79.7326L341.132 79.7326L341.132 81.1326L338.808 81.1326L338.808 83.4286L337.45 83.4286L337.45 81.1326L335.042 81.1326L335.042 79.7326L337.45 79.7326L337.45 77.4366Z" fill="#9C4DF4" fill-opacity="0.15"/>
<path d="M337.45 87.1186L338.808 87.1186L338.808 89.4146L341.132 89.4146L341.132 90.8146L338.808 90.8146L338.808 93.1106L337.45 93.1106L337.45 90.8146L335.042 90.8146L335.042 89.4146L337.45 89.4146L337.45 87.1186Z" fill="#9C4DF4" fill-opacity="0.15"/>
<path d="M337.45 96.8006L338.808 96.8006L338.808 99.0966L341.132 99.0966L341.132 100.497L338.808 100.497L338.808 102.793L337.45 102.793L337.45 100.497L335.042 100.497L335.042 99.0966L337.45 99.0966L337.45 96.8006Z" fill="#9C4DF4" fill-opacity="0.15"/>
<path d="M337.45 106.483L338.808 106.483L338.808 108.779L341.132 108.779L341.132 110.179L338.808 110.179L338.808 112.475L337.45 112.475L337.45 110.179L335.042 110.179L335.042 108.779L337.45 108.779L337.45 106.483Z" fill="#9C4DF4" fill-opacity="0.15"/>
<path d="M327.768 48.3906L329.126 48.3906L329.126 50.6866L331.45 50.6866L331.45 52.0866L329.126 52.0866L329.126 54.3827L327.768 54.3826L327.768 52.0866L325.36 52.0866L325.36 50.6866L327.768 50.6866L327.768 48.3906Z" fill="#9C4DF4" fill-opacity="0.15"/>
<path d="M327.768 58.0727L329.126 58.0727L329.126 60.3687L331.45 60.3687L331.45 61.7687L329.126 61.7687L329.126 64.0647L327.768 64.0647L327.768 61.7687L325.36 61.7687L325.36 60.3687L327.768 60.3687L327.768 58.0727Z" fill="#9C4DF4" fill-opacity="0.15"/>
<path d="M327.768 67.7546L329.126 67.7546L329.126 70.0506L331.45 70.0506L331.45 71.4506L329.126 71.4506L329.126 73.7466L327.768 73.7466L327.768 71.4506L325.36 71.4506L325.36 70.0506L327.768 70.0506L327.768 67.7546Z" fill="#9C4DF4" fill-opacity="0.15"/>
<path d="M327.768 77.4366L329.126 77.4366L329.126 79.7326L331.45 79.7326L331.45 81.1326L329.126 81.1326L329.126 83.4286L327.768 83.4286L327.768 81.1326L325.36 81.1326L325.36 79.7326L327.768 79.7326L327.768 77.4366Z" fill="#9C4DF4" fill-opacity="0.15"/>
<path d="M327.768 87.1186L329.126 87.1186L329.126 89.4146L331.45 89.4146L331.45 90.8146L329.126 90.8146L329.126 93.1106L327.768 93.1106L327.768 90.8146L325.36 90.8146L325.36 89.4146L327.768 89.4146L327.768 87.1186Z" fill="#9C4DF4" fill-opacity="0.15"/>
<path d="M327.768 96.8006L329.126 96.8006L329.126 99.0966L331.45 99.0966L331.45 100.497L329.126 100.497L329.126 102.793L327.768 102.793L327.768 100.497L325.36 100.497L325.36 99.0966L327.768 99.0966L327.768 96.8006Z" fill="#9C4DF4" fill-opacity="0.15"/>
<path d="M327.768 106.483L329.126 106.483L329.126 108.779L331.45 108.779L331.45 110.179L329.126 110.179L329.126 112.475L327.768 112.475L327.768 110.179L325.36 110.179L325.36 108.779L327.768 108.779L327.768 106.483Z" fill="#9C4DF4" fill-opacity="0.15"/>
<path d="M318.086 48.3906L319.444 48.3906L319.444 50.6866L321.768 50.6866L321.768 52.0866L319.444 52.0866L319.444 54.3827L318.086 54.3826L318.086 52.0866L315.678 52.0866L315.678 50.6866L318.086 50.6866L318.086 48.3906Z" fill="#9C4DF4" fill-opacity="0.15"/>
<path d="M318.086 58.0727L319.444 58.0727L319.444 60.3687L321.768 60.3687L321.768 61.7687L319.444 61.7687L319.444 64.0647L318.086 64.0647L318.086 61.7687L315.678 61.7687L315.678 60.3687L318.086 60.3687L318.086 58.0727Z" fill="#9C4DF4" fill-opacity="0.15"/>
<path d="M318.086 67.7546L319.444 67.7546L319.444 70.0506L321.768 70.0506L321.768 71.4506L319.444 71.4506L319.444 73.7466L318.086 73.7466L318.086 71.4506L315.678 71.4506L315.678 70.0506L318.086 70.0506L318.086 67.7546Z" fill="#9C4DF4" fill-opacity="0.15"/>
<path d="M318.086 77.4366L319.444 77.4366L319.444 79.7326L321.768 79.7326L321.768 81.1326L319.444 81.1326L319.444 83.4286L318.086 83.4286L318.086 81.1326L315.678 81.1326L315.678 79.7326L318.086 79.7326L318.086 77.4366Z" fill="#9C4DF4" fill-opacity="0.15"/>
<path d="M318.086 87.1186L319.444 87.1186L319.444 89.4146L321.768 89.4146L321.768 90.8146L319.444 90.8146L319.444 93.1106L318.086 93.1106L318.086 90.8146L315.678 90.8146L315.678 89.4146L318.086 89.4146L318.086 87.1186Z" fill="#9C4DF4" fill-opacity="0.15"/>
<path d="M318.086 96.8006L319.444 96.8006L319.444 99.0966L321.768 99.0966L321.768 100.497L319.444 100.497L319.444 102.793L318.086 102.793L318.086 100.497L315.678 100.497L315.678 99.0966L318.086 99.0966L318.086 96.8006Z" fill="#9C4DF4" fill-opacity="0.15"/>
<path d="M318.086 106.483L319.444 106.483L319.444 108.779L321.768 108.779L321.768 110.179L319.444 110.179L319.444 112.475L318.086 112.475L318.086 110.179L315.678 110.179L315.678 108.779L318.086 108.779L318.086 106.483Z" fill="#9C4DF4" fill-opacity="0.15"/>
<path d="M308.404 48.3906L309.762 48.3906L309.762 50.6866L312.086 50.6866L312.086 52.0866L309.762 52.0866L309.762 54.3827L308.404 54.3826L308.404 52.0866L305.996 52.0866L305.996 50.6866L308.404 50.6866L308.404 48.3906Z" fill="#9C4DF4" fill-opacity="0.15"/>
<path d="M308.404 58.0727L309.762 58.0727L309.762 60.3687L312.086 60.3687L312.086 61.7687L309.762 61.7687L309.762 64.0647L308.404 64.0647L308.404 61.7687L305.996 61.7687L305.996 60.3687L308.404 60.3687L308.404 58.0727Z" fill="#9C4DF4" fill-opacity="0.15"/>
<path d="M308.404 67.7546L309.762 67.7546L309.762 70.0506L312.086 70.0506L312.086 71.4506L309.762 71.4506L309.762 73.7466L308.404 73.7466L308.404 71.4506L305.996 71.4506L305.996 70.0506L308.404 70.0506L308.404 67.7546Z" fill="#9C4DF4" fill-opacity="0.15"/>
<path d="M308.404 77.4366L309.762 77.4366L309.762 79.7326L312.086 79.7326L312.086 81.1326L309.762 81.1326L309.762 83.4286L308.404 83.4286L308.404 81.1326L305.996 81.1326L305.996 79.7326L308.404 79.7326L308.404 77.4366Z" fill="#9C4DF4" fill-opacity="0.15"/>
<path d="M308.404 87.1186L309.762 87.1186L309.762 89.4146L312.086 89.4146L312.086 90.8146L309.762 90.8146L309.762 93.1106L308.404 93.1106L308.404 90.8146L305.996 90.8146L305.996 89.4146L308.404 89.4146L308.404 87.1186Z" fill="#9C4DF4" fill-opacity="0.15"/>
<path d="M308.404 96.8006L309.762 96.8006L309.762 99.0966L312.086 99.0966L312.086 100.497L309.762 100.497L309.762 102.793L308.404 102.793L308.404 100.497L305.996 100.497L305.996 99.0966L308.404 99.0966L308.404 96.8006Z" fill="#9C4DF4" fill-opacity="0.15"/>
<path d="M308.404 106.483L309.762 106.483L309.762 108.779L312.086 108.779L312.086 110.179L309.762 110.179L309.762 112.475L308.404 112.475L308.404 110.179L305.996 110.179L305.996 108.779L308.404 108.779L308.404 106.483Z" fill="#9C4DF4" fill-opacity="0.15"/>
<path d="M298.722 48.3906L300.08 48.3906L300.08 50.6866L302.404 50.6866L302.404 52.0866L300.08 52.0866L300.08 54.3827L298.722 54.3826L298.722 52.0866L296.314 52.0866L296.314 50.6866L298.722 50.6866L298.722 48.3906Z" fill="#9C4DF4" fill-opacity="0.15"/>
<path d="M298.722 58.0727L300.08 58.0727L300.08 60.3687L302.404 60.3687L302.404 61.7687L300.08 61.7687L300.08 64.0647L298.722 64.0647L298.722 61.7687L296.314 61.7687L296.314 60.3687L298.722 60.3687L298.722 58.0727Z" fill="#9C4DF4" fill-opacity="0.15"/>
<path d="M298.722 67.7546L300.08 67.7546L300.08 70.0506L302.404 70.0506L302.404 71.4506L300.08 71.4506L300.08 73.7466L298.722 73.7466L298.722 71.4506L296.314 71.4506L296.314 70.0506L298.722 70.0506L298.722 67.7546Z" fill="#9C4DF4" fill-opacity="0.15"/>
<path d="M298.722 77.4366L300.08 77.4366L300.08 79.7326L302.404 79.7326L302.404 81.1326L300.08 81.1326L300.08 83.4286L298.722 83.4286L298.722 81.1326L296.314 81.1326L296.314 79.7326L298.722 79.7326L298.722 77.4366Z" fill="#9C4DF4" fill-opacity="0.15"/>
<path d="M298.722 87.1186L300.08 87.1186L300.08 89.4146L302.404 89.4146L302.404 90.8146L300.08 90.8146L300.08 93.1106L298.722 93.1106L298.722 90.8146L296.314 90.8146L296.314 89.4146L298.722 89.4146L298.722 87.1186Z" fill="#9C4DF4" fill-opacity="0.15"/>
<path d="M298.722 96.8006L300.08 96.8006L300.08 99.0966L302.404 99.0966L302.404 100.497L300.08 100.497L300.08 102.793L298.722 102.793L298.722 100.497L296.314 100.497L296.314 99.0966L298.722 99.0966L298.722 96.8006Z" fill="#9C4DF4" fill-opacity="0.15"/>
<path d="M298.722 106.483L300.08 106.483L300.08 108.779L302.404 108.779L302.404 110.179L300.08 110.179L300.08 112.475L298.722 112.475L298.722 110.179L296.314 110.179L296.314 108.779L298.722 108.779L298.722 106.483Z" fill="#9C4DF4" fill-opacity="0.15"/>
<path d="M289.04 48.3906L290.398 48.3906L290.398 50.6866L292.722 50.6866L292.722 52.0866L290.398 52.0866L290.398 54.3827L289.04 54.3826L289.04 52.0866L286.632 52.0866L286.632 50.6866L289.04 50.6866L289.04 48.3906Z" fill="#9C4DF4" fill-opacity="0.15"/>
<path d="M289.04 58.0727L290.398 58.0727L290.398 60.3687L292.722 60.3687L292.722 61.7687L290.398 61.7687L290.398 64.0647L289.04 64.0647L289.04 61.7687L286.632 61.7687L286.632 60.3687L289.04 60.3687L289.04 58.0727Z" fill="#9C4DF4" fill-opacity="0.15"/>
<path d="M289.04 67.7546L290.398 67.7546L290.398 70.0506L292.722 70.0506L292.722 71.4506L290.398 71.4506L290.398 73.7466L289.04 73.7466L289.04 71.4506L286.632 71.4506L286.632 70.0506L289.04 70.0506L289.04 67.7546Z" fill="#9C4DF4" fill-opacity="0.15"/>
<path d="M289.04 77.4366L290.398 77.4366L290.398 79.7326L292.722 79.7326L292.722 81.1326L290.398 81.1326L290.398 83.4286L289.04 83.4286L289.04 81.1326L286.632 81.1326L286.632 79.7326L289.04 79.7326L289.04 77.4366Z" fill="#9C4DF4" fill-opacity="0.15"/>
<path d="M289.04 87.1186L290.398 87.1186L290.398 89.4146L292.722 89.4146L292.722 90.8146L290.398 90.8146L290.398 93.1106L289.04 93.1106L289.04 90.8146L286.632 90.8146L286.632 89.4146L289.04 89.4146L289.04 87.1186Z" fill="#9C4DF4" fill-opacity="0.15"/>
<path d="M289.04 96.8006L290.398 96.8006L290.398 99.0966L292.722 99.0966L292.722 100.497L290.398 100.497L290.398 102.793L289.04 102.793L289.04 100.497L286.632 100.497L286.632 99.0966L289.04 99.0966L289.04 96.8006Z" fill="#9C4DF4" fill-opacity="0.15"/>
<path d="M289.04 106.483L290.398 106.483L290.398 108.779L292.722 108.779L292.722 110.179L290.398 110.179L290.398 112.475L289.04 112.475L289.04 110.179L286.632 110.179L286.632 108.779L289.04 108.779L289.04 106.483Z" fill="#9C4DF4" fill-opacity="0.15"/>
<path fill-rule="evenodd" clip-rule="evenodd" d="M602.107 232.193C595.136 246.752 605.672 275.827 609.475 289.692C616.992 317.11 625.749 343.684 634.237 370.4C642.725 397.116 651.276 423.82 658.281 451.55C662.83 469.553 668.438 490.163 667.49 510.723C665.464 554.533 622.663 518.228 610.589 510.869C579.868 492.156 546.097 467.656 509.633 465.989C487.865 464.995 472.679 478.067 463.82 506.297C460.929 515.471 459.691 527.472 452.854 533.629C445.553 540.207 436.012 540.318 428.48 539.609C401.014 537.01 375.572 521.319 352.047 507.111C326.664 491.823 302.108 474.185 277.654 457.453C267.285 450.358 253.849 448.342 241.86 445.965C226.143 442.847 210.233 440.55 194.381 438.005C159.524 432.375 123.453 426.889 91.9511 409.8C72.2227 399.099 53.2624 382.018 48.0197 352.833C45.3875 338.179 48.4863 321.242 50.4152 305.627C52.735 286.756 55.3284 267.877 57.2024 249.02C63.2343 188.284 61.2569 123.492 21.922 93.1101C15.9708 88.5153 9.38839 85.5299 3.18566 81.5354C-0.762191 78.9869 -3.55226 75.2213 -2.1161 68.2628C1.47763 50.8038 24.2833 35.0871 34.6896 26.4579C57.471 7.57113 80.9973 -9.24664 104.104 -27.2132C119.389 -39.0933 142.883 -53.5256 152.889 -73.881C161.805 -92.018 151.654 -116.6 147 -131.787C142.635 -146.011 133.054 -168.318 140.385 -186.047C143.941 -194.643 150.982 -198.936 157.445 -201.577C168.762 -206.186 179.789 -207.332 191.057 -213.727C209.538 -224.222 229.533 -242.419 239.524 -266.871C246.446 -283.815 245.266 -298.861 242.136 -314.627C240.821 -321.256 239.538 -326.189 242.722 -333.273C247.772 -344.526 256.373 -354.183 263.754 -362.751C290.164 -393.415 319.644 -420.341 349.376 -443.956C364.234 -455.758 379.618 -467.128 395.539 -474.952C405.977 -480.1 419.345 -485.574 428.431 -479.275C438.958 -471.997 447.404 -458.721 455.623 -447.478C470.971 -426.474 485.501 -404.414 499.843 -382.172C533.007 -330.728 564.925 -277.834 595.598 -223.493C617.189 -185.186 639.406 -146.413 656.409 -103.575C659.71 -95.1891 662.334 -86.2576 664.247 -76.9011C666.344 -67.0139 671.371 -59.7636 676.835 -53.1717C710.747 -12.2577 759.686 8.1664 803.137 29.7973C814.164 35.2907 825.196 40.7755 836.021 46.7675C845.326 51.9184 857.244 56.4784 863.835 66.5627C876.828 86.4242 847.506 106.248 835.332 114.169C792.468 142.06 746.417 158.891 702.076 177.922C680.98 186.999 659.811 195.964 638.911 206.516C628.036 211.995 608.218 219.43 602.107 232.193Z" stroke="#9C4DF4" stroke-opacity="0.07"/>
<path fill-rule="evenodd" clip-rule="evenodd" d="M593.328 229.391C592.656 249.431 599.016 268.984 603.687 286.476C610.405 311.654 617.98 336.284 625.134 361.182C631.898 384.726 638.613 408.45 643.445 433.217C646.391 448.319 650.366 466.692 647.005 483.693C639.726 520.546 599.589 486.442 588.716 480.021C561.688 464.046 531.934 444.097 499.852 443.97C479.819 443.892 465.368 456.738 457.095 482.726C454.231 491.716 452.839 500.119 446.356 506.551C438.856 513.997 429.275 515.247 421.092 515.148C395.458 514.841 371.273 501.821 349.208 489.644C326.413 477.065 303.051 463.156 282.946 446.929C274.905 440.443 263.359 437.719 253.608 435.011C238.603 430.851 223.381 427.496 208.275 423.718C177.572 416.048 146.378 407.541 119.006 390.103C99.2441 377.514 81.1518 359.187 73.1776 331.186C65.1012 302.798 70.6552 271.287 73.7662 239.833C79.161 185.465 83.6118 117.903 51.864 83.6789C47.0509 78.4872 41.4104 75.5987 36.0937 71.4654C33.3585 69.3427 30.4152 66.5736 30.9553 61.5071C32.3576 48.3545 51.8784 36.0296 59.2185 30.2868C79.5007 14.4155 100.429 0.453693 120.956 -14.6722C137.257 -26.6811 156.6 -39.1737 169.637 -57.7549C185.458 -80.3034 169.947 -114.854 169.996 -138.398C170.085 -179.223 206.404 -177.409 227.21 -182.519C251.1 -188.383 278.915 -209.982 277.304 -245.724C276.686 -259.392 272.883 -269.913 276.723 -284.538C282.728 -307.41 296.77 -328.584 309.512 -346.488C328.675 -373.397 350.374 -398.118 373.459 -418.452C389.991 -433.006 416.563 -455.381 432.761 -441.126C443.672 -431.543 452.817 -417.77 461.775 -404.99C475.19 -385.859 487.891 -365.841 500.346 -345.56C529.124 -298.798 556.479 -250.264 582.014 -200.028C599.434 -165.744 637.579 -48.488 641.751 -42.3609C654.195 -24.0983 672.936 -12.8418 689.914 -2.60108C712.497 11.0236 736.115 22.201 759.58 33.6501C770.745 39.1095 782.144 44.228 792.948 50.585C800.638 55.1104 810.606 61.3242 814.04 72.1212C820.747 93.1905 793.03 111.627 781.438 119.519C745.913 143.725 708.021 159.758 671.194 177.478C653.118 186.181 634.896 194.749 617.164 205.39C610.008 209.69 593.741 217.011 593.328 229.391Z" stroke="#9C4DF4" stroke-opacity="0.07"/>
<path fill-rule="evenodd" clip-rule="evenodd" d="M580.181 230.816C583.765 274.327 598.169 314.804 607.728 355.683C612.524 376.204 617.22 397.125 619.309 419.063C620.397 430.472 621.695 444.846 617.268 456.64C605.425 488.192 569.121 457.719 557.127 450.935C533.933 437.827 508.124 422.204 480.699 423.523C463.941 424.334 450.531 435.41 443.14 457.043C439.86 466.641 437.792 475.292 430.974 482.229C424.065 489.257 415.562 491.707 407.744 492.546C385.273 494.967 363.351 485.551 343.823 476.328C320.929 465.482 298.976 452.25 278.141 436.738C259.887 423.163 237.488 418.419 216.764 411.171C189.312 401.565 161.853 390.769 137.684 372.822C118.597 358.643 101.799 339.305 92.6116 312.425C83.2929 285.076 84.4701 254.598 87.5428 222.955C92.1882 175.121 99.7115 111.918 76.3697 76.3942C72.9769 71.2233 68.9739 68.1451 64.5975 64.6278C62.4711 62.9204 59.6414 60.8906 60.1789 56.7475C61.476 46.7729 78.8669 37.7202 84.2504 34.0966C101.435 22.5282 118.968 12.2571 136.256 1.07136C152.397 -9.37152 169.608 -19.9832 183.942 -35.3874C206.764 -59.9251 189.013 -95.7707 203.661 -124.061C212.757 -141.622 230.622 -146.375 244.148 -148.856C260.796 -151.896 280.644 -147.74 295.954 -163.706C307.359 -175.598 304.87 -188.829 305.178 -203.623C305.698 -228.69 317.588 -254.938 329.15 -276.377C344.772 -305.35 364.15 -332.314 385.496 -354.115C395.171 -363.998 405.913 -373.811 417.199 -378.879C427.774 -383.632 434.768 -381.888 442.168 -374.302C464.818 -351.071 482.813 -317.526 500.337 -286.561C522.352 -247.654 543.054 -207.191 561.671 -164.899C574.364 -136.058 587.087 -106.034 594.567 -73.1408C596.516 -64.5665 598.348 -55.4461 598.235 -45.9922C598.164 -38.8761 597.093 -33.7004 599.866 -27.6926C608.086 -9.88924 626.773 -0.139559 640.74 8.25643C663.069 21.6881 686.502 32.5487 709.713 43.7876C723.264 50.3314 750.084 59.9855 752.368 82.8837C754.337 102.654 732.551 118.98 721.355 127.456C693.04 148.891 662.686 163.899 633.196 180.572C619.681 188.213 605.83 195.752 592.909 205.703C589.612 208.237 584.813 211.298 582.267 215.387C579.361 220.079 579.748 225.46 580.181 230.816Z" stroke="#9C4DF4" stroke-opacity="0.07"/>
<path fill-rule="evenodd" clip-rule="evenodd" d="M582.052 222.559C585.956 261.539 595.693 298.078 601.695 336.178C604.385 353.261 606.887 370.96 606.413 389.202C606.159 399.013 605.177 410.905 599.755 419.568C584.194 444.435 553.9 420.274 540.435 413.051C520.44 402.292 497.627 389.607 473.972 392.463C458.477 394.332 447.647 405.426 441.011 424.803C433.894 445.589 422.235 456.189 405.886 459.227C385.394 463.025 365.088 456.309 346.965 448.981C325.141 440.131 304.327 428.506 284.776 414.248C265.764 400.379 244.8 392.208 224.163 382.052C196.804 368.582 169.63 352.481 148.571 326.759C130.237 304.363 118.254 274.658 115.452 239.595C112.515 202.992 120.637 165.048 121.938 127.698C122.749 104.402 123.262 73.1973 111.993 56.1325C108.235 50.4408 97.8325 47.4224 107.24 38.7091C112.618 33.7249 119.551 30.8839 125.42 27.8278C134.903 22.8883 144.448 18.308 153.964 13.5491C174.247 3.40341 195.534 -6.56281 214.54 -22.0416C238.478 -41.5241 232.333 -73.5035 247.536 -99.528C255.716 -113.534 268.383 -120.469 280.236 -124.602C287.908 -127.282 295.643 -128.85 303.32 -129.994C311.339 -131.191 319.798 -130.477 327.818 -133.646C339.241 -138.15 341.547 -151.235 346.053 -164.151C353.967 -186.853 363.828 -208.654 375.412 -229.06C389.607 -254.074 406.291 -278.362 425.571 -296.682C433.075 -303.816 441.659 -310.944 450.372 -313.181C459.086 -315.419 464.8 -310.903 470.456 -304.504C487.242 -285.548 500.456 -259.307 513.033 -234.399C528.775 -203.221 543.199 -170.568 555.472 -136.279C563.944 -112.61 571.946 -87.8338 575.685 -61.0978C576.77 -53.3185 577.499 -45.2879 577.249 -37.0576C577.081 -31.412 575.416 -25.1267 576.627 -19.9585C580.425 -3.81197 599.342 5.22922 609.823 11.6894C630.74 24.5841 653.465 32.8484 674.444 45.5428C685.894 52.4695 704.167 62.6143 705.618 82.1032C706.986 100.426 690.137 116.146 679.495 125.533C658.575 143.992 635.866 157.622 613.948 173.073C604.934 179.434 595.281 185.936 587.188 194.721C579.983 202.553 581.053 212.567 582.052 222.559Z" stroke="#9C4DF4" stroke-opacity="0.07"/>
<path fill-rule="evenodd" clip-rule="evenodd" d="M578.074 219.214C580.078 252.526 586.168 285.077 588.082 318.846C589.199 338.619 591.404 372.087 575.518 387.892C558.073 405.267 534.131 389.516 519.6 381.842C502.306 372.708 481.8 362.388 461.218 366.539C454.71 367.849 448.173 371.021 442.914 377.515C437.285 384.465 435.711 392.864 432.024 401.167C424.287 418.585 410.724 427.487 396.989 430.543C377.574 434.868 358.295 429.93 340.837 423.71C321.068 416.641 302.222 406.865 284.569 394.521C267.691 382.739 250.686 371.716 233.443 360.642C210.885 346.176 189.086 329.281 171.77 305.796C154.716 282.656 143.177 253.407 139.392 219.502C135.703 186.42 139.269 151.566 144.321 117.046C147.19 97.4536 150.513 67.5087 142.667 51.1859C139.179 43.9242 133.912 40.6161 144.057 35.0148C156.831 27.9622 170.91 24.9513 183.963 20.3898C202.794 13.8042 222.06 7.1343 240.348 -3.53111C252.027 -10.3413 260.06 -19.2317 266.606 -33.9781C271.588 -45.2153 275.331 -57.1563 281.436 -67.6735C295.76 -92.3616 318.271 -100.52 338.577 -108.571C351.638 -113.748 362.792 -116.873 374.185 -129.205C387.655 -143.778 399.088 -161.86 411.29 -178.224C424.691 -196.193 439.036 -214.605 455.446 -227.247C470.054 -238.503 481.883 -239.901 492.314 -226.936C508.586 -206.719 519.826 -176.858 529.755 -149.559C539.863 -121.779 548.732 -92.2704 552.999 -60.7427C555.301 -43.7186 554.125 -26.4116 555.129 -9.13877C556.406 12.5579 579.201 20.4348 591.69 27.3072C612.421 38.7151 682.247 65.1033 650.864 114.295C637.766 134.828 618.488 148.807 602.167 163.633C595.397 169.789 586.569 176.69 581.429 185.553C575.831 195.207 577.476 209.19 578.074 219.214Z" stroke="#9C4DF4" stroke-opacity="0.07"/>
<path fill-rule="evenodd" clip-rule="evenodd" d="M571.893 212.231C571.782 241.086 574.29 270.152 571.869 299.727C570.311 318.886 566.186 343.073 550.988 353.978C533.837 366.284 513.272 357.699 498.545 350.596C483.373 343.276 465.665 333.7 447.568 339.51C441.808 341.364 435.952 345.185 431.98 351.863C428.167 358.266 426.417 366.095 422.579 372.645C413.964 387.356 401.396 395.694 388.67 399.246C351.023 409.754 311.74 390.72 281.935 371.068C267.017 361.229 252.744 348.87 238.55 337.271C220.131 322.221 202.644 305.159 188.617 283.479C158.79 237.389 153.071 176.951 160.244 111.623C162.503 91.0606 166.769 70.0724 164.191 50.511C162.868 40.4155 166.271 36.1752 174.055 33.1838C186.222 28.5113 198.905 27.2802 211.105 24.7943C228.457 21.26 246.144 17.7256 263.253 10.9499C275.046 6.27878 284.596 0.525029 293.1 -12.8264C299.165 -22.3452 303.967 -32.9963 309.624 -42.8818C320.373 -61.6591 334.099 -78.1798 349.597 -89.205C361.896 -97.9335 374.78 -104.687 387.642 -110.726C404.373 -118.599 419.722 -127.739 435.437 -139.947C456.254 -156.096 490.365 -188.851 507.949 -161.785C527.34 -131.928 535.961 -84.1656 537.557 -42.5599C538.094 -28.59 536.538 -12.9881 540.273 -0.378356C545.872 18.4811 557.25 25.8224 570.388 34.8434C590.055 48.3554 635.805 71.6406 615.415 115.125C607.335 132.352 594.481 145.035 584.12 159.815C572.497 176.355 571.953 192.555 571.893 212.231Z" stroke="#9C4DF4" stroke-opacity="0.07"/>
<path fill-rule="evenodd" clip-rule="evenodd" d="M565.113 204.965C561.712 240.321 562.267 302.665 529.595 322.008C512.333 332.233 492.979 327.18 477.476 321.424C464.993 316.807 451.145 308.741 436.649 315.735C425.993 320.879 422.119 336.408 414.101 346.525C404.157 359.066 391.719 366.353 379.179 369.625C344.137 378.769 308.508 364.377 280.102 346.918C250.602 328.781 222.824 299.013 203.191 265.121C178.716 222.857 170.881 169.452 175.256 111.707C176.065 101.048 177.277 90.3748 178.265 79.7045C178.925 72.5443 178.481 64.8699 179.728 57.7208C181.811 45.8035 189.01 39.8616 197.364 36.9318C209.385 32.7093 221.806 32.3768 233.742 31.2233C250.069 29.6387 266.571 28.4072 282.891 24.588C293.863 22.0113 305.459 19.0817 314.454 7.66869C320.589 -0.114547 325.571 -9.40695 330.018 -18.7871C339.549 -38.9013 348.085 -54.5945 363.31 -68.5259C388.328 -91.3808 417.516 -107.306 445.417 -118.056C467.314 -126.494 501.716 -139.333 515.472 -114.06C527.826 -91.4049 525.808 -59.0164 527.423 -30.586C528.209 -16.7641 530.102 -3.32858 534.065 8.85701C539.063 24.219 546.018 34.0236 556.343 43.1094C573.719 58.4029 601.402 78.3947 591.358 115.035C587.652 128.557 580.41 140.21 575.621 153.193C569.271 170.347 566.828 187.13 565.113 204.965Z" stroke="#9C4DF4" stroke-opacity="0.07"/>
<path fill-rule="evenodd" clip-rule="evenodd" d="M554.953 196.538C547.313 232.515 538.075 278.126 507.161 293.423C492.187 300.835 476.575 299.972 462.26 297.496C452.005 295.724 438.214 287.756 427.187 296.483C419.079 302.91 412.549 314.995 404.488 322.314C393.408 332.378 381.059 338.44 368.635 341.279C336.267 348.681 303.988 337.871 277.157 322.617C218.863 289.464 182.803 207.59 186.921 116.751C188.146 89.6711 187.436 59.4573 212.132 47.9996C239.085 35.5087 267.989 40.9099 294.714 37.2708C304.923 35.885 317.712 34.576 327.238 25.8734C332.966 20.6436 337.306 12.1139 341.079 4.60564C350.699 -14.511 360.183 -31.1265 374.184 -45.4905C395.814 -67.6918 421.264 -84.3758 446.205 -95.2113C467.955 -104.658 496.748 -113.526 509.067 -87.3582C518.501 -67.2712 517.174 -39.3979 520.635 -15.7818C524.48 10.5131 534.054 33.0591 548.083 50.5409C561.737 67.5318 577.868 83.7766 574.888 113.797C573.866 124.094 571.801 136.916 568.501 146.814C563.022 163.108 558.491 179.737 554.953 196.538V196.538Z" stroke="#9C4DF4" stroke-opacity="0.07"/>
<path fill-rule="evenodd" clip-rule="evenodd" d="M543.169 188.098C531.46 221.665 516.103 254.491 488.518 268.256C475.647 274.676 462.447 276.434 449.513 277.353C439.997 278.029 430.668 277.699 421.215 283.059C412.461 288.019 404.207 295.101 395.512 300.391C384.018 307.421 372.06 312.119 360.097 314.303C330.126 319.74 300.761 311.671 275.368 298.36C263.073 291.922 250.158 284.066 240.723 271.921C231.61 260.196 223.763 246.193 217.2 231.653C203.239 200.76 195.738 164.467 196.376 125.579C196.817 98.9071 201.272 75.7565 223.262 63.5927C248.05 49.8834 275.566 51.8868 300.416 49.0461C317.459 47.0979 335.862 46.3609 348.684 26.0449C358.888 9.88063 368.326 -5.63189 380.919 -18.8731C399.556 -38.3614 420.34 -53.3169 442.04 -62.8525C461.853 -71.5085 483.548 -75.4794 495.986 -54.9399C505.835 -38.6545 508.451 -15.6161 514.557 3.78376C521.35 25.4319 532.172 42.2605 544.411 58.2377C555.401 72.6163 564.287 89.1799 564.966 111.772C565.107 116.39 565.193 121.371 564.733 126.111C564.146 132.158 561.693 136.859 559.418 142.519C553.4 157.447 548.47 172.906 543.169 188.098Z" stroke="#9C4DF4" stroke-opacity="0.07"/>
<path fill-rule="evenodd" clip-rule="evenodd" d="M528.827 181.587C514.208 211.054 495.802 235.729 471.316 249.641C460.845 255.595 450.111 259.041 439.469 263.772C430.895 267.591 422.848 271.084 414.14 273.094C393.494 277.838 373.401 288.555 352.647 291.14C324.929 294.617 298.039 288.54 274.042 276.953C262.324 271.296 250.824 264.2 240.864 254.552C232.31 246.267 226.31 233.793 221.032 221.626C210.683 197.786 203.356 169.005 203.578 139.156C204.068 73.3484 267.744 69.2798 301.686 64.5828C317.297 62.4203 339.416 62.7079 353.181 46.5632C363.017 35.0312 371.716 22.4019 382.268 11.9306C410.607 -16.1895 453.382 -42.7337 480.598 -16.4463C492.246 -5.20123 499.22 12.5872 508.02 27.3762C517.081 42.6058 527.975 55.1345 538.781 68.09C548.881 80.1953 555.77 92.2478 556.415 112.237C556.726 121.785 552.354 129.935 548.537 138.746C542.263 153.216 535.745 167.625 528.827 181.587Z" stroke="#9C4DF4" stroke-opacity="0.07"/>
<path fill-rule="evenodd" clip-rule="evenodd" d="M515.06 177.136C488.622 218.59 447.154 255.132 408.34 262.988C362.684 272.229 316.787 274.86 276.315 256.758C257.551 248.365 237.998 237.1 227.282 214.713C219.123 197.681 211.022 175.051 212.934 152.426C217.606 97.081 271.279 87.559 302.051 81.7349C318.618 78.6 338.13 77.8737 354.349 67.7833C363.757 61.935 372.193 51.4279 381.089 44.0122C408.05 21.54 439.93 10.4219 466.833 23.091C479.27 28.9507 489.573 39.4622 499.956 49.3351C510.586 59.4404 521.817 68.7013 531.979 79.5737C540.091 88.2543 549.078 99.6695 545.479 116.503C540.946 137.717 525.855 160.206 515.06 177.136Z" stroke="#9C4DF4" stroke-opacity="0.07"/>
<path fill-rule="evenodd" clip-rule="evenodd" d="M499.879 176.238C472.532 213.49 437.849 244.291 400.751 252.168C381.078 256.345 361.27 254.923 342.129 253.814C320.433 252.555 299.101 248.474 279.342 240.105C254.74 229.686 216.609 209.265 222.944 164.099C229.233 119.269 274.105 106.767 300.302 100.075C317.093 95.7938 334.186 93.0276 351.021 87.2965C360.15 84.1901 368.495 79.0784 377.334 74.1438C401.79 60.4485 429.629 55.4682 453.745 59.2083C477.12 62.831 502.43 74.7787 520.811 91.63C528.745 98.8956 532.7 107.639 529.109 122.238C524.105 142.525 511.178 160.851 499.879 176.238Z" stroke="#9C4DF4" stroke-opacity="0.07"/>
<path fill-rule="evenodd" clip-rule="evenodd" d="M482.774 179.539C457.904 211.79 426.527 235.259 393.869 242.357C357.259 250.314 318.937 242.305 286.462 229.254C269.202 222.314 230.814 209.312 236.969 174.822C243.123 140.332 279.719 127.451 300.435 120.754C325.564 112.656 351.617 106.075 377.021 100.784C399.098 96.1768 422.334 91.9258 444.009 91.5662C456.252 91.3256 468.295 92.5445 479.997 95.2087C488.65 97.2057 499.971 99.088 506.455 106.538C522.808 125.336 494.667 164.118 482.774 179.539Z" stroke="#9C4DF4" stroke-opacity="0.07"/>
<path fill-rule="evenodd" clip-rule="evenodd" d="M463.051 180.709C413.908 240.241 348.839 241.243 296.417 221.031C284.237 216.331 249.012 205.393 253.301 179.794C257.463 154.976 288.017 143.256 302.389 137.631C346.921 120.2 393.314 116.522 437.833 111.882C451.729 110.433 478.259 104.784 486.522 121.564C495.487 139.799 473.239 168.363 463.051 180.709Z" stroke="#9C4DF4" stroke-opacity="0.07"/>
<path fill-rule="evenodd" clip-rule="evenodd" d="M440.882 183.379C402.656 225.813 349.701 228.696 309.448 213.886C299.59 210.257 273.891 202.409 274.257 183.445C274.593 165.902 298.48 156.659 307.634 152.752C328.014 144.05 349.185 139.911 369.918 136.198C389.092 132.757 408.559 129.1 427.486 128.064C437.453 127.522 456.842 125.065 460.953 139.386C465.383 154.796 449.37 173.956 440.882 183.379Z" stroke="#9C4DF4" stroke-opacity="0.07"/>
<path fill-rule="evenodd" clip-rule="evenodd" d="M416.346 186.537C389.933 213.245 352.23 216.38 324.786 207.11C317.403 204.611 301.038 200.056 299.955 187.298C298.96 175.55 312.891 168.967 319.18 165.826C347.052 151.905 381.004 145.73 408.869 146.785C415.875 147.051 428.743 146.962 430.898 157.692C433.105 168.707 422.412 180.405 416.346 186.537Z" stroke="#9C4DF4" stroke-opacity="0.07"/>
</g>
</svg>
