<svg width="29" height="28" viewBox="0 0 29 28" fill="none" xmlns="http://www.w3.org/2000/svg">
<circle cx="14.2791" cy="13.8367" r="13.8367" fill="#FF6652"/>
<path d="M14.2794 8.80515C12.9129 8.80515 12.7414 8.81112 12.2048 8.83554C11.6691 8.86007 11.3035 8.94488 10.9836 9.0693C10.6527 9.19781 10.372 9.36973 10.0923 9.6495C9.81244 9.92917 9.64053 10.2099 9.5116 10.5407C9.38687 10.8607 9.30196 11.2265 9.27785 11.7619C9.25385 12.2986 9.24756 12.4702 9.24756 13.8367C9.24756 15.2032 9.25364 15.3741 9.27796 15.9108C9.30259 16.4465 9.38739 16.8121 9.51171 17.132C9.64032 17.463 9.81223 17.7437 10.092 18.0233C10.3715 18.3032 10.6523 18.4756 10.983 18.6041C11.3031 18.7285 11.6688 18.8133 12.2043 18.8378C12.741 18.8622 12.9124 18.8682 14.2787 18.8682C15.6453 18.8682 15.8162 18.8622 16.3529 18.8378C16.8886 18.8133 17.2546 18.7285 17.5747 18.6041C17.9055 18.4756 18.1858 18.3032 18.4654 18.0233C18.7452 17.7437 18.9172 17.463 19.0461 17.1321C19.1698 16.8121 19.2547 16.4464 19.2798 15.9109C19.3039 15.3742 19.3102 15.2032 19.3102 13.8367C19.3102 12.4702 19.3039 12.2987 19.2798 11.762C19.2547 11.2264 19.1698 10.8607 19.0461 10.5408C18.9172 10.2099 18.7452 9.92917 18.4654 9.6495C18.1855 9.36962 17.9056 9.19771 17.5744 9.0693C17.2536 8.94488 16.8878 8.86007 16.3522 8.83554C15.8155 8.81112 15.6447 8.80515 14.2778 8.80515H14.2794ZM13.828 9.71187C13.962 9.71166 14.1114 9.71187 14.2794 9.71187C15.6227 9.71187 15.782 9.71669 16.3125 9.7408C16.803 9.76323 17.0693 9.84521 17.2466 9.91408C17.4814 10.0053 17.6488 10.1143 17.8248 10.2904C18.0009 10.4665 18.1099 10.6342 18.2013 10.869C18.2702 11.0462 18.3523 11.3124 18.3746 11.803C18.3987 12.3334 18.4039 12.4927 18.4039 13.8355C18.4039 15.1783 18.3987 15.3377 18.3746 15.8681C18.3522 16.3586 18.2702 16.6249 18.2013 16.802C18.1101 17.0368 18.0009 17.204 17.8248 17.38C17.6487 17.5561 17.4815 17.6652 17.2466 17.7564C17.0695 17.8255 16.803 17.9073 16.3125 17.9297C15.7821 17.9538 15.6227 17.9591 14.2794 17.9591C12.9359 17.9591 12.7767 17.9538 12.2463 17.9297C11.7557 17.9071 11.4895 17.8251 11.312 17.7563C11.0772 17.6651 10.9095 17.556 10.7334 17.3799C10.5573 17.2038 10.4483 17.0365 10.3569 16.8016C10.288 16.6245 10.2059 16.3582 10.1836 15.8676C10.1595 15.3372 10.1547 15.1779 10.1547 13.8343C10.1547 12.4906 10.1595 12.3321 10.1836 11.8017C10.206 11.3112 10.288 11.0449 10.3569 10.8676C10.4481 10.6327 10.5573 10.465 10.7334 10.2889C10.9095 10.1128 11.0772 10.0038 11.312 9.9124C11.4894 9.84321 11.7557 9.76145 12.2463 9.73891C12.7104 9.71795 12.8903 9.71166 13.828 9.71061V9.71187ZM16.9651 10.5473C16.6317 10.5473 16.3613 10.8174 16.3613 11.1509C16.3613 11.4842 16.6317 11.7547 16.9651 11.7547C17.2984 11.7547 17.5688 11.4842 17.5688 11.1509C17.5688 10.8176 17.2984 10.5471 16.9651 10.5471V10.5473ZM14.2794 11.2528C12.8524 11.2528 11.6955 12.4097 11.6955 13.8367C11.6955 15.2636 12.8524 16.4201 14.2794 16.4201C15.7063 16.4201 16.8628 15.2636 16.8628 13.8367C16.8628 12.4097 15.7062 11.2528 14.2793 11.2528H14.2794ZM14.2794 12.1595C15.2056 12.1595 15.9565 12.9104 15.9565 13.8367C15.9565 14.7629 15.2056 15.5139 14.2794 15.5139C13.3531 15.5139 12.6022 14.7629 12.6022 13.8367C12.6022 12.9104 13.3531 12.1595 14.2794 12.1595Z" fill="white"/>
</svg>
