<svg width="17" height="16" viewBox="0 0 17 16" fill="none" xmlns="http://www.w3.org/2000/svg">
<g clip-path="url(#clip0_44_6654)">
<path d="M16.1706 14.2732C16.2069 14.2735 16.2429 14.2665 16.2763 14.2525C16.3097 14.2386 16.3399 14.2179 16.3649 14.1919C16.39 14.1659 16.4094 14.1351 16.4219 14.1014C16.4344 14.0676 16.4397 14.0317 16.4377 13.9959C16.4377 13.7992 16.3178 13.7052 16.0719 13.7052H15.6747V14.7349H15.8241V14.2861H16.0077L16.0119 14.2915L16.2969 14.7349H16.4566L16.1501 14.276L16.1706 14.2732ZM15.9978 14.17H15.8245V13.8219H16.0441C16.1576 13.8219 16.2869 13.8403 16.2869 13.9873C16.2869 14.1565 16.156 14.17 15.9969 14.17" fill="#0A033C"/>
<path d="M12.2731 12.9825H10.1543V9.69703C10.1543 8.91359 10.1402 7.90505 9.05228 7.90505C7.94874 7.90505 7.77989 8.75865 7.77989 9.64V12.9823H5.66108V6.22605H7.69513V7.14935H7.72361C7.92717 6.80473 8.22132 6.52123 8.57473 6.32905C8.92815 6.13686 9.32759 6.04318 9.73052 6.05799C11.878 6.05799 12.274 7.45661 12.274 9.27613L12.2731 12.9825ZM3.27037 5.30252C3.02719 5.30256 2.78945 5.2312 2.58722 5.09746C2.385 4.96372 2.22738 4.77361 2.13427 4.55116C2.04117 4.32872 2.01677 4.08393 2.06417 3.84776C2.11157 3.61159 2.22864 3.39464 2.40057 3.22434C2.57249 3.05405 2.79156 2.93806 3.03007 2.89104C3.26857 2.84402 3.51579 2.86809 3.74048 2.9602C3.96518 3.0523 4.15723 3.20831 4.29238 3.4085C4.42752 3.60868 4.49968 3.84405 4.49972 4.08484C4.49975 4.24472 4.46797 4.40304 4.40621 4.55076C4.34444 4.69848 4.25391 4.83271 4.13975 4.94578C4.0256 5.05885 3.89006 5.14855 3.74089 5.20976C3.59172 5.27097 3.43184 5.30249 3.27037 5.30252ZM4.32977 12.9825H2.20877V6.22605H4.32977V12.9825ZM13.3294 0.919368H1.14408C0.867504 0.916278 0.600993 1.02203 0.403132 1.2134C0.20527 1.40476 0.0922426 1.66608 0.0888672 1.93992V14.0553C0.0921271 14.3293 0.205088 14.5907 0.402943 14.7823C0.600798 14.9739 0.867366 15.0798 1.14408 15.0769H13.3294C13.6066 15.0804 13.874 14.9747 14.0726 14.7831C14.2712 14.5916 14.3849 14.3298 14.3888 14.0553V1.93905C14.3848 1.66466 14.271 1.40305 14.0724 1.21169C13.8737 1.02033 13.6065 0.914875 13.3294 0.918494" fill="#0A033C"/>
<path d="M16.0161 13.2464C15.7583 13.2489 15.512 13.3523 15.3311 13.5341C15.1501 13.7159 15.0492 13.9612 15.0504 14.2165C15.0517 14.4717 15.155 14.7161 15.3377 14.8962C15.5204 15.0762 15.7677 15.1773 16.0255 15.1773C16.2833 15.1773 16.5306 15.0762 16.7133 14.8962C16.8961 14.7161 16.9994 14.4717 17.0006 14.2165C17.0018 13.9612 16.9009 13.7159 16.72 13.5341C16.539 13.3523 16.2927 13.2489 16.0349 13.2464H16.0161ZM16.0161 15.0668C15.8471 15.0696 15.6809 15.0226 15.5388 14.932C15.3966 14.8413 15.2848 14.7109 15.2175 14.5573C15.1502 14.4036 15.1304 14.2337 15.1606 14.069C15.1909 13.9042 15.2698 13.7521 15.3873 13.6317C15.5049 13.5114 15.6559 13.4282 15.8212 13.3928C15.9864 13.3574 16.1586 13.3714 16.3159 13.4329C16.4732 13.4944 16.6085 13.6006 16.7048 13.7383C16.8011 13.876 16.854 14.0388 16.8568 14.2062C16.8568 14.211 16.8568 14.2156 16.8568 14.2204C16.8615 14.44 16.778 14.6525 16.6245 14.8112C16.471 14.9698 16.2602 15.0616 16.0384 15.0663H16.0163" fill="#0A033C"/>
</g>
<defs>
<clipPath id="clip0_44_6654">
<rect width="16.9116" height="14.276" fill="white" transform="translate(0.0888672 0.918457)"/>
</clipPath>
</defs>
</svg>
