<svg width="185" height="133" viewBox="0 0 185 133" fill="none" xmlns="http://www.w3.org/2000/svg">
<path d="M176.178 11.5057L177.536 11.5057L177.536 13.8017L179.86 13.8017L179.86 15.2017L177.536 15.2017L177.536 17.4978L176.178 17.4978L176.178 15.2017L173.77 15.2017L173.77 13.8017L176.178 13.8017L176.178 11.5057Z" fill="#9C4DF4" fill-opacity="0.3"/>
<path d="M176.178 30.5057L177.536 30.5057L177.536 32.8017L179.86 32.8017L179.86 34.2017L177.536 34.2017L177.536 36.4978L176.178 36.4978L176.178 34.2017L173.77 34.2017L173.77 32.8017L176.178 32.8017L176.178 30.5057Z" fill="#9C4DF4" fill-opacity="0.3"/>
<path d="M176.178 49.5057L177.536 49.5057L177.536 51.8017L179.86 51.8017L179.86 53.2017L177.536 53.2017L177.536 55.4978L176.178 55.4978L176.178 53.2017L173.77 53.2017L173.77 51.8017L176.178 51.8017L176.178 49.5057Z" fill="#9C4DF4" fill-opacity="0.3"/>
<path d="M176.178 68.5057L177.536 68.5057L177.536 70.8017L179.86 70.8017L179.86 72.2017L177.536 72.2017L177.536 74.4978L176.178 74.4978L176.178 72.2017L173.77 72.2017L173.77 70.8017L176.178 70.8017L176.178 68.5057Z" fill="#9C4DF4" fill-opacity="0.3"/>
<path d="M176.178 87.5057L177.536 87.5057L177.536 89.8017L179.86 89.8017L179.86 91.2017L177.536 91.2017L177.536 93.4978L176.178 93.4978L176.178 91.2017L173.77 91.2017L173.77 89.8017L176.178 89.8017L176.178 87.5057Z" fill="#9C4DF4" fill-opacity="0.3"/>
<path d="M176.178 106.506L177.536 106.506L177.536 108.802L179.86 108.802L179.86 110.202L177.536 110.202L177.536 112.498L176.178 112.498L176.178 110.202L173.77 110.202L173.77 108.802L176.178 108.802L176.178 106.506Z" fill="#9C4DF4" fill-opacity="0.3"/>
<path d="M176.178 125.506L177.536 125.506L177.536 127.802L179.86 127.802L179.86 129.202L177.536 129.202L177.536 131.498L176.178 131.498L176.178 129.202L173.77 129.202L173.77 127.802L176.178 127.802L176.178 125.506Z" fill="#9C4DF4" fill-opacity="0.3"/>
<path d="M157.178 11.5057L158.536 11.5057L158.536 13.8017L160.86 13.8017L160.86 15.2017L158.536 15.2017L158.536 17.4978L157.178 17.4978L157.178 15.2017L154.77 15.2017L154.77 13.8017L157.178 13.8017L157.178 11.5057Z" fill="#9C4DF4" fill-opacity="0.3"/>
<path d="M157.178 30.5057L158.536 30.5057L158.536 32.8017L160.86 32.8017L160.86 34.2017L158.536 34.2017L158.536 36.4978L157.178 36.4978L157.178 34.2017L154.77 34.2017L154.77 32.8017L157.178 32.8017L157.178 30.5057Z" fill="#9C4DF4" fill-opacity="0.3"/>
<path d="M157.178 49.5057L158.536 49.5057L158.536 51.8017L160.86 51.8017L160.86 53.2017L158.536 53.2017L158.536 55.4978L157.178 55.4978L157.178 53.2017L154.77 53.2017L154.77 51.8017L157.178 51.8017L157.178 49.5057Z" fill="#9C4DF4" fill-opacity="0.3"/>
<path d="M157.178 68.5057L158.536 68.5057L158.536 70.8017L160.86 70.8017L160.86 72.2017L158.536 72.2017L158.536 74.4978L157.178 74.4978L157.178 72.2017L154.77 72.2017L154.77 70.8017L157.178 70.8017L157.178 68.5057Z" fill="#9C4DF4" fill-opacity="0.3"/>
<path d="M157.178 87.5057L158.536 87.5057L158.536 89.8017L160.86 89.8017L160.86 91.2017L158.536 91.2017L158.536 93.4978L157.178 93.4978L157.178 91.2017L154.77 91.2017L154.77 89.8017L157.178 89.8017L157.178 87.5057Z" fill="#9C4DF4" fill-opacity="0.3"/>
<path d="M157.178 106.506L158.536 106.506L158.536 108.802L160.86 108.802L160.86 110.202L158.536 110.202L158.536 112.498L157.178 112.498L157.178 110.202L154.77 110.202L154.77 108.802L157.178 108.802L157.178 106.506Z" fill="#9C4DF4" fill-opacity="0.3"/>
<path d="M157.178 125.506L158.536 125.506L158.536 127.802L160.86 127.802L160.86 129.202L158.536 129.202L158.536 131.498L157.178 131.498L157.178 129.202L154.77 129.202L154.77 127.802L157.178 127.802L157.178 125.506Z" fill="#9C4DF4" fill-opacity="0.3"/>
<path d="M138.178 11.5057L139.536 11.5057L139.536 13.8017L141.86 13.8017L141.86 15.2017L139.536 15.2017L139.536 17.4978L138.178 17.4978L138.178 15.2017L135.77 15.2017L135.77 13.8017L138.178 13.8017L138.178 11.5057Z" fill="#9C4DF4" fill-opacity="0.3"/>
<path d="M138.178 30.5057L139.536 30.5057L139.536 32.8017L141.86 32.8017L141.86 34.2017L139.536 34.2017L139.536 36.4978L138.178 36.4978L138.178 34.2017L135.77 34.2017L135.77 32.8017L138.178 32.8017L138.178 30.5057Z" fill="#9C4DF4" fill-opacity="0.3"/>
<path d="M138.178 49.5057L139.536 49.5057L139.536 51.8017L141.86 51.8017L141.86 53.2017L139.536 53.2017L139.536 55.4978L138.178 55.4978L138.178 53.2017L135.77 53.2017L135.77 51.8017L138.178 51.8017L138.178 49.5057Z" fill="#9C4DF4" fill-opacity="0.3"/>
<path d="M138.178 68.5057L139.536 68.5057L139.536 70.8017L141.86 70.8017L141.86 72.2017L139.536 72.2017L139.536 74.4978L138.178 74.4978L138.178 72.2017L135.77 72.2017L135.77 70.8017L138.178 70.8017L138.178 68.5057Z" fill="#9C4DF4" fill-opacity="0.3"/>
<path d="M138.178 87.5057L139.536 87.5057L139.536 89.8017L141.86 89.8017L141.86 91.2017L139.536 91.2017L139.536 93.4978L138.178 93.4978L138.178 91.2017L135.77 91.2017L135.77 89.8017L138.178 89.8017L138.178 87.5057Z" fill="#9C4DF4" fill-opacity="0.3"/>
<path d="M138.178 106.506L139.536 106.506L139.536 108.802L141.86 108.802L141.86 110.202L139.536 110.202L139.536 112.498L138.178 112.498L138.178 110.202L135.77 110.202L135.77 108.802L138.178 108.802L138.178 106.506Z" fill="#9C4DF4" fill-opacity="0.3"/>
<path d="M138.178 125.506L139.536 125.506L139.536 127.802L141.86 127.802L141.86 129.202L139.536 129.202L139.536 131.498L138.178 131.498L138.178 129.202L135.77 129.202L135.77 127.802L138.178 127.802L138.178 125.506Z" fill="#9C4DF4" fill-opacity="0.3"/>
<path d="M119.178 11.5057L120.536 11.5057L120.536 13.8017L122.86 13.8017L122.86 15.2017L120.536 15.2017L120.536 17.4978L119.178 17.4978L119.178 15.2017L116.77 15.2017L116.77 13.8017L119.178 13.8017L119.178 11.5057Z" fill="#9C4DF4" fill-opacity="0.3"/>
<path d="M119.178 30.5057L120.536 30.5057L120.536 32.8017L122.86 32.8017L122.86 34.2017L120.536 34.2017L120.536 36.4978L119.178 36.4978L119.178 34.2017L116.77 34.2017L116.77 32.8017L119.178 32.8017L119.178 30.5057Z" fill="#9C4DF4" fill-opacity="0.3"/>
<path d="M119.178 49.5057L120.536 49.5057L120.536 51.8017L122.86 51.8017L122.86 53.2017L120.536 53.2017L120.536 55.4978L119.178 55.4978L119.178 53.2017L116.77 53.2017L116.77 51.8017L119.178 51.8017L119.178 49.5057Z" fill="#9C4DF4" fill-opacity="0.3"/>
<path d="M119.178 68.5057L120.536 68.5057L120.536 70.8017L122.86 70.8017L122.86 72.2017L120.536 72.2017L120.536 74.4978L119.178 74.4978L119.178 72.2017L116.77 72.2017L116.77 70.8017L119.178 70.8017L119.178 68.5057Z" fill="#9C4DF4" fill-opacity="0.3"/>
<path d="M119.178 87.5057L120.536 87.5057L120.536 89.8017L122.86 89.8017L122.86 91.2017L120.536 91.2017L120.536 93.4978L119.178 93.4978L119.178 91.2017L116.77 91.2017L116.77 89.8017L119.178 89.8017L119.178 87.5057Z" fill="#9C4DF4" fill-opacity="0.3"/>
<path d="M119.178 106.506L120.536 106.506L120.536 108.802L122.86 108.802L122.86 110.202L120.536 110.202L120.536 112.498L119.178 112.498L119.178 110.202L116.77 110.202L116.77 108.802L119.178 108.802L119.178 106.506Z" fill="#9C4DF4" fill-opacity="0.3"/>
<path d="M119.178 125.506L120.536 125.506L120.536 127.802L122.86 127.802L122.86 129.202L120.536 129.202L120.536 131.498L119.178 131.498L119.178 129.202L116.77 129.202L116.77 127.802L119.178 127.802L119.178 125.506Z" fill="#9C4DF4" fill-opacity="0.3"/>
<path d="M100.178 11.5057L101.536 11.5057L101.536 13.8017L103.86 13.8017L103.86 15.2017L101.536 15.2017L101.536 17.4978L100.178 17.4978L100.178 15.2017L97.77 15.2017L97.77 13.8017L100.178 13.8017L100.178 11.5057Z" fill="#9C4DF4" fill-opacity="0.3"/>
<path d="M100.178 30.5057L101.536 30.5057L101.536 32.8017L103.86 32.8017L103.86 34.2017L101.536 34.2017L101.536 36.4978L100.178 36.4978L100.178 34.2017L97.77 34.2017L97.77 32.8017L100.178 32.8017L100.178 30.5057Z" fill="#9C4DF4" fill-opacity="0.3"/>
<path d="M100.178 49.5057L101.536 49.5057L101.536 51.8017L103.86 51.8017L103.86 53.2017L101.536 53.2017L101.536 55.4978L100.178 55.4978L100.178 53.2017L97.77 53.2017L97.77 51.8017L100.178 51.8017L100.178 49.5057Z" fill="#9C4DF4" fill-opacity="0.3"/>
<path d="M100.178 68.5057L101.536 68.5057L101.536 70.8017L103.86 70.8017L103.86 72.2017L101.536 72.2017L101.536 74.4978L100.178 74.4978L100.178 72.2017L97.77 72.2017L97.77 70.8017L100.178 70.8017L100.178 68.5057Z" fill="#9C4DF4" fill-opacity="0.3"/>
<path d="M100.178 87.5057L101.536 87.5057L101.536 89.8017L103.86 89.8017L103.86 91.2017L101.536 91.2017L101.536 93.4978L100.178 93.4978L100.178 91.2017L97.77 91.2017L97.77 89.8017L100.178 89.8017L100.178 87.5057Z" fill="#9C4DF4" fill-opacity="0.3"/>
<path d="M100.178 106.506L101.536 106.506L101.536 108.802L103.86 108.802L103.86 110.202L101.536 110.202L101.536 112.498L100.178 112.498L100.178 110.202L97.77 110.202L97.77 108.802L100.178 108.802L100.178 106.506Z" fill="#9C4DF4" fill-opacity="0.3"/>
<path d="M100.178 125.506L101.536 125.506L101.536 127.802L103.86 127.802L103.86 129.202L101.536 129.202L101.536 131.498L100.178 131.498L100.178 129.202L97.77 129.202L97.77 127.802L100.178 127.802L100.178 125.506Z" fill="#9C4DF4" fill-opacity="0.3"/>
<path d="M81.178 11.5057L82.536 11.5057L82.536 13.8017L84.86 13.8017L84.86 15.2017L82.536 15.2017L82.536 17.4978L81.178 17.4978L81.178 15.2017L78.77 15.2017L78.77 13.8017L81.178 13.8017L81.178 11.5057Z" fill="#9C4DF4" fill-opacity="0.3"/>
<path d="M81.178 30.5057L82.536 30.5057L82.536 32.8017L84.86 32.8017L84.86 34.2017L82.536 34.2017L82.536 36.4978L81.178 36.4978L81.178 34.2017L78.77 34.2017L78.77 32.8017L81.178 32.8017L81.178 30.5057Z" fill="#9C4DF4" fill-opacity="0.3"/>
<path d="M81.178 49.5057L82.536 49.5057L82.536 51.8017L84.86 51.8017L84.86 53.2017L82.536 53.2017L82.536 55.4978L81.178 55.4978L81.178 53.2017L78.77 53.2017L78.77 51.8017L81.178 51.8017L81.178 49.5057Z" fill="#9C4DF4" fill-opacity="0.3"/>
<path d="M81.178 68.5057L82.536 68.5057L82.536 70.8017L84.86 70.8017L84.86 72.2017L82.536 72.2017L82.536 74.4978L81.178 74.4978L81.178 72.2017L78.77 72.2017L78.77 70.8017L81.178 70.8017L81.178 68.5057Z" fill="#9C4DF4" fill-opacity="0.3"/>
<path d="M81.178 87.5057L82.536 87.5057L82.536 89.8017L84.86 89.8017L84.86 91.2017L82.536 91.2017L82.536 93.4978L81.178 93.4978L81.178 91.2017L78.77 91.2017L78.77 89.8017L81.178 89.8017L81.178 87.5057Z" fill="#9C4DF4" fill-opacity="0.3"/>
<path d="M81.178 106.506L82.536 106.506L82.536 108.802L84.86 108.802L84.86 110.202L82.536 110.202L82.536 112.498L81.178 112.498L81.178 110.202L78.77 110.202L78.77 108.802L81.178 108.802L81.178 106.506Z" fill="#9C4DF4" fill-opacity="0.3"/>
<path d="M81.178 125.506L82.536 125.506L82.536 127.802L84.86 127.802L84.86 129.202L82.536 129.202L82.536 131.498L81.178 131.498L81.178 129.202L78.77 129.202L78.77 127.802L81.178 127.802L81.178 125.506Z" fill="#9C4DF4" fill-opacity="0.3"/>
<path d="M62.178 11.5057L63.536 11.5057L63.536 13.8017L65.86 13.8017L65.86 15.2017L63.536 15.2017L63.536 17.4978L62.178 17.4978L62.178 15.2017L59.77 15.2017L59.77 13.8017L62.178 13.8017L62.178 11.5057Z" fill="#9C4DF4" fill-opacity="0.3"/>
<path d="M62.178 30.5057L63.536 30.5057L63.536 32.8017L65.86 32.8017L65.86 34.2017L63.536 34.2017L63.536 36.4978L62.178 36.4978L62.178 34.2017L59.77 34.2017L59.77 32.8017L62.178 32.8017L62.178 30.5057Z" fill="#9C4DF4" fill-opacity="0.3"/>
<path d="M62.178 49.5057L63.536 49.5057L63.536 51.8017L65.86 51.8017L65.86 53.2017L63.536 53.2017L63.536 55.4978L62.178 55.4978L62.178 53.2017L59.77 53.2017L59.77 51.8017L62.178 51.8017L62.178 49.5057Z" fill="#9C4DF4" fill-opacity="0.3"/>
<path d="M62.178 68.5057L63.536 68.5057L63.536 70.8017L65.86 70.8017L65.86 72.2017L63.536 72.2017L63.536 74.4978L62.178 74.4978L62.178 72.2017L59.77 72.2017L59.77 70.8017L62.178 70.8017L62.178 68.5057Z" fill="#9C4DF4" fill-opacity="0.3"/>
<path d="M62.178 87.5057L63.536 87.5057L63.536 89.8017L65.86 89.8017L65.86 91.2017L63.536 91.2017L63.536 93.4978L62.178 93.4978L62.178 91.2017L59.77 91.2017L59.77 89.8017L62.178 89.8017L62.178 87.5057Z" fill="#9C4DF4" fill-opacity="0.3"/>
<path d="M62.178 106.506L63.536 106.506L63.536 108.802L65.86 108.802L65.86 110.202L63.536 110.202L63.536 112.498L62.178 112.498L62.178 110.202L59.77 110.202L59.77 108.802L62.178 108.802L62.178 106.506Z" fill="#9C4DF4" fill-opacity="0.3"/>
<path d="M62.178 125.506L63.536 125.506L63.536 127.802L65.86 127.802L65.86 129.202L63.536 129.202L63.536 131.498L62.178 131.498L62.178 129.202L59.77 129.202L59.77 127.802L62.178 127.802L62.178 125.506Z" fill="#9C4DF4" fill-opacity="0.3"/>
<path d="M43.178 11.5057L44.536 11.5057L44.536 13.8017L46.86 13.8017L46.86 15.2017L44.536 15.2017L44.536 17.4978L43.178 17.4978L43.178 15.2017L40.77 15.2017L40.77 13.8017L43.178 13.8017L43.178 11.5057Z" fill="#9C4DF4" fill-opacity="0.3"/>
<path d="M43.178 30.5057L44.536 30.5057L44.536 32.8017L46.86 32.8017L46.86 34.2017L44.536 34.2017L44.536 36.4978L43.178 36.4978L43.178 34.2017L40.77 34.2017L40.77 32.8017L43.178 32.8017L43.178 30.5057Z" fill="#9C4DF4" fill-opacity="0.3"/>
<path d="M43.178 49.5057L44.536 49.5057L44.536 51.8017L46.86 51.8017L46.86 53.2017L44.536 53.2017L44.536 55.4978L43.178 55.4978L43.178 53.2017L40.77 53.2017L40.77 51.8017L43.178 51.8017L43.178 49.5057Z" fill="#9C4DF4" fill-opacity="0.3"/>
<path d="M43.178 68.5057L44.536 68.5057L44.536 70.8017L46.86 70.8017L46.86 72.2017L44.536 72.2017L44.536 74.4978L43.178 74.4978L43.178 72.2017L40.77 72.2017L40.77 70.8017L43.178 70.8017L43.178 68.5057Z" fill="#9C4DF4" fill-opacity="0.3"/>
<path d="M43.178 87.5057L44.536 87.5057L44.536 89.8017L46.86 89.8017L46.86 91.2017L44.536 91.2017L44.536 93.4978L43.178 93.4978L43.178 91.2017L40.77 91.2017L40.77 89.8017L43.178 89.8017L43.178 87.5057Z" fill="#9C4DF4" fill-opacity="0.3"/>
<path d="M43.178 106.506L44.536 106.506L44.536 108.802L46.86 108.802L46.86 110.202L44.536 110.202L44.536 112.498L43.178 112.498L43.178 110.202L40.77 110.202L40.77 108.802L43.178 108.802L43.178 106.506Z" fill="#9C4DF4" fill-opacity="0.3"/>
<path d="M43.178 125.506L44.536 125.506L44.536 127.802L46.86 127.802L46.86 129.202L44.536 129.202L44.536 131.498L43.178 131.498L43.178 129.202L40.77 129.202L40.77 127.802L43.178 127.802L43.178 125.506Z" fill="#9C4DF4" fill-opacity="0.3"/>
<path d="M24.178 11.5057L25.536 11.5057L25.536 13.8017L27.86 13.8017L27.86 15.2017L25.536 15.2017L25.536 17.4978L24.178 17.4978L24.178 15.2017L21.77 15.2017L21.77 13.8017L24.178 13.8017L24.178 11.5057Z" fill="#9C4DF4" fill-opacity="0.3"/>
<path d="M24.178 30.5057L25.536 30.5057L25.536 32.8017L27.86 32.8017L27.86 34.2017L25.536 34.2017L25.536 36.4978L24.178 36.4978L24.178 34.2017L21.77 34.2017L21.77 32.8017L24.178 32.8017L24.178 30.5057Z" fill="#9C4DF4" fill-opacity="0.3"/>
<path d="M24.178 49.5057L25.536 49.5057L25.536 51.8017L27.86 51.8017L27.86 53.2017L25.536 53.2017L25.536 55.4978L24.178 55.4978L24.178 53.2017L21.77 53.2017L21.77 51.8017L24.178 51.8017L24.178 49.5057Z" fill="#9C4DF4" fill-opacity="0.3"/>
<path d="M24.178 68.5057L25.536 68.5057L25.536 70.8017L27.86 70.8017L27.86 72.2017L25.536 72.2017L25.536 74.4978L24.178 74.4978L24.178 72.2017L21.77 72.2017L21.77 70.8017L24.178 70.8017L24.178 68.5057Z" fill="#9C4DF4" fill-opacity="0.3"/>
<path d="M24.178 87.5057L25.536 87.5057L25.536 89.8017L27.86 89.8017L27.86 91.2017L25.536 91.2017L25.536 93.4978L24.178 93.4978L24.178 91.2017L21.77 91.2017L21.77 89.8017L24.178 89.8017L24.178 87.5057Z" fill="#9C4DF4" fill-opacity="0.3"/>
<path d="M24.178 106.506L25.536 106.506L25.536 108.802L27.86 108.802L27.86 110.202L25.536 110.202L25.536 112.498L24.178 112.498L24.178 110.202L21.77 110.202L21.77 108.802L24.178 108.802L24.178 106.506Z" fill="#9C4DF4" fill-opacity="0.3"/>
<path d="M24.178 125.506L25.536 125.506L25.536 127.802L27.86 127.802L27.86 129.202L25.536 129.202L25.536 131.498L24.178 131.498L24.178 129.202L21.77 129.202L21.77 127.802L24.178 127.802L24.178 125.506Z" fill="#9C4DF4" fill-opacity="0.3"/>
<path d="M5.178 11.5057L6.536 11.5057L6.536 13.8017L8.86 13.8017L8.86 15.2017L6.536 15.2017L6.536 17.4978L5.178 17.4978L5.178 15.2017L2.77 15.2017L2.77 13.8017L5.178 13.8017L5.178 11.5057Z" fill="#9C4DF4" fill-opacity="0.3"/>
<path d="M5.178 30.5057L6.536 30.5057L6.536 32.8017L8.86 32.8017L8.86 34.2017L6.536 34.2017L6.536 36.4978L5.178 36.4978L5.178 34.2017L2.77 34.2017L2.77 32.8017L5.178 32.8017L5.178 30.5057Z" fill="#9C4DF4" fill-opacity="0.3"/>
<path d="M5.178 49.5057L6.536 49.5057L6.536 51.8017L8.86 51.8017L8.86 53.2017L6.536 53.2017L6.536 55.4978L5.178 55.4978L5.178 53.2017L2.77 53.2017L2.77 51.8017L5.178 51.8017L5.178 49.5057Z" fill="#9C4DF4" fill-opacity="0.3"/>
<path d="M5.178 68.5057L6.536 68.5057L6.536 70.8017L8.86 70.8017L8.86 72.2017L6.536 72.2017L6.536 74.4978L5.178 74.4978L5.178 72.2017L2.77 72.2017L2.77 70.8017L5.178 70.8017L5.178 68.5057Z" fill="#9C4DF4" fill-opacity="0.3"/>
<path d="M5.178 87.5057L6.536 87.5057L6.536 89.8017L8.86 89.8017L8.86 91.2017L6.536 91.2017L6.536 93.4978L5.178 93.4978L5.178 91.2017L2.77 91.2017L2.77 89.8017L5.178 89.8017L5.178 87.5057Z" fill="#9C4DF4" fill-opacity="0.3"/>
<path d="M5.178 106.506L6.536 106.506L6.536 108.802L8.86 108.802L8.86 110.202L6.536 110.202L6.536 112.498L5.178 112.498L5.178 110.202L2.77 110.202L2.77 108.802L5.178 108.802L5.178 106.506Z" fill="#9C4DF4" fill-opacity="0.3"/>
<path d="M5.178 125.506L6.536 125.506L6.536 127.802L8.86 127.802L8.86 129.202L6.536 129.202L6.536 131.498L5.178 131.498L5.178 129.202L2.77 129.202L2.77 127.802L5.178 127.802L5.178 125.506Z" fill="#9C4DF4" fill-opacity="0.3"/>
</svg>
